<svg height="273.252067" viewBox="0 0 419.85741 313.79999" width="365.605191" xmlns="http://www.w3.org/2000/svg" xmlns:xlink="http://www.w3.org/1999/xlink"><clipPath id="a"><path d="m208.75 116.69s14.75-2 22.76-13.48 6-16.65 11.93-25.41 22.08-16 24.82-15.73 11.24 2.15 7.33 6.55-12.59 9.25-16.52 9.87-5.55-2.65 1.76-8c0 0-4.63 5.36.3 5.27s11.53-7.13 9.76-9-16.51.49-20.22 8.89-2.15 20.35-8.6 30.1-27.47 17.4-38 15.64z"/></clipPath><clipPath id="b"><path d="m239 158.91 48.74-17.32a18.67 18.67 0 0 1 8-9.36c9.8-5.39 25.31-6 30.84-6.35 14.47-.79 53-8.21 63.72-34.6 0 0-7.82 14.86-29.71 18.38s-50.43 2.93-70.95 3.32-46.52 7.4-46.52 7.4 21.9-10.36 55.71-12.12 68.79.19 83.45-13.49 13.36-29.21-2-41c-14.08-10.81-22.68-11.34-23.08-16 0 0-.58-3.64 5.48-2.77 5.22.78.78 3.12.78 3.12s3.78-.38 3-2.86-13.55-3.65-14.46 1 7.4 7 9.38 12.78-7.3 22-32.19 25.8-39.79 4.55-56.72 12.16c0 0 12.37-8.61 38.3-13.56s42.74-10 41.18-18.73-11.75-18.29-15.64-19.33-27.63 8.08-27.49 14.33 14.72-.65 14.72-.65-12.12 2.78-11.1.13 8.2-4.82 13.29-5.21c0 0 11.46 8.32-2.09 13.69s-22.4 3.51-42.74 14.46c-18.27 9.87-32.84 27.75-47.18 37.27-13.7 9.09-26.45 12.89-33.09 9.51-8.41-4.3-6.9-6.78-6.9-6.78l-10.56 7.16s-8.56 10.67-4.52 16 60.35 23.62 60.35 23.62z"/></clipPath><clipPath id="c"><path d="m114.15 205s19.31-15.78 45.6-50.57c0 0 8.54-30.94 56-27 0 0 21.11 21.5 11.92 35.57 0 0-71.09 25.51-97.13 35.15-2.29.86-5.55 2.1-9.73 3.8-3.23 1.31-6.66 3.05-6.66 3.05z"/></clipPath><clipPath id="d"><path d="m119 111.87s-5.35 17.27-4.57 33.35c.66 13.43 9.78 18.25 9.78 18.25a38.35 38.35 0 0 1 8.7-13.47c6.26-6.12 11.73-9.51 23.06-14.84 6.07-2.87 8.11-3.61 13.82-6.48 0 0 14.32-7.3 18.24-18.5s-7.4-21.48-22.55-19.15c-28 4.29-35.82 21.89-35.82 21.89s-4-2.48-6.91-2.61-3.75 1.56-3.75 1.56z"/></clipPath><clipPath id="e"><path d="m161.06 114.47a4.26 4.26 0 0 0 -3.7-1.79 21.45 21.45 0 0 1 -3.45 4.95c-.35.38-1.16.92-1.66 1.42a3.87 3.87 0 0 0 .5 1.07c1.37 2 4.35 2.39 6.65.84s3.04-4.47 1.66-6.49z"/></clipPath><clipPath id="f"><path d="m132.4 128.78a2 2 0 0 1 .51-1.93 8.61 8.61 0 0 0 2.85.34c.25 0 .7-.08 1-.09a3 3 0 0 1 .25.65 2.43 2.43 0 0 1 -1.62 3h-.08a2.59 2.59 0 0 1 -2.91-1.97z"/></clipPath><path d="m-.00259966-27.35h422.35999966v368.5h-422.35999966z" fill="none"/><path d="m124.9974 203.77-4 1.42c-.43.16-.67 0-.6-.43l1.53-9-9.93 3.57-1.53 9a1.36 1.36 0 0 1 -.87.92l-4 1.44c-.44.15-.7-.05-.64-.42l3-17.51c.93-5.71 4.85-8.53 10.33-10.48l2.78-1c5.48-1.95 8.84-1.71 7.87 4l-3 17.5a1.4 1.4 0 0 1 -.94.99zm-1.63-16.51c.4-2.38-.26-2.85-3.08-1.85l-2.78 1c-2.77 1-3.7 2-4.11 4.41l-.77 4.55 9.93-3.55zm17.36 11.15c-2.82 1-6.6 2.13-7.76 2.39-.66.13-.93 0-.85-.7l3.88-22.87a1.93 1.93 0 0 1 1.22-1.43c1.22-.59 5.07-2.19 7.9-3.19 7.95-2.84 11.85-.78 10.71 5.95l-.85 5c-1.14 6.73-6.27 12.02-14.25 14.85zm9.61-17.89c.87-5.1-1.92-5.35-5.89-3.93-1.48.52-2.53.92-3.36 1.28l-3 17.65c.84-.27 1.85-.56 3.32-1.09 4-1.41 7.23-3.82 8.1-8.92zm25.06 5.13a63.55 63.55 0 0 1 -7.63 3.17c-5.17 1.85-9 2.08-8-3.7l2-11.87c1-5.77 5.2-8.4 10.37-10.24a50 50 0 0 1 7.47-2.21c.59-.15.76-.05.67.42l-.37 2.19a1.45 1.45 0 0 1 -.92.92l-8.09 2.93c-2.3.82-3.24 1.8-3.63 4l-.62 3.7 10.73-3.9c.44-.15.74 0 .67.4l-.41 2.45a1.48 1.48 0 0 1 -.93.93l-10.71 3.81-.75 4.38c-.38 2.24.34 2.63 2.64 1.85l8.11-2.88c.44-.16.74 0 .68.38l-.37 2.19c-.08.52-.31.76-.91 1.08zm22.34-8a69.87 69.87 0 0 1 -6.85 2.89c-5.16 1.85-9 2.08-8-3.7l3-17.89a1.48 1.48 0 0 1 .92-.92l3.94-1.41c.44-.14.74 0 .68.4l-3.05 17.88c-.38 2.25.3 2.65 2.61 1.85l7.31-2.61c.44-.15.75 0 .68.4l-.37 2.18c-.07.42-.3.63-.87.93zm24.89-8.69-4 1.44c-.44.16-.67-.05-.6-.43l1.52-9-9.94 3.59-1.52 9a1.42 1.42 0 0 1 -.87.93l-4 1.42c-.44.16-.69 0-.64-.41l3-17.51c1-5.7 4.85-8.53 10.33-10.48l2.78-1c5.48-1.95 8.84-1.71 7.86 4l-3 17.51a1.36 1.36 0 0 1 -.92.94zm-1.63-16.49c.39-2.39-.27-2.85-3.09-1.85l-2.78 1c-2.77 1-3.7 2-4.11 4.41l-.77 4.56 9.93-3.55zm13.28 12.35-3.93 1.4c-.44.15-.74 0-.69-.4l4.07-23.93a1.44 1.44 0 0 1 .93-.93l3.93-1.4c.44-.16.75 0 .69.36l-4.07 23.94a1.46 1.46 0 0 1 -.93.96zm15.77-5.37c-2.82 1-6.59 2.12-7.76 2.38-.65.14-.92 0-.85-.68l3.89-22.88a1.84 1.84 0 0 1 1.22-1.42c1.22-.6 5.07-2.2 7.9-3.2 7.94-2.83 11.86-.78 10.71 5.95l-.85 5c-1.15 6.73-6.31 12.05-14.26 14.85zm9.67-17.89c.86-5.1-1.93-5.35-5.9-3.94-1.48.53-2.52.93-3.36 1.3l-3 17.64c.83-.26 1.85-.56 3.32-1.08 4-1.43 7.22-3.82 8.09-8.92zm24.98 5.09a62.09 62.09 0 0 1 -7.64 3.17c-5.17 1.85-9 2.08-8-3.7l2-11.86c1-5.78 5.21-8.4 10.37-10.24a48.88 48.88 0 0 1 7.47-2.22c.59-.14.75-.05.68.43l-.37 2.17a1.48 1.48 0 0 1 -.93.93l-8.1 2.9c-2.31.81-3.26 1.79-3.64 4l-.62 3.7 10.76-3.85c.45-.15.75 0 .69.41l-.38 2.46a1.47 1.47 0 0 1 -.93.92l-10.76 3.84-.75 4.39c-.38 2.24.34 2.62 2.64 1.85l8.11-2.89c.44-.16.74 0 .68.4l-.37 2.17c-.05.5-.28.74-.91 1.02zm-221.93 85.67 13.06-4.67-2.17 12.55c1.21-.56 2.42-1.05 3.55-1.46a23.74 23.74 0 0 1 7.68-1.57 8.2 8.2 0 0 1 6.53 2.66c1.85 2.23 2.45 5.7 1.67 10.3l-4.09 24.2a4.73 4.73 0 0 1 -2.84 3.44s-6.94 2.45-7.29 2.45a2.64 2.64 0 0 1 -2-.92 2.91 2.91 0 0 1 -.58-2.38l4.09-24.27c.42-2.49 0-3 0-3.07a1 1 0 0 0 -.56-.1 8.18 8.18 0 0 0 -2.66.61 40.06 40.06 0 0 0 -5.55 2.4l-3.93 23.16c-1.3 6.57-7.77 11.2-11.63 12.56l-3 1.1z" fill="#ef5091"/><path d="m85.6074 275.87-6.28 2.23c-.75.27-1.24-.23-1.11-1l4.13-24.24c.83-4.92-.77-6.48-5.74-4.63a40.39 40.39 0 0 0 -6.65 3l-4.07 24c-1.09 5.8-7 9.93-10.37 11.16l9-52.73c3.57-1.32 6-2.17 9-3.24l-2.24 13a47.1 47.1 0 0 1 6.66-3c11-3.93 14.92.31 13.39 9.3l-4.12 24.23a2.86 2.86 0 0 1 -1.6 1.92z" fill="#000018"/><path d="m103.8674 270.26a8.85 8.85 0 0 1 -7-2.9c-2.15-2.54-2.78-6.6-1.85-12.07l3.7-22a4.63 4.63 0 0 1 2.77-3.42l6.4-2.27a3 3 0 0 1 1-.19 2.55 2.55 0 0 1 1.94.93 2.87 2.87 0 0 1 .58 2.41l-3.7 22c-.7 4.08 0 5 0 5.07s.27.1.43.1a6.81 6.81 0 0 0 2-.47l.41-.14c3.3-1.18 5.73-3.33 6.86-10l2.53-14.8a17.06 17.06 0 0 1 11.82-13.35l3-1-4.54 26.55a31 31 0 0 1 -19.69 24.24l-.41.15a19.73 19.73 0 0 1 -6.22 1.16z" fill="#ef5091"/><path d="m109.9974 267.05-.41.15c-4 1.43-15.24 3.82-12.6-11.72l3.7-22a2.72 2.72 0 0 1 1.55-2l6.4-2.29c.76-.26 1.18.25 1 1l-3.75 22c-1.26 7.4 1 8.2 5 6.79l.4-.14c4-1.41 6.84-4 8.1-11.47l2.53-14.8a15.14 15.14 0 0 1 10.5-11.85l-4 23.42a29 29 0 0 1 -18.42 22.91z" fill="#000018"/><path d="m135.3474 232.4a26.53 26.53 0 0 1 17.33-20.86l4.22-1.5a17.58 17.58 0 0 1 5.82-1.16 7.68 7.68 0 0 1 6.11 2.58c1.92 2.27 2.49 5.75 1.71 10.35l-4.2 24.67a4.63 4.63 0 0 1 -2.77 3.42l-6.41 2.28a2.85 2.85 0 0 1 -1 .18 2.55 2.55 0 0 1 -1.94-.93 2.9 2.9 0 0 1 -.59-2.41l4.2-24.67c.36-2.18.22-3 .12-3.21a3.52 3.52 0 0 0 -1.1.25l-4.22 1.51c-2.56.92-3.87 2.9-4.55 6.89l-2.6 15.61c-1.21 7-5.94 12.95-12 15.06l-3 1z" fill="#ef5091"/><path d="m163.0474 248-6.4 2.28c-.75.27-1.18-.25-1-1l4.2-24.67c.6-3.49.46-6.48-3.49-5l-4.23 1.5c-4 1.4-5.18 4.85-5.77 8.32l-2.6 15.62c-1.17 6.8-5.76 11.85-10.81 13.6l4.41-26a24.82 24.82 0 0 1 16.1-19.42l4.23-1.5c8.85-3.16 12.62 1.05 11.15 9.68l-4.2 24.68a2.74 2.74 0 0 1 -1.59 1.91z" fill="#000018"/><path d="m180.7674 242.91a8.36 8.36 0 0 1 -6.75-2.77c-2.22-2.63-2.84-6.94-1.85-12.81l.93-5.5c2.08-12.24 9.38-21.17 20.54-25.15a54.26 54.26 0 0 1 5.46-1.61l.67-3.61a16.89 16.89 0 0 1 11.53-12.46l2.94-.92-9 52.66c-.33 1.93-1.29 2.82-3 3.89a88 88 0 0 1 -14.35 6.89 22 22 0 0 1 -7.13 1.44zm16.33-36.07c-1.27.35-2.57.76-3.49 1.08-4.37 1.56-6.7 4.95-7.79 11.33l-.93 5.5c-.71 4.19-.16 5.39.12 5.71.07.08.21.26.81.26a6.84 6.84 0 0 0 2.14-.47 59.71 59.71 0 0 0 5.55-2.29z" fill="#ef5091"/><path d="m201.4374 232.84a84.55 84.55 0 0 1 -14 6.72c-11 3.92-15.19-1-13.29-12.07l.93-5.48c1.89-11.1 8.32-19.8 19.33-23.7a53.81 53.81 0 0 1 6.48-1.85l.92-4.82a15 15 0 0 1 10.25-11l-8.5 49.64c-.18 1.04-.56 1.57-2.12 2.56zm-1.85-28.68a63.75 63.75 0 0 0 -6.48 1.85c-5.85 2.09-8 6.95-9 12.8l-.93 5.49c-1 5.85-.3 9.69 5.55 7.6a52.91 52.91 0 0 0 6.62-2.83z" fill="#000018"/><path d="m357.2874 180.01a8.41 8.41 0 0 1 -6.76-2.78c-2.21-2.62-2.83-6.93-1.85-12.81l.93-5.49c2.09-12.28 9.39-21.18 20.55-25.15a54.26 54.26 0 0 1 5.46-1.61l.66-3.66a16.87 16.87 0 0 1 11.53-12.46l2.94-.92-8.92 52.67c-.34 1.92-1.29 2.77-3.06 3.88a87.51 87.51 0 0 1 -14.34 6.89 21.78 21.78 0 0 1 -7.14 1.44zm16.33-36.08c-1.27.35-2.57.76-3.49 1.09-4.38 1.56-6.71 4.94-7.79 11.33l-.93 5.49c-.71 4.19-.16 5.39.11 5.72.07.08.22.26.82.26a6.84 6.84 0 0 0 2.14-.47 58.4 58.4 0 0 0 5.55-2.3z" fill="#ef5091"/><path d="m377.9074 169.93a82.76 82.76 0 0 1 -14 6.73c-11 3.91-15.13-1-13.24-12.09l.93-5.48c1.89-11.11 8.32-19.8 19.32-23.7a53.81 53.81 0 0 1 6.48-1.85l.92-4.82a14.93 14.93 0 0 1 10.25-11l-8.48 49.65c-.2 1.05-.54 1.58-2.18 2.56zm-1.85-28.68a62.84 62.84 0 0 0 -6.47 1.85c-5.87 2.09-8 7-9 12.79l-.93 5.5c-1 5.84-.29 9.68 5.55 7.59a51.59 51.59 0 0 0 6.63-2.83z" fill="#000018"/><path d="m219.4074 228.97a9.33 9.33 0 0 1 -7.41-3.07c-2.22-2.63-2.87-6.76-1.94-12.27l.93-5.29c2-12 9.77-21.5 20.65-25.39a19.69 19.69 0 0 1 6.53-1.28 8.88 8.88 0 0 1 7.06 3c2.29 2.7 3 7.11 2 12.71l-.69 4a4.42 4.42 0 0 1 -2.88 3.7l-21.1 7.57a4.86 4.86 0 0 0 .44 3.27c.11.12.36.43 1.29.43a8.28 8.28 0 0 0 2.56-.52 99 99 0 0 0 11.82-5.18l4.85-2.51-2.3 5a34.66 34.66 0 0 1 -4.95 7.61 21.18 21.18 0 0 1 -10.29 7 19.87 19.87 0 0 1 -6.56 1.24zm13.8-34.7a5.4 5.4 0 0 0 -1.74.36 11.85 11.85 0 0 0 -6.71 6.9l10-3.56a4.8 4.8 0 0 0 -.45-3.3 1.28 1.28 0 0 0 -1.09-.4z" fill="#ef5091"/><path d="m243.1174 203.19-22.2 7.92v.21c-.7 4.14.07 8.33 6.63 6.15a104.45 104.45 0 0 0 12.1-5.24 32.85 32.85 0 0 1 -4.63 7.14 19.43 19.43 0 0 1 -9.51 6.48c-6.82 2.41-15.83 2-13.44-12l.92-5.27c1.85-11.1 9-20.22 19.43-23.94s15 1.71 13.14 12.33l-.68 4a2.63 2.63 0 0 1 -1.76 2.22zm-6.47-4.24c.92-5.55-1.45-7.73-5.66-6.22s-7.83 5.73-8.78 11.37l-.06.28 14.44-5.15z" fill="#000018"/><path d="m249.1274 218.81a2.59 2.59 0 0 1 -2-.93 2.85 2.85 0 0 1 -.58-2.37l5.95-35a6.46 6.46 0 0 1 3-4c4.77-3.16 14.12-6.32 14.5-6.48l3.28-1.11-.84 3.35a17.82 17.82 0 0 1 -3.21 6.61 24 24 0 0 1 -4.9 4.14l-5.08 29.94a4.64 4.64 0 0 1 -2.78 3.42l-6.34 2.25a3 3 0 0 1 -1 .19z" fill="#ef5091"/><path d="m267.9974 177.48a20.55 20.55 0 0 1 -5.2 4.22l-5.23 30.81a2.78 2.78 0 0 1 -1.56 1.95l-6.33 2.26c-.75.26-1.24-.23-1.1-1l5.94-35a4.6 4.6 0 0 1 2.21-2.77c4.62-3.05 14.06-6.24 14.06-6.24a16.48 16.48 0 0 1 -2.79 5.77z" fill="#000018"/><path d="m328.1174 190.86a2.61 2.61 0 0 1 -2-.92 2.88 2.88 0 0 1 -.58-2.38l5.95-35a6.77 6.77 0 0 1 3-4c4.91-3.6 17.77-7.56 17.77-7.56l-.84 3.35a17.82 17.82 0 0 1 -3.21 6.61 23.7 23.7 0 0 1 -4.9 4.14l-5.08 29.94a4.66 4.66 0 0 1 -2.78 3.42s-7 2.43-7.4 2.43z" fill="#ef5091"/><path d="m346.9374 149.54a20.63 20.63 0 0 1 -5.2 4.23l-5.24 30.79a2.8 2.8 0 0 1 -1.56 2l-6.33 2.26c-.75.27-1.24-.22-1.1-1l5.95-35a4.6 4.6 0 0 1 2.2-2.78c4.62-3 14.06-6.23 14.06-6.23a16.19 16.19 0 0 1 -2.78 5.73z" fill="#000018"/><path d="m272.7974 209.15a2.94 2.94 0 0 1 -2.32-.93 3 3 0 0 1 -.48-2.57l6.64-39.11c1.3-7.4 5.81-13.11 12-15.19l3-1-2.07 12.2c1.26-.54 2.47-1 3.54-1.4a21.78 21.78 0 0 1 7.13-1.45 8.39 8.39 0 0 1 6.76 2.83c2.22 2.62 2.83 6.92 1.85 12.8l-.92 5.49c-2.09 12.24-9.38 21.18-20.56 25.16a59.39 59.39 0 0 1 -13.88 3.12h-.71zm11.1-13.29c1.05-.3 2.27-.69 3.49-1.12 4.38-1.57 6.71-5 7.8-11.34l.92-5.49c.71-4.19.16-5.4-.11-5.72-.07-.08-.21-.26-.81-.26a6.59 6.59 0 0 0 -2.15.48c-1.27.45-3.7 1.44-5.55 2.33z" fill="#ef5091"/><path d="m286.8274 204.08a57.39 57.39 0 0 1 -13.37 3.06c-1.5.14-1.7-.19-1.52-1.27l6.65-39.11c1.16-6.62 5.16-11.85 10.78-13.72l-2.15 12.61a69.12 69.12 0 0 1 6.63-2.83c11-3.91 15.13 1 13.24 12.09l-.92 5.5c-1.9 11.1-8.38 19.77-19.34 23.67zm11.27-26c1-5.85.3-9.69-5.55-7.6a70.15 70.15 0 0 0 -6.62 2.83l-4.24 24.88a41.54 41.54 0 0 0 6.47-1.85c5.87-2.09 8-6.94 9-12.79z" fill="#000018"/><path d="m311.4174 196.78a2.6 2.6 0 0 1 -2-.92 2.85 2.85 0 0 1 -.59-2.38l6.71-39.42 13.12-4.58-7.13 41.43a4.73 4.73 0 0 1 -2.84 3.44l-6.24 2.3a3 3 0 0 1 -1 .18zm7.56-45.5a2.65 2.65 0 0 1 -2-.93 2.76 2.76 0 0 1 -.57-2.28l1.06-6.27a4.72 4.72 0 0 1 2.9-3.39l10.54-3.7s-.92 6.36-4.46 10.93a22.11 22.11 0 0 1 -6.12 5.36 3.79 3.79 0 0 1 -1.32.3z" fill="#ef5091"/><path d="m318.1874 192.46-6.27 2.24c-.75.27-1.24-.23-1.11-1l6.53-38.34c3.26-1.16 6.8-2.43 9.07-3.19l-6.56 38.34a2.89 2.89 0 0 1 -1.66 1.95zm6.82-48.1a18.44 18.44 0 0 1 -5.48 4.81c-.75.27-1.32-.13-1.18-.93l1.06-6.27a2.86 2.86 0 0 1 1.68-1.94l7.34-2.59a18.34 18.34 0 0 1 -3.42 6.94z" fill="#000018"/><path d="m387.7674 168.79a2.74 2.74 0 0 1 -2.13-.93 2.93 2.93 0 0 1 -.57-2.46l.72-4.28a4.19 4.19 0 0 1 2.65-3l.31-.11h.11c3.08-.72 9.09-2.52 11.1-3.24 3.8-1.35 4-2.65 4.2-3.7a6.47 6.47 0 0 0 -1.12-.47l-8.26-2.63c-4.1-1.32-6.15-5.11-5.33-9.91 1.35-7.95 6.26-13.17 15.47-16.46 2.37-.84 5.42-1.85 9-3a18 18 0 0 0 4.63-2.59l3.77-3s-.49 3.6-.73 4.79-.54 3.37-3.5 7.25c-2.64 3.45-5.8 5.35-12.09 7.26-2.7.81-3.51 1.78-3.8 2.77l.83.27 8 2.54c6.56 2 6.64 6.74 6 10.61-1.28 7.53-7.59 14.18-16.46 17.34a59.82 59.82 0 0 1 -12.43 3h-.34z" fill="#ef5091"/><path d="m399.9974 163.85a58.42 58.42 0 0 1 -11.95 2.92c-.78.08-1.15-.32-1-1.18l.74-4.28a2.34 2.34 0 0 1 1.42-1.58l.2-.07c3.19-.74 9.25-2.56 11.31-3.29 4.22-1.51 5.09-3.22 5.42-5.15.23-1.36-.44-1.92-2.38-2.57l-8.32-2.66c-3-.93-4.76-3.7-4.05-7.8 1.21-7.13 5.55-11.92 14.24-15 2.95-1 6.47-2.16 9-3a20.13 20.13 0 0 0 5.23-2.9 15.69 15.69 0 0 1 -3.14 6.39c-2.43 3.19-5.46 4.88-11.1 6.6-3.32 1-4.84 2.46-5.21 4.67-.19 1.14.71 1.49 2.23 1.95l7.95 2.52c5.1 1.6 5.32 4.87 4.7 8.51-1.09 6.24-6.36 12.72-15.29 15.92z" fill="#000018"/><path d="m56.8474 234.3c-.58.19-13.36 4.42-20 7.64a97.767 97.767 0 0 0 -6.47 3.43 129.23 129.23 0 0 1 11.1-7.64c-4.23 1.33-12.79 4.46-12.79 4.46-3.56 1.32-14.08 5.86-16.81 7.4-3.1499997 1.75-4.7799997 4.06-7.3399997 10.22a84 84 0 0 0 -4.05999996 15 46.34 46.34 0 0 0 -.43 8.73 48.19 48.19 0 0 1 3.99999996-7.56s2.72-5.17 10.3599997-10.07a75.75 75.75 0 0 1 13.67-6.73l-9.28 54.62 3-1c8.43-2.91 13.66-12.31 15-19.82l6.62-39.12 13.87-4.88 2.71-15.66z" fill="#ef5091"/><path d="m37.7874 243.51c-17.58 8.53-24.89 17.68-24.89 17.68 3.72-9.65 16.48-17.37 16.48-17.37-3.38 1.25-13.88 5.83-16.53 7.26s-4.0699997 3.37-6.4799997 9.3a89.11 89.11 0 0 0 -3.94 14.63s2.78-5.55 10.9999997-10.8a78.09 78.09 0 0 1 17.07-8l-9.25 54.58c7.75-2.64 12.57-11.59 13.75-18.32l6.79-40.22 14-5c.7-3.62 1.41-7.6 2.13-11.44.01.01-13.54 4.49-20.13 7.7zm108.26-166.51-1.79-4.5a48.57 48.57 0 0 1 -2.2-7.57c-1.1-6-.56-9.37 9.25-17 17.76-13.81 48.1-25.61 57-29.06 6.67-2.6 16.09-5.87 16.09-5.87-.39.22-54.62 30.93-64 40a55.14 55.14 0 0 0 -12.81 19.43l-1.59 4.63z" fill="#000018"/><path d="m145.9374 71.85a56.24 56.24 0 0 1 13.22-20.12c9.64-9.36 49.33-31.33 49.33-31.33s-38.31 15.1-56.08 28.91c-9.41 7.34-9.56 10.17-8.6 15.34a43.16 43.16 0 0 0 2.13 7.2z" fill="#fff"/><path d="m151.2574 142.15-.85-2.12a48 48 0 0 0 -8.14-12.76c-5.69-6.34-10.56-12.39-10.62-12.45l-.3-.4-.07-.49a19.71 19.71 0 0 1 1.53-9 6 6 0 0 1 -2.43-4.39c-2.26-1.08-5.27-2.77-6.06-4.2a14.61 14.61 0 0 1 -1.1-3.49 43.87 43.87 0 0 0 -2.11-6.83l-.06-.14v-.14c-.18-.8-4.24-19.78 30.81-33.21a33.05 33.05 0 0 1 11.65-2.38c7.72 0 14.16 3.48 19.13 10.34 8.46 11.66 10.18 30.2 8.64 34.91-5.55 16.88-9.59 24.47-9.77 24.79l-.19.35-.32.24-27.9 20.07-1.85 1.33z" fill="#000018"/><path d="m152.0574 139.38a49.77 49.77 0 0 0 -8.46-13.29c-5.74-6.38-10.56-12.38-10.56-12.38a18.63 18.63 0 0 1 2.06-9.61 4.32 4.32 0 0 1 -3-4.73s-5.47-2.48-6.26-3.9-1.17-5.48-3.12-10.18c0 0-4.31-18.11 29.71-31.14s39.22 34.27 37.13 40.65c-5.55 16.92-9.64 24.5-9.64 24.5z" fill="#fff"/><path d="m278.1074 37.75c-1.47-3.82-8.83-4.71-9.67-4.81h-.36c-4.09 0-20 7.51-26.11 16.53a39.4 39.4 0 0 0 -5.13 11.23 46.17 46.17 0 0 1 -6.79 14.16c-7.44 10.73-21.4 12.72-21.54 12.74l-.59.08-.43.43-4.69 4.69-2.44 2.41 3.4.57a23 23 0 0 0 3.7.28c11.62 0 29.93-7.29 36.14-16.65 4-6.08 5.08-13 6-19.05.65-4.15 1.26-8.07 2.7-11.31a11.68 11.68 0 0 1 4.71-5c-3.07 3-3.32 5.1-2.87 6.47.52 1.56 2 2.49 4.07 2.49a7.3 7.3 0 0 0 1.14-.09c4.21-.63 13.34-5.67 17.57-10.45 1.73-1.99 1.61-3.69 1.19-4.72zm-14.76 3.81-3 .77a23.59 23.59 0 0 1 7.91-1.74 8.74 8.74 0 0 1 1 .07c-.73 1.78-5.16 6.9-8.45 6.12-.47-.13.19-3.07 2.54-5.22z" fill="#000018"/><path d="m208.7474 89.34s14.75-2 22.76-13.48 6-16.65 11.93-25.41 22.08-16 24.82-15.73 11.24 2.15 7.33 6.55-12.59 9.25-16.52 9.87-5.55-2.65 1.76-8c0 0-4.63 5.36.3 5.27s11.53-7.13 9.76-9-16.51.49-20.22 8.89-2.15 20.35-8.6 30.1-27.47 17.4-38 15.64z" fill="#ef5091"/><g clip-path="url(#a)" transform="translate(-.0026 -27.35)"><path d="m240.79 95.06s2.05-7.62 3.33-11.69c1.88-5.87 6.67-11.11 13.58-14.37 0 0-8.89 5.41-11.82 12.41-2.36 5.59-5.09 13.65-5.09 13.65z" fill="#000018"/></g><path d="m360.3274 80.55c-17.36 2.77-38.65 3-57.44 3.14-4.7 0-9.13.09-13.26.17-1.85 0-3.82.12-5.78.26 4.71-.64 9.75-1.14 15.09-1.42 6.32-.32 12.74-.52 18.95-.72 27.37-.85 53.22-1.66 65.63-13.24 7.46-7 11.22-14.71 10.85-22.43s-4.85-15.1-12.95-21.27a101.86 101.86 0 0 0 -16.16-10.09c-4.12-2.13-6.15-3.23-6.23-4.69a.82.82 0 0 1 .13-.5c.09-.11.49-.46 1.85-.46a11 11 0 0 1 1.52.13.7.7 0 0 1 .41.18c.3.78-2.68 1.57-2.68 1.57a15.34 15.34 0 0 0 2.5.57c1.35.2 3.88.32 5-1.43a3.24 3.24 0 0 0 .48-2.92c-1.06-3.31-8.17-3.4-9-3.4-5.1 0-8.32 1.69-8.92 4.62-.7 3.54 2 5.86 4.69 8.11 2 1.65 4 3.37 4.75 5.55.4 1.17.13 3.75-1.94 7.17-1.82 3.08-9.43 13.36-28.82 16.3-4.95.76-9.45 1.38-13.8 2-4 .55-7.71 1.07-11.27 1.62 2.26-.54 4.63-1.06 7.17-1.54 27.65-5.27 44.41-10.6 42.56-20.81-1.67-9.3-12.24-19.43-16.93-20.69a4.73 4.73 0 0 0 -1.24-.15c-5.2 0-20.69 6-26.2 11.58-1.54 1.58-2.32 3.15-2.28 4.62 0 1 .46 4.52 5.22 4.36a25.17 25.17 0 0 0 11.5-3.7 17.72 17.72 0 0 0 4.41-3.12s-14.1 2.28-12.44 1.31a27.2 27.2 0 0 1 9.48-2.78c1.33 1.12 3.56 3.49 3.28 5.61s-3.1 3.68-5.46 4.59a87.92 87.92 0 0 1 -13.88 4 100.56 100.56 0 0 0 -29.07 10.59c-10.8 5.84-20.14 14.26-29.16 22.4-6.3 5.69-12.25 11.1-18.13 15-10 6.63-19.56 10.43-26.25 10.43a11 11 0 0 1 -5.06-1c-5.68-2.89-6-4.62-6-4.69a1 1 0 0 1 -.15.42l-2.52-2.39-10.55 7.17-.23.07-.17.2c-1 1.21-9.33 11.95-4.63 18.21 4.17 5.55 51.81 21.13 61.27 24.21l.56.52.62-.07 40.86-14.55 9.45-3.38a14 14 0 0 1 5.7-8.08c6.54-4.72 16.65-6.48 31-7.4 17.93-1.16 55.68-9.64 64.92-36.17a58.6 58.6 0 0 0 2.16-8 44.59 44.59 0 0 1 -33.41 24.41z" fill="#000018"/><path d="m238.9974 131.56 48.74-17.32a18.67 18.67 0 0 1 8-9.36c9.8-5.39 25.31-6 30.84-6.35 14.47-.79 53-8.21 63.72-34.6 0 0-7.82 14.86-29.71 18.38s-50.43 2.93-70.95 3.32-46.52 7.4-46.52 7.4 21.9-10.36 55.71-12.12 68.79.19 83.45-13.49 13.36-29.21-2-41c-14.08-10.81-22.68-11.34-23.08-16 0 0-.58-3.64 5.48-2.77 5.22.78.78 3.12.78 3.12s3.78-.38 3-2.86-13.55-3.65-14.46 1 7.4 7 9.38 12.78-7.3 22-32.19 25.8-39.79 4.55-56.72 12.16c0 0 12.37-8.61 38.3-13.56s42.74-10 41.18-18.73-11.75-18.29-15.64-19.33-27.63 8.08-27.49 14.33 14.72-.65 14.72-.65-12.12 2.78-11.1.13 8.2-4.82 13.29-5.21c0 0 11.46 8.32-2.09 13.69s-22.4 3.51-42.74 14.46c-18.27 9.87-32.84 27.75-47.18 37.27-13.7 9.09-26.45 12.89-33.09 9.51-8.41-4.3-6.9-6.78-6.9-6.78l-10.56 7.16s-8.56 10.67-4.52 16 60.35 23.62 60.35 23.62z" fill="#ef5091"/><g clip-path="url(#b)" fill="#000018" transform="translate(-.0026 -27.35)"><path d="m325.76 44s11.27-1.4 19.51 3.22c6 3.35 5.94 9.58 4.28 12.17 0 0 3-7.15-4.62-11.61-6.93-4.06-18.93-2.43-18.93-2.43zm33.68 1.78a47.88 47.88 0 0 1 10.94 18.22c3.7 11.59-7.81 15.93-7.81 15.93s11-4.86 6.25-16.72-9.25-14.69-9.82-15.96.44-1.47.44-1.47z"/><path d="m366.15 62.49s1.92 17.22-19.71 22.44-43.44 1.14-66.55 9.87c0 0 8-4.82 31.57-6.94 27.7-2.49 42.61-4.15 48.76-11.37s5.93-14 5.93-14z"/><path d="m378.79 74.46s.52 11.2-21.76 14.33-57.86-1.94-86.4 11.36-41.95 26.18-62.9 24.88-16.28-13-16.28-13l-2.54 1.31s-3.62 11.43 17.68 13.49 41.63-14.25 51.6-19.26c11.63-5.86 27.75-14.59 58.73-15.64s42.18-.22 53.07-5.67c9.78-4.95 8.8-11.8 8.8-11.8z"/><path d="m258.79 130.77s-9.13-6.66-25-4.82-47.18 7.81-45.73-12l-1.44.78s-4.95 15.72 18.76 14.72 27.07-3 35.93-2.89a38.71 38.71 0 0 1 17.48 4.21z"/><path d="m185.78 116.49s-2.34 7.92 6.06 12.55 25.31 1.16 33.81 3.12a17.62 17.62 0 0 1 11.63 8.4s-6.06-7-12.32-7.62-18.56 1.07-29.41-1.17-12-10-10.55-14.85z"/><path d="m183.92 117.86s-6.25 11.83-2.44 16.33l2-.88s-2.05-2-1.47-6.74a38.27 38.27 0 0 1 2.63-9.26zm81.77-12.64s13-7.76 28.27-8.32c15.55-.58 20.76.14 28.53.27 0 0-18.74-.27-28.63.58a86.13 86.13 0 0 0 -28.17 7.47zm-1.35 14.07a176.66 176.66 0 0 1 38.32-1c21.63 1.69 42.55 2.77 58.63-3.14 18.37-6.7 22.93-13.61 22.93-13.61s-10.55 13.95-32.31 17.57c-19.93 3.34-36 1.23-52-.06a232.21 232.21 0 0 0 -35.57.24zm22.56 12.4a87.19 87.19 0 0 1 23.54-4.69c17.1-1.09 28.08-2 28.08-2l-3.95 1s-19.34 2.18-27.76 2.7a165.21 165.21 0 0 0 -19.91 2.99z"/></g><path d="m170.3974 102.99-1.6-3.15c4.43-3 16-12.45 16.42-20.23.12-2.53-.93-4.71-3.27-6.65a24 24 0 0 0 -15.66-5.5 38.67 38.67 0 0 0 -18.36 5.1c-9.06 5.55-16.07 15.81-16.15 15.92l-.63.92-1.11-.18a30.51 30.51 0 0 1 -7-2.22 7.81 7.81 0 0 0 -3.21-.84 3.38 3.38 0 0 0 -.45 0l-1.59.34-.55-1.47c-.14-.45-3.26-11.1-1.46-18.5 1-4.17 7.7-25.54 39.73-36.31a54.77 54.77 0 0 1 17.34-3.1c23.12 0 30.39 18.38 31.15 20.47 2.59 7.22 2.67 17.69.2 32.94-.3 1.91-.13 3.29.48 4a3 3 0 0 0 2.41.8 17.09 17.09 0 0 0 6-1.49l3.45-1.59-1 3.7c-1 3.7-5.1 10.72-13.42 10.72-3.7 0-7.88-1.38-12.43-4.09a84.57 84.57 0 0 1 -19.29 10.46zm70.36 28.11c-4.73-17.63-16.37-18.11-16.86-18.12l-2.18-.06.4 2.15 3.88 20.92.38 2.39 2-.72 11.4-4 1.52-.55z" fill="#000018"/><path d="m223.8574 114.75s10.75.26 15.17 16.81l-11.33 4.09z" fill="#fff"/><path d="m217.0474 98.85-.47-.48s-6.21-.39-8.86-.39c-21.47 0-33.81 7.72-40.39 14.2a36.65 36.65 0 0 0 -9.19 14.17c-17.21 22.53-35.06 41.3-43 48.1a142.74 142.74 0 0 1 -12.48 9.57c3.19-1.51 8.49-3.75 13-5.68 6.14-2.59 14.4-5.72 14.4-5.72l98.76-35.15.33-.5c9.85-15.1-11.21-37.2-12.1-38.12z" fill="#000018"/><path d="m114.1474 177.65s19.31-15.78 45.6-50.57c0 0 8.54-30.94 56-27 0 0 21.11 21.5 11.92 35.57 0 0-71.09 25.51-97.13 35.15-2.29.86-5.55 2.1-9.73 3.8-3.23 1.31-6.66 3.05-6.66 3.05z" fill="#fff"/><g clip-path="url(#c)" transform="translate(-.0026 -27.35)"><path d="m158.31 154s17.58-22.43 41.05-13.56c18.24 6.91 15.51 29.32 15.51 29.32l13.8-6s12.52-13.29-11.72-37.27c0 0-26.3-3.23-41.69 7.17-14.47 9.74-16.95 20.34-16.95 20.34z" fill="#f9c4ce"/><path d="m200.21 137.47a32.12 32.12 0 0 0 -11.18-2 34.39 34.39 0 0 0 -29 15l-1.92 4.67-2.44 4.52s2.83-3.1 3.89-4.16c1.36-1.37 12.54-14 28.19-14a28.3 28.3 0 0 1 10.33 2c13.25 5.21 12.83 26.11 12.82 26.32l7.21-2.1c-.02-.26 1.46-23.11-17.9-30.25z" fill="#000018"/><path d="m159.49 154s16.65-21 39.22-12.17c14.6 5.73 13.94 28 13.94 28l3.7-1.37s1.46-22.54-16.91-29.33-34.64 5.16-40.38 13.62z" fill="#ef5091"/></g><path d="m118.9974 84.52s-3.14-10.59-1.44-17.58c1.17-4.82 8.32-24.89 38.57-35.05s43.26 7.95 46.26 16.28 1.95 20.72.13 32.06 11.34 5.21 11.34 5.21-4.69 17.33-24.24 4.95a83.07 83.07 0 0 1 -19.8 10.94s27.1-18.24 13.29-29.7-31.87-3.13-36.08-.53c-9.51 5.87-16.65 16.42-16.65 16.42a28.48 28.48 0 0 1 -6.48-2.08c-3.14-1.4-4.9-.92-4.9-.92z" fill="#000018"/><path d="m119.2274 78.65s-1-6.9-.26-10.81 7-22.93 33.88-33.49c0 0-19 9.65-27.75 25.41a51.14 51.14 0 0 0 -5.87 18.89zm83.14-26.19a75.37 75.37 0 0 1 -.13 20.35c-1.57 12-2.61 15.12 5.6 15.51 0 0-8.42 3.13-8.67-5.55-.13-4.56.8-8 2.16-14.86a85 85 0 0 0 1.04-15.45z" fill="#fff"/><path d="m200.6074 48.37a7.7 7.7 0 0 0 -4.37-4.89 7.12 7.12 0 0 0 -2.77-.54 9.47 9.47 0 0 0 -8.4 6.15 10.2 10.2 0 0 0 -.37 6.93 7.7 7.7 0 0 0 4.36 4.91 7.36 7.36 0 0 0 2.78.54c3.5 0 6.87-2.47 8.39-6.15a10.2 10.2 0 0 0 .38-6.95z" fill="#000018"/><path d="m198.6674 54.65c-1.64 4-5.66 6.06-9 4.69s-4.67-5.69-3.07-9.61 5.65-6.06 9-4.69 4.72 5.68 3.07 9.61z" fill="#ef5091"/><path d="m140.1374 113.87s-1.57 3.33.59 3.91 4.79-.29 5.47.39a2.42 2.42 0 0 1 .68 1.56s.74-2.34-.29-3.17c-.65-.53-4.25.19-5.32-.3s-1.13-2.39-1.13-2.39zm7.72 1.22s2.95-1.07 3.54-.78.12 1.67-.41 1.42a5.94 5.94 0 0 0 -1.25-.59 7 7 0 0 0 -1.88-.05z" fill="#000018"/><path d="m157.9974 121.11s-.62.43-.75 2.58-.68 4.17-3 5.51-5.77 2.5-7.4 1.24-.93-3.2-.93-3.92a2.24 2.24 0 0 1 .82-1.69 8.46 8.46 0 0 1 1.92-.49 4.24 4.24 0 0 1 3.06-2.51 36.08 36.08 0 0 1 4.53-.23 9.88 9.88 0 0 0 1.75-.49z" fill="#f9c4ce"/><path d="m148.7774 125.96a9.43 9.43 0 0 0 -1.17.1c-1.51.18-1.46.52-1.46.52a2.92 2.92 0 0 1 -2-1.54c-.92-1.46-.51-2.83.24-2.86a32.16 32.16 0 0 1 3.38.42s1.59-3.45 3.29-3.38 3.26 1.07 4.17 1.43a6.41 6.41 0 0 0 2.77.48 3.92 3.92 0 0 1 -2 .93c-1.39.24-1.78-.21-3.52.61a23.23 23.23 0 0 0 -3.7 3.29z" fill="#f38ab3"/><g fill="#000018"><path d="m146.2674 126.4a2.33 2.33 0 0 1 1.3-.49 3.33 3.33 0 0 0 .92-.31 22.32 22.32 0 0 1 4-3.3 7.65 7.65 0 0 1 3.62-.22 12 12 0 0 0 -3.43.93 26.14 26.14 0 0 0 -3.76 3.21h-1.25a4.17 4.17 0 0 0 -1.4.18z"/><path d="m146.1474 126.58s-3-1.18-1.74-3.47c0 0 .93-.93 3.4-.1a4.24 4.24 0 0 1 3-3.13c1.36-.42 4.93 1.67 6.79 1.27a6.17 6.17 0 0 1 -2.29-.78c-2.69-1.66-4.5-1.85-5.28-1.52a3.88 3.88 0 0 0 -2.64 3.18s-2.77-.51-3.7 0-1.41 3.1 1.76 4.62z"/><path d="m187.6574 69.89c-3.7-5.18-10.42-8.28-18-8.28a31.36 31.36 0 0 0 -4.55.35c-23.8 3.7-33.48 16.54-36.27 21.28a16.52 16.52 0 0 0 -6.12-2h-.4c-3.58 0-4.88 2.25-5 2.51l-.08.14v.17c-.23.72-5.43 17.75-4.63 34 .7 14.26 10.31 19.51 10.72 19.72l1.85 1 .67-2a37 37 0 0 1 8.32-12.72c5.93-5.8 11-9 22.59-14.52 2.18-1 3.84-1.79 5.34-2.46 2.7-1.23 4.84-2.2 8.51-4.07.61-.32 15-7.76 19.11-19.51a14.54 14.54 0 0 0 -2.06-13.61z"/></g><path d="m118.9974 84.52s-5.35 17.27-4.57 33.35c.66 13.43 9.78 18.25 9.78 18.25a38.35 38.35 0 0 1 8.7-13.47c6.26-6.12 11.73-9.51 23.06-14.84 6.07-2.87 8.11-3.61 13.82-6.48 0 0 14.32-7.3 18.24-18.5s-7.4-21.48-22.55-19.15c-28 4.29-35.82 21.89-35.82 21.89s-4-2.48-6.91-2.61-3.75 1.56-3.75 1.56z" fill="#fff"/><g clip-path="url(#d)" transform="translate(-.0026 -27.35)"><path d="m128.94 110.53a16.79 16.79 0 0 0 -6.06-2 12.43 12.43 0 0 0 -.53 1.44c0 1.66-.19 2.77-.16 2.86s1.09 5 1.43 7.23a13 13 0 0 0 .7 3.6c.79 1.47 3.8 3.12 6.06 4.2a6 6 0 0 0 2.43 4.39 16.5 16.5 0 0 0 -1.27 8.74l.07.5.31.39a26 26 0 0 0 4.48 3.64l.27-.32 1.71 2.32c4.44-3.62 9.25-6.43 18.35-10.73 2.16-1.03-24.99-30.99-27.79-26.26z" fill="#000018"/><g fill="#f9c4ce"><path d="m165.48 91c-28 4.3-35.82 21.89-35.82 21.89s-4-2.48-6.91-2.61h-.18a10.26 10.26 0 0 0 .18 2.35c2 4.69 2.35 8.74 3.12 10.18s6.26 3.9 6.26 3.9a4.32 4.32 0 0 0 3 4.73 18.59 18.59 0 0 0 -2.06 9.6s1.68 2.08 4.21 5.09c4.79-3.91 10-6.86 18.72-11 6.07-2.87 8.11-3.61 13.82-6.48 0 0 14.32-7.3 18.24-18.5a14.17 14.17 0 0 0 .69-3 12.1 12.1 0 0 0 -2.84-9.61c-3.91-4.91-11.53-7.88-20.43-6.54z"/><path d="m122.72 110.17a6.35 6.35 0 0 0 -1.93.32c-1.12.41-1.48 2.29-1.48 2.29a3.73 3.73 0 0 1 3.57-1.27zm9.54 39.65a15.59 15.59 0 0 1 4.11-5l1 1.24a19.59 19.59 0 0 0 -2.14 1.33 36.85 36.85 0 0 0 -2.97 2.43z"/></g></g><path d="m134.8374 82.4s9.46-12.32 24.38-15.87 21.35.93 24.05 3.53c0 0-8.32-5.28-21.34-2.17-18.58 4.49-27.09 14.51-27.09 14.51z" fill="#fff"/><path d="m146.1474 126.58s-1.05 1.46 1.13 3.51c1.57 1.48 6.1-.92 7.62-2.2a7.28 7.28 0 0 0 2.15-4.35 7.62 7.62 0 0 1 .51-1.73 8.35 8.35 0 0 0 -.17 1.93c.05.92.19 3.87-1.91 5.55s-6.13 3.22-7.86 2.54a4.23 4.23 0 0 1 -2.45-4.1 2.9 2.9 0 0 1 .3-1.08z" fill="#000018"/><path d="m153.6174 94.98s2.4 1.65 7.77-.69 4.11-5.92 3.71-7a4.26 4.26 0 0 0 -3.77-2.54c-1.85 0-3.13.3-4.84 2.65s-2.44 3.47-3.47 4.29-1.66 1.23-1.51 1.71 2.11 1.58 2.11 1.58z" fill="#fff"/><path d="m146.1974 92.82s2.05-1.12 3-5.32 2.35-9.92 5.28-12c5.63-4.14 15.66-4.4 15.66-4.4s-10.81 1.85-15.07 7.62c-2.9 3.94-4.63 9.67-5.87 11.73a5.29 5.29 0 0 1 -3 2.37zm14.86-5.7a4.26 4.26 0 0 0 -3.7-1.79 21.45 21.45 0 0 1 -3.45 4.95c-.35.38-1.16.92-1.66 1.42a3.87 3.87 0 0 0 .5 1.07c1.37 2 4.35 2.39 6.65.84s3.04-4.47 1.66-6.49z" fill="#000018"/><g clip-path="url(#e)" transform="translate(-.0026 -27.35)"><path d="m161.5 115a2.34 2.34 0 0 1 -1 3.11c-1.19.81-2.66.73-3.28-.18a2.69 2.69 0 0 1 4.3-2.93zm-7.73 5.08a2.58 2.58 0 0 0 2.64 1.22 5.53 5.53 0 0 0 3.47-1.66 7.13 7.13 0 0 1 -3.47 1.07 5.77 5.77 0 0 1 -2.64-.63z" fill="#fff"/></g><path d="m148.1574 95.47a7.9 7.9 0 0 1 2.05-2.54 20.08 20.08 0 0 0 5.32-5.92c1.52-2.84 3.23-5.55 4.94-6.84a20.3 20.3 0 0 0 -1.85 4.15s2.35-2.35 3.27-3.32 3.82-4.84 3.82-4.84-2 5.14-4.31 7.82c0 0 6.21-3.47 9.1-7.09a24.26 24.26 0 0 1 -4.84 6.66s5-1.72 7.92-4.35a24.06 24.06 0 0 1 -7.78 6.25 4.31 4.31 0 0 1 .22 5.75c-1.33 1.85-4.63 3.09-4.63 3.09s3.71-2.43 3.64-4.62c-.13-3.45-2.37-3.94-2.71-4.14a5.22 5.22 0 0 0 -3.95.84c-1.42 1.07-2.35 3.27-3.77 4.54a25 25 0 0 0 -2.24 2.25 3.11 3.11 0 0 0 1.26 1.85 3 3 0 0 1 -2.63-1.09 5.51 5.51 0 0 0 -1.57.54 6.14 6.14 0 0 0 -1.26 1.01zm-13.9 10.52a5.08 5.08 0 0 1 2.3-2.35s-1.91.4-2.89-.34l1.17 1.16z" fill="#000018"/><path d="m136.9174 103.65s2.47-.93 1.85-2.61a1.91 1.91 0 0 0 -1.54-1.37c-.6-.19-4.44.85-4.44.85a2.9 2.9 0 0 0 .93 2.88c1.28 1.13 3.2.25 3.2.25z" fill="#fff"/><path d="m136.6874 98.04s3.32 2.34 3.7 4.63a40.17 40.17 0 0 1 .39 5.37s1.36-5.27.59-7.13-4.68-2.87-4.68-2.87z" fill="#000018"/><path d="m138.9074 101.26s-.3-2.08-1.26-2c-.69.06-1.37.09-2.44.09h-6a32.91 32.91 0 0 1 -4.63-.58 10.56 10.56 0 0 0 4.5 1.42s-4.39.58-7-1.67c0 0 1.37 2.93 7.87 2.78a6.35 6.35 0 0 1 -3.47.53 10.59 10.59 0 0 0 6.54 0l.25-1.41a4.85 4.85 0 0 0 2.21.09c1.07-.24 1.75-.49 2.14-.34a3.27 3.27 0 0 1 1.29 1.09zm-2.42-3.27a5.81 5.81 0 0 1 -2.77-1.21c-4.11-2.77-7.14-4.69-9-3l.49 2.09s2.19-1.06 3.83-.2a38 38 0 0 0 5.19 2.19 4.3 4.3 0 0 0 2.26.13z" fill="#000018"/><path d="m132.3974 101.43a2 2 0 0 1 .51-1.93 8.61 8.61 0 0 0 2.85.34c.25 0 .7-.08 1-.09a3 3 0 0 1 .25.65 2.43 2.43 0 0 1 -1.62 3h-.08a2.59 2.59 0 0 1 -2.91-1.97z" fill="#000018"/><g clip-path="url(#f)" transform="translate(-.0026 -27.35)"><path d="m137.18 128.64a1.35 1.35 0 0 1 -.93 1.48 1.06 1.06 0 0 1 -1.42-.46l-.06-.13a1.35 1.35 0 0 1 .93-1.48 1.05 1.05 0 0 1 1.42.45zm-3.96.06a1.1 1.1 0 0 0 .3 1.21 2.17 2.17 0 0 0 1.51.55 2.67 2.67 0 0 1 -1.31-.73 2.21 2.21 0 0 1 -.5-1.03z" fill="#fff"/></g><path d="m118.6074 89.29s-4.15 17.83-3 30.34a23.49 23.49 0 0 0 7.92 15.15 33.53 33.53 0 0 1 6.68-10.45s-5 3.75-7.08 6.77c0 0-6.37-5.8-6.28-17.23a210.48 210.48 0 0 1 1.76-24.58z" fill="#f9c4ce"/><path d="m187.9974 68.9-2-4.44a48.31 48.31 0 0 1 -2.56-7.4c-1.41-5.85-1.12-9.25 7.61-17.58 15.87-15.13 50.11-32.28 51.56-33 7.53-3.7 14-6.48 14-6.48-.35.25-48.32 33.93-56.57 43.74a56.78 56.78 0 0 0 -10.85 20.49l-1.19 4.73z" fill="#000018"/><path d="m187.4874 63.76a58.3 58.3 0 0 1 11.18-21.11c8.5-10.09 44.56-35 44.56-35s-35.18 17.86-51 33c-8.38 8-8.38 10.86-7.14 16a47.47 47.47 0 0 0 2.4 7.11z" fill="#fff"/></svg>