<svg enable-background="new 0 0 368.5 368.5" height="356.095667" viewBox="0 0 290.78296 368.5" width="280.823412" xmlns="http://www.w3.org/2000/svg"><path d="m27.107621 317.3-.2.2c-.4.5-.8.5-1.3.1l-11.1-9c-.5-.4-.5-.8-.1-1.3l.2-.2c.4-.5.8-.5 1.3-.1l11.1 9c.4.4.5.8.1 1.3z" fill="#aa9767"/><path d="m41.407621 336c-2 3.3-4.9 3.2-8.1 1.2h-.1c-3.2-2-4.6-4.5-2.5-7.8l7.9-12.7c2-3.1 4.9-3.2 8.1-1.2h.1c3.2 2 4.5 4.6 2.5 7.8l-2.4 3.9-3.5-2.2 2.1-3.3c.9-1.5.5-2.4-.6-3.1s-2.1-.7-3 .8l-7.4 11.6c-.9 1.5-.5 2.4.6 3.1s2.1.7 3-.8l2.4-3.8 3.5 2.2z"/><path d="m65.207621 325.6.3.1c3.4 1.6 5 4 3.4 7.4l-6.3 13.5c-1.6 3.4-4.5 3.7-7.9 2.1l-.3-.1c-3.4-1.6-5-4-3.4-7.4l6.3-13.5c1.6-3.4 4.5-3.7 7.9-2.1zm-9.1 19.8c1.2.6 2.3.5 3-1.1l5.8-12.4c.8-1.6.1-2.5-1.1-3-1.2-.6-2.3-.5-3 1.1l-5.8 12.4c-.8 1.6-.2 2.5 1.1 3z"/><path d="m81.207621 358.9-9.9-3.4 8.1-23.6 3.9 1.3-6.9 20.1 6 2.1z"/><path d="m101.40762 364.1-10.199999-2.4 5.7-24.2 3.999999.9-4.899999 20.6 6.199999 1.5z"/><path d="m111.50762 365.8 3.6-24.6 4.1.6-3.6 24.6z"/><path d="m127.30762 367.8 1.3-24.9 4.1.2 4.4 15.7.8-15.4 3.8.2-1.3 24.9-3.9-.2-4.6-16.4-.8 16.1z"/><path d="m164.60762 362.7c.2 3.8-2.2 5.4-5.9 5.6h-.3c-3.8.2-6.3-1-6.6-4.9l-.9-14.9c-.2-3.7 2.2-5.4 5.9-5.6h.3c3.8-.2 6.3 1.2 6.6 4.9l.2 3.6-4.1.2-.2-2.9c-.1-1.8-1.1-2.2-2.4-2.1s-2.2.6-2.1 2.4l.8 13.6c.1 1.8 1.1 2.2 2.4 2.1s2.2-.6 2.1-2.4l-.2-3.7-2.4.1-.2-3.5 6.5-.4z"/><path d="m193.20762 363.3-3.8.7-6.4-16.2.1 17.4-3.9.8-8.5-23.7 4-.8 5.4 17.1-.2-18.1 3.6-.7 6.5 16.9-1.3-17.9 3.8-.7z"/><path d="m205.00762 333.8.3-.1c3.6-1.2 6.4-.5 7.6 3l4.7 14.2c1.2 3.6-.7 5.8-4.3 7l-.3.1c-3.6 1.2-6.4.5-7.6-3l-4.7-14.2c-1.2-3.7.7-5.8 4.3-7zm7 20.7c1.3-.4 2-1.2 1.4-2.9l-4.3-13c-.6-1.7-1.6-1.9-2.9-1.4-1.3.4-2 1.2-1.4 2.9l4.3 13c.6 1.6 1.6 1.8 2.9 1.4z"/><path d="m225.00762 325.9.3-.1c3.4-1.6 6.3-1.3 7.9 2.1l6.3 13.5c1.6 3.4 0 5.8-3.4 7.4l-.3.1c-3.4 1.6-6.3 1.3-7.9-2.1l-6.3-13.5c-1.7-3.5-.1-5.8 3.4-7.4zm9.3 19.7c1.2-.6 1.9-1.4 1.1-3l-5.8-12.4c-.8-1.6-1.8-1.7-3-1.1s-1.9 1.4-1.1 3l5.8 12.4c.8 1.6 1.8 1.7 3 1.1z"/><path d="m252.30762 316.9 7.6 12.2c2 3.2.7 5.8-2.5 7.8l-5.4 3.4-13.1-21.2 5.4-3.4c3.1-1.9 6-2 8 1.2zm-6.3 2-1.8 1.1 9.3 15 1.8-1.1c1.1-.7 1.7-1.6.7-3.1l-6.9-11.1c-.9-1.6-2-1.5-3.1-.8z"/><path d="m276.10762 307.1.2.2c.4.5.3.9-.1 1.3l-11.1 9c-.5.4-.9.3-1.3-.1l-.2-.2c-.4-.5-.3-.9.1-1.3l11.1-9c.5-.4.9-.3 1.3.1z" fill="#aa9767"/><path d="m288.50762 172.6c-1.3-1.5-3.1-2.4-5-2.8 1.8-3.6 3.1-7.8 3.8-12.3.5-3.3-.8-6.5-3.5-8.5-.4-.3-.8-.5-1.2-.7.6-2.4 1-4.9 1.1-7.6.2-3.3-1.5-6.4-4.4-8.1h-.1c.5-2.3.7-4.7.7-7.2 0-3.3-1.9-6.3-4.9-7.8-.6-.3-1.3-.5-2-.7-.1-1.3-.2-2.6-.4-3.9-.6-3.3-2.9-5.9-6.1-6.9-.4-.1-.8-.2-1.2-.3-.2-2.4-.7-5-1.5-7.5-.9-2.8-3.2-4.9-6-5.7-.2 0-.3-.1-.5-.1v-3.2l-.7-.7c-4.6-4.2-47.1-40.6-111-40.6-11.6 0-22.5 1.2-32.5 3.2 1.9-4.9 4.4-9.5 9-12.7l.3-.2 6.8-8.6c8.1-6 18.9-13.1 31.4-16.3l.2-.1.2-.1c1.1-.5 1.5-1.3 1.6-1.8.4-1.2-.3-2.2-.6-2.8l-.2-.5-.4-.3c-4.4-3.2-9.7-4.1-14.3-4.6-4.6-.6-9.4-.9-14-.9-4.5 0-9.1.3-13.5.8-5.3-1.3-13-3.1-21.699999-3.1-7.9 0-14.7 1.5-20.3 4.3-5.5 2.9-7.5 8.2-9 12.4-.8 2.1-1.5 4.1-2.5 5.3-12.5 11.7-17.6 25.1-23 39.1-.8 2.1-1.6 4.1-2.4 6.1l-1 2.3c-3.1 6.8-7.2 16-11.9 21.8l-.2.2-.3.7c-1.5 3.5-3.4 8-2.8 13.8-.1 0-.2 0-.3.1-3.2 1-5.5 3.6-6.1 6.9-.2 1.3-.4 2.6-.4 3.9-.7.1-1.4.4-2 .7-3 1.5-4.9 4.4-4.9 7.8 0 2.5.2 5 .7 7.2h-.1c-2.8999999 1.7-4.5999999 4.7-4.3999999 8.1.2 2.6.5 5.2 1.1 7.6-.4.2-.8.5-1.2.7-2.7 1.9-4.1 5.2-3.5 8.5.7 4.6 2 8.7 3.8 12.4-1.9.3-3.7 1.3-5 2.8-2.19999996 2.5-2.79999996 5.9-1.59999996 9 1.19999996 3.1 2.69999996 6 4.39999996 8.6-.9.6-1.8 1.3-2.4 2.2-1.99999996 2.7-2.29999996 6.2-.8 9.1 1.9 3.8 4.2 7.2 6.6 10.1-.6.5-1.2 1.2-1.7 1.9-1.8 2.8-1.9 6.3-.2 9.2 2.5 4.3 5.2999999 8 8.3999999 11.1-.6.6-1 1.3-1.4 2.1-1.4 3-1.1 6.5 1 9.1 4 5.2 8.5 9.3 13.2 12.5-1.3 1.1-2.2 2.7-2.6 4.4-.8 3.2.3 6.6 2.9 8.7 4.5 3.7 9.1 6.7 13.7 8.8-1.7 1.5-2.8 3.6-2.9 6-.2 3.3 1.5 6.4 4.4 8.1 6.7 3.8 13.3 6.3 19.8 7.3-1.3 1.7-1.9 3.9-1.6 6.2.4 3.3 2.6 6 5.8 7.1 6.9 2.4 13.6 3.6 19.8 3.6 4.1 0 8.2-.5 12-1.6.1 0 .2-.1.2-.1.7.9 1.399999 1.7 2.299999 2.2 13.1 6.7 27.1 9.9 44 9.9s30.9-3.1 44.1-9.9c.8-.5 1.6-1.2 2.2-2 .1 0 .2.1.3.1 3.7 1 7.6 1.5 11.7 1.5 6.3 0 12.9-1.2 19.8-3.6 3.1-1.1 5.3-3.8 5.8-7.1.3-2.2-.3-4.4-1.6-6.2 6.5-1.1 13.2-3.5 19.8-7.3 2.5-1.4 4.1-3.9 4.3-6.7 1.7 0 3.4.1 5 .3l12.5 2.8-.5-3.2c-.7-4.7-2.7-9.5-4.5-13.5l-.1-.2-.1-.2c-.5-.7-1-1.4-1.5-2.2 2.5-2.1 3.6-5.5 2.9-8.7-.4-1.8-1.4-3.3-2.6-4.4 4.8-3.1 9.2-7.3 13.2-12.5 2-2.6 2.4-6.1 1-9.1-.4-.8-.8-1.5-1.4-2.1 3.1-3.1 5.9-6.8 8.4-11.1 1.7-2.9 1.6-6.4-.2-9.2-.5-.7-1-1.3-1.7-1.9 2.5-2.9 4.7-6.3 6.6-10.1 1.5-3 1.2-6.5-.8-9.1-.7-.9-1.5-1.7-2.4-2.2 1.7-2.6 3.1-5.4 4.4-8.6s.7-6.7-1.6-9.2z" fill="#fff"/><path d="m96.307621 284.8c-.1.6-.3 1.3-.4 2 .1-.7.3-1.4.4-2zm.3-1.5c-.1.2-.1.4-.2.7.1-.2.2-.5.2-.7zm-.3 24.3c-.1-.7-.3-1.4-.4-2.1.1.8.3 1.5.4 2.1zm1.4 5c.1.1.1.3.2.4-.1-.1-.1-.3-.2-.4zm-1.2-4.3c.1.4.2.9.3 1.3-.1-.4-.2-.9-.3-1.3zm.4 1.9c.1.5.3 1 .4 1.4-.1-.4-.2-.9-.4-1.4zm97.799999-26.2c0-.2-.1-.4-.2-.6 0 .2.1.4.2.6zm.5 2.8c-.1-.7-.2-1.3-.4-2 .2.6.3 1.3.4 2zm-.4 20.8c.1-.7.3-1.4.4-2.1-.1.8-.3 1.5-.4 2.1zm-1.6 5.5c.1-.2.1-.3.2-.5-.1.2-.2.3-.2.5zm.5-1.4c.2-.5.3-.9.5-1.4-.2.5-.3.9-.5 1.4zm.6-2.1c.1-.4.2-.8.3-1.3 0 .4-.1.9-.3 1.3z" fill="#fff"/><path d="m95.107621 296.2c0-.2.1-4.6.8-9.4.3-2.1.8-3.9 1.3-5.5-30.2-21.4-63.3-54.1-63.3-95v-91.5c-2.3.4-4.2 2.1-4.9 4.3-1.1 3.2-1.5 6.2-1.5 9-.9-.1-1.8-.1-2.7.2-2.3.7-4.1 2.7-4.5 5.1-.3 1.9-.5 3.8-.4 5.6-1.1-.1-2.2.1-3.2.6-2.2 1.1-3.6 3.3-3.6 5.8 0 3.3.4 6.1 1 8.6-.5.1-1.1.4-1.6.6-2.1 1.2-3.3999999 3.5-3.1999999 6 .2 3.5.7999999 6.5 1.5999999 9.2-.9.2-1.7999999.5-2.5999999 1.1-2 1.4-3 3.9-2.6 6.3 1.1 6.6 3.2 11.6 5.7999999 15.4-.3-.1-.6-.2-.9-.3-2.3999999-.7-4.8999999.1-6.4999999 1.9s-2.1 4.4-1.2 6.7c1.7 4.2 3.7 7.7 5.8 10.5-1.6.3-3.1 1.1-4.1 2.5-1.5 2-1.7 4.6-.6 6.8 2.5 4.9 5.3 8.7 8.1999999 11.6-1.3.5-2.4999999 1.3-3.2999999 2.6-1.3 2-1.4 4.7-.2 6.8 3.0999999 5.3 6.4999999 9.3 9.8999999 12.4-1.2.6-2.2 1.6-2.8 2.9-1.1 2.2-.8 4.8.7 6.8 4.9 6.3 10.3 10.9 16.2 14-.1 0-.2 0-.3.1-2.4.5-4.3 2.4-4.8 4.8-.6 2.4.2 4.9 2.1 6.5 5.9 5 12 8.4 18.2 10.4-.9.1-1.8.3-2.7.7-2.3 1-3.8 3.1-3.9 5.6-.1 2.4 1.1 4.8 3.2 6 9.6 5.5 18 7.5 25.2 7.6-1.1.4-2.1.7-3 1.4-2 1.3-3.2 3.7-2.9 6.2.3 2.4 2 4.5 4.3 5.3 7.2 2.5 13.5 3.5 19.1 3.5 4.3 0 8.1-.6 11.4-1.5-1-2.1-1.9-4.9-2.4-8.5-1.1-5.2-1.1-9.6-1.1-9.7z"/><path d="m286.90762 174.1c-1.6-1.8-4.2-2.6-6.5-1.9-.3.1-.6.2-.9.3 2.6-3.8 4.7-8.8 5.8-15.4.4-2.4-.6-4.9-2.6-6.3-.8-.6-1.7-.9-2.6-1.1.8-2.7 1.4-5.7 1.6-9.2.1-2.4-1.1-4.8-3.2-6-.5-.3-1-.5-1.6-.6.7-2.5 1.1-5.3 1-8.6 0-2.4-1.4-4.7-3.6-5.8-1-.5-2.1-.7-3.2-.6 0-1.8-.1-3.6-.4-5.6-.4-2.4-2.1-4.4-4.5-5.1-.9-.3-1.8-.3-2.7-.2.1-2.9-.4-5.9-1.5-9-.7-2.1-2.4-3.6-4.5-4.2v91.4c0 41-33.1 73.7-63.3 95 .5 1.6.9 3.4 1.3 5.5.8 4.8.8 9.2.8 9.4s-.1 4.6-.8 9.4c-.6 3.6-1.4 6.4-2.5 8.6 3.3.9 7 1.4 11.1 1.4 5.6 0 11.9-1 19.1-3.5 2.3-.8 4-2.9 4.3-5.3s-.8-4.8-2.9-6.2c-1-.6-1.9-1-3-1.4 7.2-.2 15.7-2.2 25.2-7.6 2.1-1.2 3.4-3.5 3.2-6-.1-2.4-1.7-4.6-3.9-5.6-.9-.4-1.8-.6-2.8-.7 5.7-1.7 11.8-4.9 18.3-10.4 1.9-1.6 2.7-4.1 2.1-6.5s-2.5-4.2-4.8-4.8c-.1 0-.2 0-.3 0 5.3-2.8 10.8-7.1 16.2-14 1.5-1.9 1.8-4.6.7-6.8-.6-1.3-1.6-2.3-2.8-2.9 3.4-3 6.8-7 9.9-12.4 1.2-2.1 1.2-4.7-.2-6.8-.8-1.2-2-2.1-3.3-2.6 2.9-3 5.7-6.8 8.2-11.6 1.1-2.2.9-4.8-.6-6.8-1-1.4-2.5-2.2-4.1-2.5 2.1-2.8 4.1-6.2 5.8-10.5.6-2 .1-4.6-1.5-6.5z"/><g fill="#aa9767" transform="translate(-38.892379)"><path d="m114.2 270.8c2.5-1.1 4.6-1.4 6.3-1.5-3.4-2.9-6.8-5.9-10.1-9-7.2-1.7-14.4 1-21.1 2.4-10.8 2.2-15.2.8-16.9 1.2 20.3 17.1 36.3 9.2 41.8 6.9z"/><path d="m97.9 254.4c2.8-.5 5-.3 6.6 0-3.4-3.6-6.7-7.3-9.7-11.2-6-2.1-12.5-1.2-18.5-1.3-10.5-.1-14.3-2.3-16-2.2 15.5 20 31.9 15.8 37.6 14.7z"/><path d="m85.6 236.5c1.7-.1 3.2.1 4.4.3-2.6-3.7-4.9-7.6-7-11.5-5-2.2-10.6-2.2-15.7-2.9-9.6-1.4-12.9-3.8-14.4-4 11.8 20.1 27.3 18.3 32.7 18.1z"/><path d="m78.2 216.4h.7c-1.5-3.6-2.7-7.4-3.7-11.2-4.3-1.8-9.1-2.2-13.4-3.1-9-1.8-11.9-4.3-13.3-4.5 9.9 19.7 24.7 18.8 29.7 18.8z"/><path d="m72.6 197.7c.4 0 .7.1 1.1.2-.5-3-.8-6.1-.9-9.2-4.1-3-9.2-3.8-13.7-5.1-7.9-2.4-10.3-4.8-11.5-5.2 7.3 18.5 20.5 18.9 25 19.3z"/><path d="m69.8 178.8c1.2.4 2.2.9 3 1.4v-8.3c-3-4.4-8.2-6.3-12.5-8.7-6.7-3.8-8.4-6.5-9.5-7 3 18.2 15 21.3 19 22.6z"/><path d="m69.3 162.1c1.6.7 2.7 1.6 3.4 2.3v-7.9c-2.3-4.4-6.8-6.6-10.4-9.1-5.6-3.9-6.9-6.5-7.8-7.1 1 16.4 11.4 20.3 14.8 21.8z"/><path d="m69.2 144c2.7 1.4 3.5 3.3 3.6 3.3v-6.3c-1.2-4.6-5.3-6.8-8.5-9.4-4.4-3.5-5.3-5.7-6-6.2 0 13.5 8.2 17.2 10.9 18.6z"/><path d="m72.4 132.2c.1.1.2.2.4.3v-8.7c-1-1.1-4-7.2-5-8.2-3.3-3.7-2.2-2.1-2.3-1.1-1.9 11.8 4.7 16.1 6.9 17.7z"/><path d="m279.2 262.7c-6.5-1.3-13.5-3.9-20.5-2.5-3.3 3.2-6.8 6.2-10.3 9.2 1.6.1 3.6.5 5.9 1.4 5.6 2.3 21.5 10.2 41.8-6.8-1.7-.4-6.1.9-16.9-1.3z"/><path d="m274.4 243c-3.1 3.9-6.4 7.7-9.8 11.3 1.5-.3 3.6-.4 6 .1 5.7 1.1 22.1 5.2 37.6-14.8-1.7 0-5.5 2.1-16 2.2-5.7.2-12-.7-17.8 1.2z"/><path d="m286.1 225c-2.1 4-4.5 7.9-7.1 11.6 1.1-.2 2.4-.3 3.9-.2 5.3.3 20.9 2.1 32.7-18.1-1.5.2-4.8 2.6-14.4 4-4.9.8-10.3.8-15.1 2.7z"/><path d="m293.8 205c-1 3.9-2.2 7.7-3.7 11.4h.2c5 0 19.7.9 29.8-18.7-1.4.3-4.4 2.7-13.3 4.5-4.2.8-8.8 1.2-13 2.8z"/><path d="m321 178.4c-1.3.3-3.7 2.8-11.5 5.2-4.4 1.3-9.3 2.1-13.3 4.8-.1 3.2-.4 6.3-.9 9.4.2 0 .4-.1.7-.1 4.4-.4 17.6-.8 25-19.3z"/><path d="m317.7 156.1c-1.1.6-2.8 3.3-9.5 7-4.1 2.3-9 4.1-12.1 8.1v8.6c.7-.4 1.6-.8 2.6-1.1 4-1.2 16-4.3 19-22.6z"/><path d="m314 140.2c-.9.6-2.2 3.2-7.8 7.1-3.4 2.4-7.7 4.5-10 8.4v8.2c.7-.6 1.7-1.3 3-1.9 3.4-1.4 13.8-5.3 14.8-21.8z"/><path d="m299.3 144c2.7-1.4 11-5.1 10.9-18.6-.7.5-1.6 2.7-6 6.2-2.9 2.3-6.5 4.3-8.1 8.1v6.8c.5-.6 1.5-1.6 3.2-2.5z"/><path d="m303 114.5c-.5.6-1 2.6-4.3 6.2-.8.9-1.7 1.7-2.5 2.6v8.8c2.2-1.6 8.7-5.9 6.8-17.6z"/><path d="m243.3 298.4c-2.8-1.8-5.6-3.9-8.5-5.8.2 2.1.2 3.5.2 3.6 0 .2-.1 4.6-.8 9.4-.1.9-.3 1.7-.5 2.4 6.6 1.7 15.2 1.8 26-2.1-1.6-1-6.5-1.3-16.4-7.5z"/><path d="m264.8 281.5c-7.3-2.9-14.8-7.5-23.5-6.3-2.8 2.2-5.6 4.2-8.4 6.2.2.6.4 1.3.5 1.9 1.2.5 2.4 1.1 3.8 1.9 5.4 3.5 20.6 14.8 45.1.8-1.8-.8-6.7-.2-17.5-4.5z"/><path d="m134.8 305.5c-.8-4.8-.8-9.2-.8-9.4 0-.1 0-1.7.2-3.9-3.1 2-6 4.2-9 6.1-9.9 6.2-14.8 6.5-16.4 7.6 11.1 3.9 19.7 3.7 26.4 1.9-.1-.7-.3-1.5-.4-2.3z"/><path d="m136.1 281.3c-2.7-1.9-5.5-4-8.3-6.1-8.9-1.5-16.6 3.3-24.1 6.2-10.9 4.3-15.8 3.8-17.5 4.5 24.5 14 39.7 2.7 45.1-.8 1.5-1 2.9-1.6 4.2-2.1.2-.6.4-1.2.6-1.7z"/></g><path d="m132.00762 265.3v-189.1c-9.9 1-18.9 3-27 5.6v175.8c5.2 3.8 10.3 7.1 15 10 3.8-1 7.8-1.8 12-2.3z"/><path d="m213.30762 232.9c13.3-15.6 20.1-31.8 20.1-48.3v-77.2c-2.1-1.8-9.1-7.7-20.1-13.9z"/><path d="m57.707621 107.4v77.2c0 16.5 6.8 32.6 20.1 48.2v-139.3c-11.1 6.2-18 12.1-20.1 13.9z"/><path d="m171.20762 267.5c4.8-2.9 9.9-6.3 15-10v-175.7c-8.2-2.6-17.2-4.6-27-5.6v189.2c4.1.4 8.1 1.2 12 2.1z"/><path d="m191.10762 280.1c-.8-1.9-1.7-3.1-2.7-3.7-4.9-2.5-9.8-4.5-15.1-6l-4.8-1.4 4.3-2.7c6.8-4.3 13.3-8.8 19.1-13.4 27.4-21.6 41.4-44.6 41.4-68.3v-77.1c-5.3-4.7-38.4-31.8-87.6-31.8-49.599999 0-82.399999 27.1-87.599999 31.8v77.1c0 23.6 13.9 46.6 41.4 68.3 5.799999 4.6 12.299999 9.1 19.199999 13.4l4.3 2.7-4.9 1.4c-5.3 1.5-10.3 3.5-15.3 6-.9.5-1.9 1.8-2.7 3.6l-1.099999 2.6-2.3-1.6c-28.7-20.3-62.9-53.2-62.9-94.9v-96.7l.7-.7c4.6-4.2 46.5-40.6 110.999999-40.6 63.9 0 106.4 36.5 111 40.6l.7.7v96.7c0 41.7-34.2 74.6-62.9 94.9l-2.3 1.6z" fill="#fff"/><path d="m145.60762 50.3c-63.499999 0-104.499999 35.5-109.499999 40.1v95.7c0 40 32.3 72.1 61.9 93 1-2.3 2.199999-3.9 3.699999-4.7 5.1-2.6 10.2-4.7 15.7-6.2-6.2-3.9-12.8-8.4-19.399999-13.5-28-22.1-42.2-45.7-42.2-70v-78.1l.3-.3c3.7-3.4 37.5-32.8 89.499999-32.8 51.5 0 85.8 29.4 89.5 32.8l.3.3v78.1c0 24.4-14.2 47.9-42.2 70-6.6 5.2-13.2 9.7-19.3 13.6 5.4 1.6 10.6 3.6 15.6 6.2 1.5.8 2.7 2.4 3.7 4.8 29.6-20.9 61.9-53 61.9-93.1v-95.8c-4.8-4.3-46.6-40.1-109.5-40.1z"/><path d="m257.00762 287.1c-2.2-.2-4.5-.3-7.1-.3-3.2 0-6.3.2-9.4.3-3 .2-6.1.3-9.2.3-3.2 0-6.1-.2-8.7-.6-1.2-.2-1.9-.8-2.5-1.4-.8-.7-1.8-1.6-5.3-1.6-1.4 0-3 .1-4.8.4-.7.1-1.3.1-1.9.1-4.3 0-7.9-1.3-10.4-3.9l-.4-.4-.2-.5c-1.5-5-4.8-11.4-7.3-15.8-2.9-3.3-5-6.9-7.1-10.4-.4-.7-.8-1.3-1.2-2-.2 2.1-.5 4.3-1.3 6.3-2 4.4-4.2 8.4-5.9 11.3l-.9 1.5-1.7-.4c-1.7-.5-3.5-.9-5.3-1.2l-2.9-.6 1.3-2.6c.5-1.1 1-2.2 1.4-3.2.2-.5.4-1 .6-1.5 1.4-3.2 3.1-7.1 2.1-10.6-3.2-4-3.5-8.8-3.8-13.5-.2-2.4-.3-4.6-.8-6.6-1.2-1.5-2-3.1-2.7-4.7-.8-1.6-1.5-3.2-2.7-4.5-1.2-.8-2.9-1.2-4.6-1.2-1 0-1.9.1-2.8.4-.1 0-.1.1-.1.1 0 .2.2 1.2.4 1.8.4 1.6.9 3.7-.4 5.5-.8 1.1-1.7 1.7-2.4 2.2-1.5 4.8-1.9 10.1-2.1 14.2-.3 2.9-2.3 5.2-4.7 7.8-1.9 2.1-4 4.5-5.4 7.4-.7 1.4-2.1 4.1-3.7 7.3l-.5 1-1.2.1c-2.1.3-4.3.6-6.3 1l-4.3.9 1.8-4c1-2.2 1.8-4.1 2.4-5.6 1.2-3.2.9-6.3.5-10.2-.1-1.3-.3-2.7-.4-4.2 0-2.1.5-3.9 1-5.7.8-2.9 1.2-4.8.2-6.7-2.8-3.9-4.7-8-6.6-11.9-2.9-6.2-5.7-12.1-11.6-17-13.599999-3.1-25.499999-9.6-35.499999-19.4l-.1-.1-.1-.1c-9.3-11.1-15.6-21.9-22.2-33.4-5.3-9.1-10.7-18.4-18-28.5-.5-.7-1-1.4-1.5-2-1.1-1.4-2.4-3.1-3.5-5.3-5.1-10.8-2.1-17.9.1-23.2l.3-.7.2-.2c4.7-5.8 8.9-15.1 11.9-21.8l1-2.3c.8-2 1.6-4.1 2.4-6.1 5.4-14.1 10.5-27.4 22.9-39.1 1-1.2 1.7-3.2 2.5-5.3 1.6-4.2 3.5-9.5 9-12.4 5.6-2.9 12.5-4.3 20.3-4.3 8.699999 0 16.399999 1.8 21.499999 3.3 4.5-.5 9-.8 13.5-.8 4.7 0 9.4.3 14 .9 4.6.5 9.9 1.4 14.3 4.6l.4.3.2.5c.3.6 1 1.5.6 2.8-.2.6-.6 1.3-1.6 1.8l-.2.1-.2.1c-12.5 3.2-23.4 10.4-31.4 16.3l-6.8 8.6-.3.2c-6.4 4.5-8.8 11.8-11.1 18.9l-.2.6c-3.1 9.8 4 16.5 11.6 23.5 1.3 1.2 2.5 2.4 3.7 3.5 5.2 2.9 9.8 6.8 14.9 11.1 4 4 7.9 8.1 11.6 12.1 9.5 10 19.2 20.4 30.3 28l.2.1c9.1 7.6 16.1 16.5 22.9 25.2 8 10.2 15.6 19.8 26.3 27.5l.2.1 4.1 4.1c6.8 5.7 11.7 12.8 16.4 19.6.8 1.1 1.6 2.2 2.3 3.4l.6 1c2 3 4.6 6.7 4 10.4v.3l-.1.3c-.7 1.8-2.6 3-4.7 3-.5 0-.9-.1-1.3-.2-2-.5-3.4-1.4-4.7-2.3-.7-.5-1.4-.9-2.3-1.4l-2.4-1.3c-8-4.3-15-7.9-23-11.3-.7-.3-1.4-.7-2.1-1-.6-.3-1.2-.6-1.8-.9.9 1.4 1.7 2.9 2.4 4.1l.1.2c1.8 3.9 5.2 8.7 8.2 10.4l.6.3.3.6c.6 1.3 1.6 2.4 2.6 3.6 1.6 1.9 3.5 4 4 7.1l1.7 1.6c4.6 4.6 9.4 9.3 13.5 14.5l.1.2 3.1 5.9c3.9 1.9 6.3 5.7 8.5 9 .5.9 1.1 1.7 1.6 2.5l.1.2.1.2c1.9 4 3.9 8.8 4.5 13.5l.5 3.2z" fill="#fff"/><path d="m262.40762 274.1c-2.6-3.7-5.1-9.2-9.9-11l-3.4-6.5c-4.7-5.9-10.1-11.1-15.5-16.5-.4-4.6-4.6-6.8-6.5-10.8-3.6-2-7.2-7.2-9.2-11.4-1.5-2.7-3.7-6.3-5.3-9 3 0 6.7 2.2 9.6 3.6 9 3.7 16.5 7.8 25.6 12.6 2.7 1.5 3.8 2.9 6.5 3.6.9.3 2.8 0 3.4-1.5.4-3.1-2.5-6.9-4.3-9.7-5.6-8-10.8-16.2-18.4-22.7l-4-4c-20.3-14.7-30.1-36.6-49.3-52.7-15.6-10.7-28.3-26.4-42.1-40.2-4.7-4.1-9.5-8.1-14.8-11-8.3-8.3-20.3-16.4-16.1-29.6 2.4-7.4 4.9-15.6 12.1-20.7l6.8-8.5c10-7.4 20.5-13.8 32.4-16.9.9-.4.3-1 0-1.5-3.8-2.8-8.5-3.6-13.3-4.2-9.2-1.1-18.4-1.1-27.5 0-12.4-3.8-28.699999-5.3-40.599999.8-7.6 4-7.4 13.3-11 17.3-13.9 13.1-18.5 28.5-24.9 44.6-3.1 6.7-7.8 17.8-13.2 24.6-2.2 5.3-5.1 11.6-.3 21.7 1.4 3 3.3 4.8 4.8 7 16.5 22.8 23.5 41.9 40.1 61.8 10 9.9 21.8 16.1 34.899999 19 10.6 8.6 11.9 19.9 19.1 29.8 2.6 4.5-.8 8.9-.8 13.5.3 5.8 1.6 10.4-.3 15.4-.6 1.7-1.5 3.6-2.4 5.7 2.1-.4 4.3-.8 6.5-1 1.6-3.2 3-5.9 3.7-7.3 3.3-6.6 9.5-10.4 9.9-14.3.2-5.4.8-10.7 2.5-15.5.9-.6 1.6-1 2.5-2.1 1.6-2.2-2.4-6.6 1.1-8.2 3.1-1 7-.7 9.7 1.1 2.9 2.9 3.5 6.8 6.1 9.9 1.8 6.6-.1 14.7 4.6 20.1 1.8 5.1-1.2 10.5-2.7 14-.4 1-.9 2.1-1.5 3.3 1.8.4 3.7.8 5.4 1.3 2-3.5 4-7.2 5.7-11 1.4-3.7 1.1-8.1 1.7-12.1 4.2 5.6 6.8 12.3 11.8 17.8 2.8 4.7 6.1 11.3 7.6 16.5 2.8 2.9 7 3.4 10.4 3.1 11.6-1.7 11.2 2.2 13.3 2.5 11.2 1.6 22.4-1.1 34.5.3l9.4 2.1c-.7-4.7-2.6-9.3-4.4-13.1zm-153.1-263.4c1.2-1.3 3.2-1.5 4.7-1.3v.9c-.8 1-2.5 2.3-4.2 1.5-.2-.3-.6-.6-.5-1.1zm-.7 19.7c4.1-8.9 4.9-7.5 11-6.8 2.7-.4 4.2-2.1 5.7-4l-.4-.6c-3.5.8-6.9 3.5-10.6 1.9-1.5-1.1-1.8-2.9-1.3-4.6 3.2-3.9 10.6-.5 14.5-3.5 1.3-1.6-2-2.2-2.7-2.7-.7-.4-2.1.1-2.1-1.1 1.4-1.1 3.6-.5 5.3-.7 2.7 0 6.4-1.4 6.5.9 0 4-6.8 5.4-6.1 8.2 1 1.8 2.9 1 4.4.4 3.7-1.6 6.7-4.8 10.6-6.1.8-.2 1.3.2 1.3 1v.6c-10.5 5.5-20.2 13-30 20.1-1.8 1.1-3.6 2.1-5.7 1.5-1.6-1.1-.3-3-.4-4.5zm-39.299999 7.4c1.8 2.7-6.4 4.1-.8 5.3 1.1 4.3-6.6 5.4-9.5 8.5.1.5-.1 1.4 1 1.1 2.6-.2 6.6-4.7 7.2-2.5.6 3.1-3 3.4-4.7 4.6-2.2 1-4.8 2.3-5.9 4.7-.4 1.2 1.5.8 2.1.6 2.3-.7 5.4-4.5 6.3-3.2.4 1.2-.5 2.3-1.3 3.2-3.1 2.4-8.2 1.9-9.7 6.3-.1 1.1 1.9 1.7 3 1.1 2-.9 4.6-5 5.7-3.4.5 1.4-.7 2.8-1.9 3.6-5.4 4.8-11.1 9-17.6 11-.8-1.1-.1-2.7.2-3.8 4.8-14.3 11.1-27.9 19.3-40.8 1.8-2 5.5-3.5 7.4-1-.1 2.8-4 2.1-4.4 4.6 1.1 1 2.5.1 3.6.1zm31.299999-23.7c-1.599999.2-4.799999-2.3-6.099999.4-.6 1.6.6 4.4-1.7 4.7-1.3.1-3.2.1-3.2-1.3-.3-1.8-.4-3.9.8-5.5 1.2-2.5 4.5-4.2 8.1-3.6 1.599999.3 3.099999 1.4 3.899999 3.4.3 1.2-.7 1.6-1.8 1.9zm25.6 83.2-.6-2.1c5.6 3 10.9 7.1 15.6 11.9 5 4.5 10.6 11.9 10.6 12.7-.9.7-4.7-3.5-7.8-3.4-1.9.5.6 3.2-.9 3.8-2 .8-11.9-3.8-15.5-8.9.5-.2 1.6-.2 1.5-.9.5-.8-3.8-2.3-3.2-3.8 0 0 1 .8 1.7.6 1.8-1.7-3.3-3.5-.4-4.9.1-1.7-1.8-3-2.5-4.2.4-.3 1.1-.4 1.5-.8zm51.8 81c-1.9-1.6-3.7-3.7-6.1-4.4-1 .1-.9.9-.9 1.3 1.2 1.7 5.7 2.4 4.3 4.4-3.1 1.9-5.8-1.6-8.5-2.8-8.5-6.5-16.6-14.2-24.7-21.4-2.1-2-3.6-4.6-3-5.1.5-.6 3.6 1.3 4.7 1.8s1-.7 1-.7c-7.1-7.8-20.7-13.2-19.9-25.4.2-1 1-1.9 1.9-2.5 2.8-2.1 25.4 4.9 34.9 10.4 10.2 5.5 19.3 14.6 26 24.5.1.5.2 1 .2 1.5-.6 1-2.1.1-3.4-.9-1.7-1.1-3.1-2.7-4.9-3.4l-.6.6c3.8 5 12 8.2 12 15.3l-1.2.1c-3.4-2.2-6.7-5.3-10.2-6.5-.9.4 0 1.1.4 1.5 3.5 2.5 7.2 5 10.6 8 .8 1 .9 2.5.6 3.8h-1.1c-2.8-2-5.2-3.8-8.9-5.3-.8 1.5.9 2.3 2.7 3.4 2.6 1.5 8.6 3.2 6.1 6.3-4.9 3.5-8.8-2-12-4.5zm51.6 65.1c-3.4-.8-5.5-4.3-8.3-6.4-1.5-1.7-2.6-3.6-4-5.3-.8-.4-1.3 0-1.3.9-1.4 4.9 8 13.6 11.4 20.7.7 1.9 1.9 3.9 1.1 5.9-1.9 1.1-7.5-.2-8.9-.7-3.3-2-5.2-10.3-9.5-15.6-.9-.4-.8-1.7-1.9-1.5-1.4 1.2.1 2.7.2 4 1.2 3 3.8 5.6 3.6 8.9l-1.7-.2c-3.6-4.9-6.7-10.2-10.8-14.8-1.7 1.3 0 3 0 4.6 1.5 3.8 4.2 7 4.8 11.2 0 1.3-1.8.7-2.5.6-6.8-6.4-8.9-15.4-14.6-22.6-.9 0-1.1.8-1.5 1.3 1.1 6.4 5.5 11.5 4.9 18.6-.3.2-.5.8-1 .6-4.3-6.2-11-13.1-6.6-21.2 2.2-6.9-3.5-13.4-.2-20.1 2.1-2.2 5.3-1.9 8.2-1.5 1.5-2 .7-5 3.6-6.3 2.5-1.7 6.3-.9 8.7.4 9.3 11.6 17.1 23.8 26.2 35.5 0 .8 1.5 2.2.1 3z"/><path d="m145.50762 328.1c-16.9 0-30.9-3.1-44-9.9-6.399999-3.6-6.799999-20.1-6.799999-22s.4-18.6 6.699999-22.1c13.2-6.8 27.2-9.9 44.1-9.9s30.9 3.2 44 9.9c6.5 3.5 6.8 20.2 6.8 22 0 1.9-.4 18.6-6.7 22.1-13.1 6.8-27.1 9.9-44.1 9.9z" fill="#fff"/><path d="m188.50762 276.1c-12.8-6.6-26.4-9.6-43-9.6s-30.3 3.1-43 9.7c-4.399999 2.4-5.499999 15.3-5.599999 20.1 0 4.7 1.1 17.6 5.599999 20.1 12.8 6.6 26.4 9.6 43 9.6s30.2-3.1 43-9.7c4.4-2.4 5.5-15.3 5.6-20.1 0-4.8-1.1-17.7-5.6-20.1z"/><g fill="#fff"><path d="m185.50762 282.3c-.2-.5-.6-.9-1.1-1.1-11.5-5.7-23.9-8.3-38.9-8.3s-27.4 2.7-38.9 8.3c-.5.2-.8.6-1.1 1.1-1.2 2.7-2.2 8.8-2.2 13.8s1.1 11.3 2.2 13.9c.2.5.6.9 1.1 1.1 11.5 5.7 23.9 8.3 38.9 8.3s27.4-2.7 38.9-8.3c.5-.2.8-.6 1.1-1.1 1.2-2.7 2.2-8.8 2.2-13.8s-1-11.3-2.2-13.9zm-2 26.8c-11.2 5.5-23.3 8.1-37.9 8.1s-26.7-2.6-37.9-8.1c-.9-2.1-2-7.9-2-13 0-5 1.1-10.8 2-12.9 11.2-5.5 23.3-8.1 37.9-8.1s26.7 2.6 37.9 8.1c.9 2.1 2 7.9 2 13 0 5-1.1 10.8-2 12.9z"/><path d="m129.80762 304.9v2h-9.6v-2h3.9v-17.6l-3.9 1.5v-2.1l4.3-1.8h1.7v20z"/><path d="m142.70762 289.4v2.7c0 1.4-.3 3.2-2.3 3.4 2.1.3 2.3 2.6 2.3 3.8v3.2c0 2.9-1.4 4.6-4.5 4.6h-1c-3 0-4.5-1.8-4.5-4.6v-3.2c0-1.2.2-3.4 2.3-3.8-2-.3-2.3-2.1-2.3-3.4v-2.7c0-2.9 1.4-4.6 4.5-4.6h1c3-.1 4.5 1.7 4.5 4.6zm-2.2.3c0-2.2-1-3.1-2.4-3.1h-.6c-1.4 0-2.4.9-2.4 3.1v2.4c0 1.9 1 2.5 2.4 2.5h.6c1.4 0 2.4-.7 2.4-2.5zm0 9.4c0-1.8-1-2.5-2.4-2.5h-.6c-1.4 0-2.4.7-2.4 2.5v3.1c0 2.2 1 3.1 2.4 3.1h.6c1.4 0 2.4-.9 2.4-3.1z"/><path d="m149.60762 300.6v1.7c0 2.2.8 2.9 2.5 2.9s2.5-.7 2.5-2.9v-5.3c-.5.8-1.5 1.3-3.1 1.3-2.5 0-4.4-1.3-4.4-4.2v-4.9c0-3.1 1.5-4.5 4.8-4.5h.1c3.3 0 4.8 1.4 4.8 4.5v13.4c0 3.1-1.4 4.5-4.7 4.5s-4.7-1.4-4.7-4.5v-2.1h2.2zm5.1-6.8v-4.1c0-2.2-.8-2.9-2.6-2.9s-2.6.7-2.6 2.9v4.1c0 1.8 1 2.6 2.6 2.6 1.5 0 2.6-.8 2.6-2.6z"/><path d="m160.90762 289.2c0-3.1 1.6-4.5 4.8-4.5h.1c3.1 0 4.8 1.4 4.8 4.5v3.1c0 2.3-1.9 3.6-4.1 5.5-2.2 1.8-3.3 2.9-3.3 4.6v2.5h7.5v1.9h-9.7v-4.5c0-2.8 2-4.5 4.4-6.3 2-1.6 3.1-2.4 3.1-3.9v-2.5c0-2-.9-2.9-2.7-2.9-1.7 0-2.6.9-2.6 2.9v2.8h-2.2v-3.2z"/></g></svg>