<svg height="325.660387" viewBox="0 0 347.71 368.5" width="307.068357" xmlns="http://www.w3.org/2000/svg"><path d="m0 0h347.71v368.5h-347.71z" fill="none"/><path d="m205.94 327.39-.13.07z" fill="#00833e"/><path d="m292.4 283c1.78-13.15-5-25.35-14.15-32.48a39.49 39.49 0 0 0 2.87-4.86q-20.19 1.14-40.21 2.2a55.63 55.63 0 0 1 8.45 3.7c.09.06.2.16.3.16a55.15 55.15 0 0 1 -12.66 10.58 117.66 117.66 0 0 0 -15.11-6.3 49.71 49.71 0 0 0 7.56-7.58c-48.95 2.61-97.37 5.2-144.75 9.86-14.93 2.25-37.76 12.72-41.07 18.94-.79 1.15 0 .53 0 .53 11.87-10.51 27.57-14.22 42.37-16.45h.86c.3.48 1.71 2.29 2.41 3.24-20.76 2.64-32.17 8-38.35 12.84a40.75 40.75 0 0 0 -5.74 5.93c-.29.49 0 .35 0 .35 2.82-2.35 17.66-12.3 37.24-15.7 2.38-.4 4.82-.8 7.28-1.08a8.44 8.44 0 0 0 1.41-.15 3.26 3.26 0 0 1 .53.58l.44.46c2.8 3.1 5.75 6 8.53 8.7 1 1 2.11 2 3.2 3-.39.19-.88.35-1.27.5-8.78 1.7-36.26 21.83-37.23 26.94-.37 1 .16.47.16.47 9.44-9.19 20.84-15 32.32-19a110.84 110.84 0 0 1 11.81-3.6c1 .84 1.91 1.73 2.9 2.56a3.8 3.8 0 0 0 .42.47 101.65 101.65 0 0 0 -23 10.17c-3.45 1.6-10.07 7.92-11.49 10.16-1.39 1.85 0 1 0 1 6.21-4.84 15.57-10.14 24.07-14.14 4.28-1.93 8.44-3.62 12.37-5a166.91 166.91 0 0 1 12.35 15.1c.61 1 1.21 1.9 1.86 2.92-8.26 5.14-29.24 29.69-31.6 40.93 0 0-.44 2.63.76.12 2.29-6.3 16.84-23.13 27.35-30.24 2.3-1.59 4.59-3.13 6.89-4.6a11.78 11.78 0 0 1 2 4.18c-3 1.84-11 9.94-15.8 15.8-.13.14-.2.24-.31.38-.44.51-.88 1.05-1.26 1.51a4.43 4.43 0 0 0 -.29.42c-5.75 7.56-4.6 8.23-3.85 7.2 1-1.85 7.71-8.66 10.89-11.57l.31-.31.25-.24a100.52 100.52 0 0 1 11.49-9.83c.78-.54 3-2.22 3.25-2.3.89-.63 1.72-1.21 2.62-1.74.55 1.8 1.05 3.59 1.37 5.12.2.82.72 1 .61-.7-.1-1-.6-4.05-.75-5.25 3.26-2.18 6.08-3.89 9-5.53a257 257 0 0 1 24.34-9.93 140.32 140.32 0 0 1 11.88 13.9 80.73 80.73 0 0 1 8.11 13.93c-23.86 12.66-29.07 37.73-29.26 38.73-.12 1.15.62-.07.62-.07 6.16-10.19 10.68-16.84 15.56-21.26.39-.37.83-.75 1.26-1.15a81.1 81.1 0 0 1 14.34-9.19.37.37 0 0 0 .18-.08c.2.58.72 2.67 1.05 4-15.12 8.21-26.42 20-26.93 24.73-.11 1.06.44.2.44.2 14.51-14.21 16.64-17.39 43.39-28 12.8-4.44 30.32-9.1 33.24-10.57 8.53-2.94 28.41-15.55 35.84-26.33a39.41 39.41 0 0 0 6.33-17.28zm-76.6-22.91c5.34 1.58 10.42 3.36 15.59 5.44-.89.37-1.72.8-2.72 1.21h-.1c-4.73-2.11-9.55-4.12-14.16-5.94a7 7 0 0 0 1.39-.71zm-15.27 7.21a96.73 96.73 0 0 0 11.94-5.47c4.6 1.87 9.37 3.74 14.11 5.75-5.93 2.36-11.64 4.59-17.31 6.73-3.79-2.23-7.76-4.17-11.49-5.94.87-.37 1.84-.67 2.75-1.09zm36.29 36.7a104.18 104.18 0 0 0 -19.1-16.59l-.18-.2.23.16a19.85 19.85 0 0 0 1.88-.73c.91.64 1.81 1.15 2.66 1.78a101.6 101.6 0 0 1 17.76 16.41c1.43 1.65 2.82 3.18 4.11 5-.88.33-1.39.5-2.22.88a74 74 0 0 0 -5.14-6.71zm1.15 8.32c-3.2 1.23-6.59 2.3-10 3.27a99.33 99.33 0 0 0 -22.61 8.84c-4-11.08-13.27-22.87-17.23-27.08 8.49-2.71 16.95-5.52 25.56-8.51a170.64 170.64 0 0 1 13.31 11.02 91.66 91.66 0 0 1 10.89 12.4zm-50.38-61.12c2.81 1.42 5.65 2.72 8.63 4a40.65 40.65 0 0 1 -9.34 4.15c-1.56.44-3.07.87-4.6 1.36-2.65-1.52-5.24-2.94-7.79-4.46a92.62 92.62 0 0 0 13.1-5.05zm-26.15 8c2.69 1.69 5.46 3.29 8.25 4.87-5.8 1.48-11.54 2.9-17.31 4.16-3-2.14-5.81-4.25-8.66-6.42 5.88-.67 11.82-1.46 17.72-2.61zm-4.59 20.68c4.34 2.65 8.51 5.46 12.63 8.43l-2.92.94c-3.91-3.1-7.85-6.08-11.75-8.9.71-.15 1.43-.28 2.07-.47zm-56.75-19.88c7.79-.55 15.7-.64 23.63-.48.65.59 1.42 1.15 2.12 1.67-6.8.56-13.68 1.15-20.68 1.85h-.1c-.79 0-1.53.13-2.38.18-.87-1.05-1.73-2.06-2.56-3.19zm4.5 5.38c.93-.13 16.9-1.55 23.73-2.1 3.28 2.64 6.61 5.18 10 7.69-1.15.15-2.38.37-3.67.59a147.49 147.49 0 0 0 -19.07 3.89c-.71-.66-1.53-1.27-2.3-1.88a98 98 0 0 1 -8.64-8.17zm7.12 18.75c1-.22 2-.44 3.09-.7 1.15.87 2.3 1.89 3.37 2.8a3.08 3.08 0 0 0 -.54.16c-.94.21-1.83.46-2.67.71-1.12-1-2.13-2-3.21-2.95zm19.28 22.57c-1-1.3-7.49-11.31-13.61-17.39l-.29-.28a24 24 0 0 0 3.12-1.08h.15q3.73 3.15 7.15 6.66a81.72 81.72 0 0 1 7.71 9.12c-.82.37-4.18 2.89-4.23 2.97zm4.76 10.81a30.7 30.7 0 0 0 -1.79-4.22c.68-.37 4.49-2.57 5.33-3 0 0 .7 1.74 1.49 4.09-.92.5-4.33 2.57-5.07 3.1zm2.69-15.92c-.36-.65-.71-1.3-1.07-1.85a.16.16 0 0 0 -.1-.14c-.53-.83-1.07-1.71-1.7-2.53-2.3-3.12-5-6.23-6.61-8.22a28.93 28.93 0 0 0 -2-2.52c5.56-1.25 11.17-2.45 16.54-3.57 2.92-.59 5.75-1.15 8.72-1.83 4 2.9 8 6 12.25 9.19a132.73 132.73 0 0 0 -26.06 11.47zm4 11.87c-.22-1.39-.84-2.65-1.15-4.08a157.64 157.64 0 0 1 31.66-11.72c.5.46 1 1 1.45 1.47a218.86 218.86 0 0 0 -32 14.33zm23.93-35.61c6.6-1.51 13.13-3.17 19.65-5.21.26.18.51.27.72.41 3.55 1.81 7.27 3.7 11 5.63a609.31 609.31 0 0 1 -20.8 7.27c-3.37-2.86-6.92-5.54-10.59-8.11zm32.17 50.15c-.88-2.72-5.54-14.55-19.27-27.57 1.22-.4 2.3-.83 3.57-1.22 1 .95 2 1.88 3.09 2.82a94.48 94.48 0 0 1 17.37 23.59c-.87.41-4 1.81-4.81 2.37zm2.41 11.7c-.32-1.32-.88-3.26-1-3.85.86-.41 5.51-2.4 6.55-2.8.41 1.15.73 2.29 1 3.39-1.05.43-5.69 2.79-6.51 3.22zm43.21-14.88a155.65 155.65 0 0 0 -36.17 11.39c-.13-1.15-.47-2.77-.56-3.45 11.67-4.5 24.23-7 37.3-8.61a1.68 1.68 0 0 1 .22.42 4.22 4.22 0 0 1 -.79.23zm.6-15.36c-1.35-5.2-15.2-21.05-20.34-24.63a188.15 188.15 0 0 0 18.57-8.36c3.52 2.3 7.17 4.82 10.78 7.52a81.56 81.56 0 0 1 12 11.55 78.13 78.13 0 0 1 -21 13.9zm22.62-15.07a107.2 107.2 0 0 0 -13.5-13.28c-2.66-1.74-5.47-4.31-8.26-5.93.49-.17 2.69-1.37 3.2-1.64a87.32 87.32 0 0 1 21.75 16.9c-.52.77-2.6 3.22-3.19 4zm3.32-4.36c-1.47-3.64-12.3-15.31-17.75-18.61a107.82 107.82 0 0 0 10.12-6.28c.61-.46 1.32-.9 2-1.4 7.12 8.1 10.34 18.33 5.63 26.32z" fill="#76bc21"/><path d="m138.09 39.6.11-.06z" fill="#00833e"/><path d="m49.25 85.39c-1.78 13.14 5 25.34 14.13 32.49a40.05 40.05 0 0 0 -2.86 4.85q20.17-1.16 40.21-2.17a55.25 55.25 0 0 1 -8.45-3.71c-.1 0-.19-.15-.31-.15a55.06 55.06 0 0 1 12.64-10.58 118.2 118.2 0 0 0 15.13 6.28 49.78 49.78 0 0 0 -7.57 7.58c49-2.57 97.37-5.15 144.75-9.76 15-2.23 37.77-12.72 41.08-18.91.8-1.15.07-.52.07-.52-11.89 10.49-27.57 14.19-42.36 16.42h-.85c-.31-.49-1.71-2.3-2.41-3.24 20.76-2.63 32.17-8 38.35-12.82a40.73 40.73 0 0 0 5.74-5.93c.29-.5 0-.36 0-.36-2.83 2.36-17.67 12.29-37.25 15.68-2.38.41-4.82.8-7.27 1.07a8.45 8.45 0 0 0 -1.42.15 3.14 3.14 0 0 1 -.53-.56l-.44-.47c-2.8-3.09-5.75-6-8.53-8.71-1-1-2.1-2-3.19-3 .41-.19.84-.36 1.27-.51 8.78-1.69 36.27-21.83 37.25-26.92.37-1-.16-.47-.16-.47-9.46 9.19-20.85 14.94-32.34 19a113 113 0 0 1 -11.81 3.57c-1-.84-1.91-1.73-2.9-2.56a3.8 3.8 0 0 0 -.42-.47 100.94 100.94 0 0 0 23-10.15c3.45-1.6 10.08-7.91 11.49-10.15 1.38-1.85 0-1 0-1-6.21 4.76-15.54 10-24.12 14.07-4.3 1.93-8.46 3.62-12.39 5a170.21 170.21 0 0 1 -12.37-15.03c-.6-1-1.2-1.9-1.86-2.92 8.28-5.13 29.26-29.67 31.63-40.9 0 0 .45-2.64-.76-.14-2.3 6.32-16.85 23.15-27.36 30.25-2.24 1.57-4.6 3.11-6.9 4.59a12.11 12.11 0 0 1 -1.91-4.12c3-1.83 11.05-9.93 15.82-15.8l.31-.38 1.25-1.52a3.08 3.08 0 0 0 .3-.41c5.74-7.55 4.59-8.24 3.85-7.2-1 1.85-7.71 8.65-10.9 11.57l-.31.3-.26.24a101.54 101.54 0 0 1 -11.49 9.83c-.79.54-3 2.21-3.26 2.3-.89.63-1.72 1.2-2.63 1.73-.54-1.79-1-3.59-1.36-5.12-.2-.82-.71-1-.59.71.08 1 .58 4 .73 5.24-3.27 2.18-6.08 3.88-9 5.53a257 257 0 0 1 -24.35 9.91 141.69 141.69 0 0 1 -11.87-13.91 80.36 80.36 0 0 1 -8.11-13.93c23.9-12.63 29.14-37.78 29.32-38.76.13-1.15-.62.07-.62.07-6.16 10.18-10.67 16.83-15.55 21.24-.4.38-.83.75-1.28 1.15a82.25 82.25 0 0 1 -14.34 9.19.25.25 0 0 0 -.18.08c-.2-.58-.71-2.67-1-4 15.12-8.2 26.43-20 26.94-24.7.13-1.07-.43-.21-.43-.21-14.52 14.2-16.65 17.38-43.41 28-12.83 4.38-30.36 9.02-33.3 10.51-8.53 2.93-28.43 15.53-35.85 26.3a39.43 39.43 0 0 0 -6.43 17.27zm76.59 23c-5.34-1.59-10.43-3.38-15.6-5.47.88-.37 1.72-.78 2.72-1.15h.11c4.73 2.11 9.53 4.14 14.14 6a6 6 0 0 0 -1.37.66zm15.28-7.21a100.57 100.57 0 0 0 -12 5.46c-4.59-1.86-9.36-3.73-14.1-5.74 5.92-2.37 11.63-4.6 17.32-6.72 3.78 2.22 7.75 4.18 11.49 5.94a26.24 26.24 0 0 0 -2.76 1.05zm-36.27-36.71a104.16 104.16 0 0 0 19.08 16.61l.2.21a2.5 2.5 0 0 0 -.24-.16c-.63.21-1.3.46-1.89.71-.89-.63-1.8-1.15-2.65-1.77a102.31 102.31 0 0 1 -17.75-16.41c-1.43-1.67-2.83-3.2-4.1-5 .87-.32 1.38-.51 2.21-.89a72.39 72.39 0 0 0 5.14 6.69zm-1.15-8.31c3.2-1.22 6.6-2.29 10-3.27a98.63 98.63 0 0 0 22.61-8.82c4 11.07 13.26 22.88 17.23 27.09-8.5 2.71-16.95 5.52-25.57 8.5a172.68 172.68 0 0 1 -13.34-11.12 91.88 91.88 0 0 1 -10.92-12.39zm50.3 61.11c-2.8-1.44-5.64-2.72-8.62-4a41.46 41.46 0 0 1 9.34-4.13c1.57-.44 3.07-.86 4.6-1.36 2.66 1.53 5.24 3 7.79 4.46a94 94 0 0 0 -13.08 5zm26.16-8c-2.69-1.69-5.46-3.28-8.25-4.87 5.8-1.47 11.55-2.9 17.31-4.15 3 2.14 5.82 4.25 8.65 6.43-5.84.65-11.77 1.42-17.68 2.57zm4.59-20.68c-4.34-2.65-8.51-5.47-12.63-8.44l2.94-1c3.89 3.11 7.83 6.1 11.73 8.92-.69.14-1.32.26-2 .44zm56.74 20c-7.79.54-15.7.63-23.64.46-.65-.57-1.41-1.09-2.12-1.67 6.81-.55 13.69-1.14 20.67-1.82h.12c.79 0 1.53-.13 2.38-.17a38.59 38.59 0 0 1 2.61 3.17zm-4.5-5.39c-.93.14-16.9 1.55-23.73 2.09-3.28-2.63-6.61-5.18-10-7.69 1.15-.15 2.38-.37 3.67-.59a147.77 147.77 0 0 0 19.07-3.91c.72.65 1.54 1.26 2.3 1.88a98.33 98.33 0 0 1 8.68 8.15zm-7.11-18.75c-1 .22-2.06.44-3.09.7-1.15-.87-2.3-1.88-3.37-2.8a3.08 3.08 0 0 0 .54-.16c.94-.21 1.84-.46 2.67-.71 1.17 1 2.18 2 3.26 2.94zm-19.15-22.6c1 1.31 7.49 11.31 13.6 17.4l.29.28a23.5 23.5 0 0 0 -3.12 1.08h-.14a96.08 96.08 0 0 1 -7.15-6.68 80.83 80.83 0 0 1 -7.71-9.12c.77-.39 4.11-2.92 4.24-3zm-4.73-10.85a29 29 0 0 0 1.8 4.21c-.68.37-4.51 2.57-5.33 3 0 0-.71-1.74-1.5-4.09.88-.49 4.3-2.6 5-3.13zm-2.65 15.88c.36.65.71 1.3 1.07 1.85l.1.14c.53.87 1.09 1.71 1.7 2.53 2.24 3.12 5 6.24 6.6 8.24a28.3 28.3 0 0 0 2 2.5c-5.56 1.25-11.17 2.44-16.54 3.57-2.92.59-5.75 1.15-8.72 1.82-4-2.9-8-6-12.25-9.19a132.94 132.94 0 0 0 26.03-11.46zm-4-11.89c.22 1.4.85 2.67 1.15 4.1a158.34 158.34 0 0 1 -31.66 11.75 16.64 16.64 0 0 1 -1.45-1.46 219.32 219.32 0 0 0 31.96-14.38zm-23.9 35.62c-6.6 1.51-13.13 3.16-19.66 5.2-.25-.18-.52-.28-.72-.41-3.55-1.82-7.26-3.7-11-5.64 6.83-2.51 13.72-4.92 20.82-7.25a124.59 124.59 0 0 0 10.51 8.1zm-32.23-50.14c.88 2.72 5.53 14.57 19.25 27.64-1.22.39-2.3.83-3.58 1.21-1-.93-2-1.87-3.08-2.82a94 94 0 0 1 -17.35-23.6c.78-.45 3.92-1.87 4.73-2.43zm-2.46-11.73c.33 1.32.89 3.28 1 3.86-.86.42-5.52 2.39-6.55 2.79a33.65 33.65 0 0 1 -1-3.38c1-.45 5.64-2.82 6.5-3.27zm-43.21 14.86a156.15 156.15 0 0 0 36.17-11.38c.14 1.15.47 2.77.56 3.45-11.67 4.49-24.22 7-37.31 8.59a2.78 2.78 0 0 1 -.22-.42 4.19 4.19 0 0 1 .76-.24zm-.61 15.4c1.35 5.2 15.18 21.05 20.32 24.64a191.54 191.54 0 0 0 -18.58 8.29c-3.51-2.29-7.15-4.81-10.77-7.52a81.12 81.12 0 0 1 -12.09-11.6 78 78 0 0 1 21.08-13.81zm-22.62 15a107.45 107.45 0 0 0 13.54 13.29c2.66 1.73 5.47 4.29 8.26 5.92-.49.16-2.7 1.37-3.2 1.65a87.54 87.54 0 0 1 -21.74-16.86c.41-.74 2.51-3.19 3.1-3.93zm-3.32 4.37c1.46 3.63 12.28 15.32 17.72 18.63a110.71 110.71 0 0 0 -10.15 6.31c-.61.45-1.32.9-2 1.4-7.11-8.12-10.33-18.37-5.57-26.34z" fill="#76bc21"/><path d="m341.31 165.34c0-16.24-10-23.59-30.68-22.47l-121.43 6.56-31.43 61.32-1.38.07-4.6-59.37-132.26 7.13-19.53 86.16 22.23-1.2 7.64-33.93 27.57-1.48 3.14-14.53-27.48 1.49 5.18-22.42 38.85-2.11-16.08 70.9 59.09-3.2 3.38-14.78-37 2 4.92-21.67 24.87-1.33 3.35-14.29-25 1.34 4.67-20.16 31.77-1.71 7.15 69.63 24-1.3 38.94-72.1 7.18-.38-16.09 70.88 59.1-3.19 3.37-14.78-37 2 4.93-21.65 24.86-1.35 3.35-14.29-25 1.36 4.67-20.18 34.44-1.87 13.18-.71-16.08 70.88 22.23-1.15 7.42-32.69 9.19-.5.19.48 11.93 31.16 22.39-1.26-14.26-34.18.71-.31c12.51-5.29 19.41-14.81 19.41-26.82zm-37.31 17.36-9.35.5 5.75-25 8-.44c7.74-.41 11.49 2.5 11.49 8.9 0 9.81-5.64 15.52-15.93 16.09z" fill="#00953b"/><g fill="#231f20"><path d="m158.87 159.81-2.01-2.4 3.02 39.19 1.6-3.11zm-66.53 60.77 1.91-.1 2.39-10.54 24.82-1.34 3.38-14.32-1.47-1.75-3.37 14.32-24.84 1.35zm31.51 21.88-59.08 3.19 1.48 1.75 59.09-3.19 3.36-14.79-1.47-1.75zm99.73-28.87 1.9-.11 2.39-10.53 24.84-1.35 3.36-14.32-1.47-1.74-3.37 14.32-24.83 1.34zm31.51 21.87-59.09 3.19 1.48 1.76 59.08-3.19 3.38-14.8-1.48-1.74zm-190.72-37.42-3.29 14.47-27.48 1.48-7.67 33.94-22.23 1.2 1.47 1.75 22.24-1.2 7.66-33.94 27.51-1.56 3.27-14.39zm62.87-23.76-.18-1.83-24 1.3-2.53 10.9 1.91-.11 2.1-9.05zm-56.31 3.13.42-1.85-29.35 1.48-3.08 13.16 1.9-.11 2.65-11.3z"/><path d="m347.71 165.34c0-13.23-5.74-29-33.15-29-1.38 0-2.82 0-4.28.13l-46 2.48 3.24-14.22 4.8-.26 1.15-4.85-16.68.89-1.15 4.86 4.82-.26-3.22 14.22-14.22.77a7.54 7.54 0 0 0 2.39-5.75c0-2.87-1.68-4.46-5.45-5.38-1.9-.5-2.67-.72-2.67-1.61s.77-1.44 2.1-1.51a5.18 5.18 0 0 1 3.66 1.08l2.89-.16 1-4.13a11.83 11.83 0 0 0 -7.15-1.54c-5.33.28-9 2.9-9 8.15 0 3.14 1.66 4.6 4.77 5.4 1.95.52 2.87.74 2.87 1.62 0 1.15-1.07 1.58-2.36 1.65a5 5 0 0 1 -3.89-1.22l-2.93.16-.92 4-9.3.51-2-18.75-8 .44-10.34 19.4-11.42.62a13.54 13.54 0 0 0 5.1-10.68c0-5.22-3.5-8.58-9.43-8.26-7.64.41-12.17 6.82-12.17 13.43a7.68 7.68 0 0 0 2.67 6.26l-13.65.73.87-3.87-2.81.15a5.62 5.62 0 0 1 -3.45 1.46c-2.19.13-3.44-.91-3.44-3.45 0-3.28 1.59-8.14 5.62-8.36a4.08 4.08 0 0 1 3.06.91l2.87-.16 1-4.49a11.59 11.59 0 0 0 -6.57-1.15c-8.6.47-13.22 6.89-13.22 13.54a7.61 7.61 0 0 0 2.55 6.22l-31.07 1.67 3.24-14.22 4.8-.26 1.15-4.86-16.67.89-1.15 4.86 4.83-.25-3.23 14.22-14.21.77a7.61 7.61 0 0 0 2.39-5.74c0-2.87-1.69-4.47-5.46-5.4-1.9-.48-2.67-.71-2.67-1.6s.78-1.37 2.08-1.44a5.12 5.12 0 0 1 3.7 1.07l2.9-.15 1-4.15a11.85 11.85 0 0 0 -7.13-1.54c-5.33.29-9 2.92-9 8.16 0 3.14 1.65 4.59 4.76 5.4 2 .51 2.88.73 2.88 1.63 0 1.15-1.07 1.56-2.37 1.63a5 5 0 0 1 -3.88-1.21l-2.93.16-.96 4-9.65.53.63-2.77-8.29.45.82-3.65 5.48-.3 1-4.47-5.48.3.77-3.39 7.82-.48 1.06-4.8-14.78.8-4.33 19.08-14 .76 8.05-17.84v-1.45l-5.75.31-5 12.21h-.02l-.09-11.93-5.27.29-5.24 12.17h-.08l.26-11.95-6.89.37v1.45l.39 19.31 289.76-15.7c1.43-.09 2.83-.12 4.17-.12 25.9 0 31.33 14.76 31.33 27.15s-6.42 22.69-18.08 29l-.72.4 15.06 36.09-25.45 1.36 1.47 1.74 26.65-1.45-15.42-37c11.75-6.61 18.26-17.31 18.26-30.13zm-319.3-13.65 3.88-8.69h.1v8.51zm152.1-10.78c-1.95.11-2.68-1.46-2.68-3.44 0-2.8 1.33-8.23 4.84-8.41 1.78-.11 2.65 1.31 2.65 3.44 0 2.96-1.32 8.28-4.81 8.41zm30.79-12.06h.08l.32 6.11-3.44.19zm-6.49 13.27 1.07-2.2 6.08-.32.1 2.13z"/><path d="m271.96 166.46.42-1.86-38.08 2.06-2.53 10.9 1.9-.1 2.1-9.04zm-70.37 6.38-36.46 67.57-23.11 1.25 1.48 1.75 22.76-1.23 33.77-62.59zm93.83 28.25-.42 1.86-7 30.83-22.23 1.2 1.48 1.76 22.23-1.21 7.42-32.68 1.59-.1-.69-1.79zm14.39-38.84h-1.15l-4.59.24-3.64 15.78 1.89-.1 3.22-13.92 3.22-.18h3.24a10.27 10.27 0 0 1 3.28 1.07c-.28-1.73-1.28-2.89-5.47-2.89z"/></g></svg>