<svg height="337.474279" viewBox="0 0 324.4 368.5" width="296.318879" xmlns="http://www.w3.org/2000/svg"><path d="m0 0h324.4v368.5h-324.4z" fill="none"/><path d="m55.7 111.3s-22.6-60.9-20.3-88.2c.6-6.2 1.5-12.3 2.8-18.4 0 0 18.7 21.8 51.7 40.4 0 0 24.6 12 28.6 26.1 0 0-26.6 18.3-59.4 40.9z" fill="#00a88f"/><path d="m60.4 114-.8.6-5.5-1.4-.4-1.1s-5.2-13.8-10.3-31.3-10.3-38.5-10.3-53.5c0-1.4 0-2.9.2-4.3.6-6.3 1.6-12.6 2.9-18.8l1-4.2 2.8 3.2.2.2c2 2.4 20.2 22.5 50.8 39.8 4.5 2.3 8.9 5 13 7.9 3.6 2.5 7 5.4 10 8.6 3 3.1 5.3 6.8 6.7 10.9l.4 1.5-1.3.9-4.7 3.2c-9 6.2-30.1 20.7-54.7 37.8zm-1.6-4.1c28-19.5 51.5-35.5 57.2-39.5-1.2-2.9-3-5.5-5.1-7.8-4.2-4.3-8.9-8.1-14-11.2-2.2-1.4-4.2-2.5-5.6-3.3-.7-.4-1.3-.7-1.6-.9l-.6-.3c-18.2-10.2-34.9-23-49.5-37.9-.5 2.8-1 5.7-1.3 8.1-.2 1.8-.4 3.2-.5 4.2-.1 1.1-.2 1.7-.2 1.7-.1 1.2-.1 2.6-.1 4 0 14 5 35 10.2 52.3 2.5 8.7 5.1 16.4 7.1 22 .9 2.8 1.8 5 2.3 6.6.2.5.4 1 .5 1.4z" fill="#fff"/><path d="m268.5 111.3s22.6-60.9 20.3-88.2c-.6-6.2-1.6-12.3-2.9-18.4 0 0-18.7 21.8-51.7 40.4 0 0-24.5 12-28.6 26.1 0 0 26.6 18.2 59.4 40.9z" fill="#00a88f"/><path d="m263.9 113.9c-24.5-17-45.7-31.5-54.7-37.7l-4.7-3.2-1.3-.9.4-1.5c1.4-4.1 3.6-7.8 6.7-10.9 3-3.2 6.3-6.1 9.9-8.6 4.1-3 8.5-5.6 13-7.9 30.7-17.3 48.9-37.4 50.9-39.7l.2-.2 2.8-3.2 1 4.2c1.3 6.2 2.3 12.4 2.9 18.8.1 1.4.2 2.8.2 4.4 0 14.9-5.2 36-10.3 53.5-5.2 17.5-10.3 31.3-10.3 31.3l-.4 1.1-5.5 1.4zm1.6-4 1.4-.3c.1-.4.3-.8.5-1.4.6-1.6 1.4-3.8 2.3-6.6 1.9-5.7 4.5-13.4 7.1-22 5.1-17.3 10.2-38.2 10.2-52.3 0-1.3 0-2.7-.1-4 0-.6-.1-1.1-.2-1.7-.1-1.1-.3-2.6-.5-4.2-.3-2.4-.7-5.3-1.3-8.1-14.6 14.7-31.3 27.5-49.5 37.7l-.6.3-1.6.9c-1.4.8-3.3 1.9-5.6 3.3-5.1 3.1-9.8 6.9-14 11.2-2.2 2.3-3.9 4.9-5.2 7.8 5.7 3.9 29.2 20 57.2 39.5z" fill="#fff"/><path d="m165.6 260.5c31.4-47.2 93-100.2 152.6-127.3-53.6-15.6-89.8-69.7-151.4-69.7h-9.5c-61.6 0-97.7 54-151.4 69.7 59.7 27.1 121.2 80.2 152.6 127.3" fill="#00a88f"/><path d="m181.5 142.4c24.2 7.6 66.4-3.7 86.8-31.8-26.2 4.1-62-18.8-84.5 23.9z" fill="#002b5c"/><path d="m181 144.2-1.7-.6 2.8-9.8.1-.2c5.8-11.1 12.6-18 20.1-22.1 7.1-3.7 15-5.6 23.1-5.3 12.5 0 24.9 3.1 35.8 3.1 2.3 0 4.6-.1 6.9-.5l4.4-.7-2.6 3.6c-16.7 22.9-47.2 34.8-71.6 34.8-5.8.1-11.7-.7-17.3-2.3zm17.3-1.3c22 0 49.7-10.4 66-30-1 0-2 .1-3.1.1-11.5 0-23.9-3.1-35.8-3.1-7.4-.2-14.8 1.4-21.4 4.9-6.6 3.7-12.9 9.9-18.5 20.4l-1.7 5.9c4.7 1.2 9.6 1.8 14.5 1.8z" fill="#fff"/><path d="m142.7 142.4c-24.2 7.6-66.4-3.7-86.8-31.8 26.2 4.1 62-18.9 84.6 23.9z" fill="#002b5c"/><path d="m143.3 144.2c-5.6 1.7-11.5 2.5-17.3 2.4-24.4 0-54.8-11.9-71.6-34.8l-2.6-3.6 4.4.7c2.3.3 4.6.5 6.9.5 10.9 0 23.4-3 35.8-3.1 8.1-.2 16 1.6 23.2 5.4 7.4 4.1 14.2 11 20.1 22.1l.1.2 2.8 9.8zm-17.3-1.3c4.9 0 9.7-.5 14.4-1.7l-1.7-5.9c-5.6-10.5-11.8-16.7-18.5-20.4-6.5-3.4-13.9-5.1-21.2-4.9-11.9 0-24.3 3-35.8 3.1-1 0-2.1 0-3.1-.1 16.2 19.5 43.9 29.9 65.9 29.9z" fill="#fff"/><path d="m54.5 353-38.6-71.4 10.3 6.7 5.7 10.3 25.6 47.9 16.5-32.6 8.4-3.6-25.2 48.1zm35.9 0v-39.1h6.6v39.1zm21-6.3 13.5-13.9-19.3-19h9.4l13.7 14.8 12.9-14.8 9.5-3-18.6 21.4 21 20.8h-9.4l-15.6-16.7-7.7 7.3zm47.1 6.3v-39.1h37.7v5.2h-31.1v10.9h19v5.1h-19.1v12.5h31.5v5.4zm46.4-6.5v-32.6h4.1l29.3 26.2c1.6 1.5 3.2 3.2 4.5 4.9-.5-3.2-.7-6.4-.6-9.6v-21.5l6.1-3.9v43h-3.6l-30.1-27.2c-1.1-1-1.7-1.6-1.9-1.7-.8-.8-1.4-1.7-2-2.7.3 2.8.5 5.7.4 8.6v12.2zm61.5 1h26.6v-11.8h-24.6c-3.5 0-5.9-.6-7.2-1.9s-1.9-3.7-1.9-7.3v-3.4c0-3.6.6-6.1 1.9-7.4s3.7-1.9 7.2-1.9h32.7l-8.3 5.2h-27.7v11h24.6c3.5 0 5.9.7 7.2 2s1.9 3.8 1.9 7.3v4.4c0 3.6-.6 6-1.9 7.3s-3.7 1.9-7.2 1.9h-14.4" fill="#e50e63"/><path d="m53.1 285c.1.9.1 1.9.1 2.8v12.8h-2.7v-19.1h2.6l9.2 12.4 8.6-12.4h3v19h-2.9v-12.8l.1-2.8c-.3.7-.7 1.4-1.1 2.1l-7.4 10.6h-.8l-7.5-10.3c-.4-.7-.8-1.5-1.2-2.3zm30.7 15.6v-19h18.3v2.5h-15.1v5.3h9.3v2.5h-9.3v6h15.3v2.6zm26 0v-19h3.2v16.4h14.4v2.7zm24.1 0v-19h15.3c1.1-.1 2.2.2 3.1.9.7.8 1.1 1.8.9 2.8v2.2c0 1.9-1 3-3.1 3.2 1.8 0 3.3 1.6 3.3 3.4v2.8c0 2.5-1.8 3.7-5.3 3.7zm16.1-12.9v-1.9c.1-.5-.1-1-.5-1.3-.5-.3-1-.4-1.5-.3h-11v5.3h11c1.4-.1 2.1-.6 2-1.8zm.2 8v-1.6c.1-.6-.1-1.3-.5-1.8-.5-.4-1.1-.5-1.6-.5h-11v6.1h11c.6.1 1.2-.1 1.6-.5s.5-1 .5-1.7zm11.6-9.6c-.5-1.9.6-4 2.6-4.5.6-.2 1.3-.2 1.9 0h13.2c1.2-.1 2.5.2 3.5.9.7 1 1.1 2.3.9 3.6v10c.1 1.3-.2 2.5-.9 3.5-1 .7-2.2 1.1-3.5 1h-13.2c-1.3.1-2.5-.2-3.5-1-.8-1-1.1-2.3-.9-3.5v-10zm3.2 11.9h15.7v-13.9h-15.7zm31.7-16.4v16.4h13.8v-16.4h3.2v14.5c.1 1.3-.2 2.5-.9 3.5-1 .7-2.3 1.1-3.5 1h-11.3c-2 .5-4-.6-4.5-2.6-.2-.6-.2-1.3 0-1.9v-14.5zm26.9 19v-19h15.3c1.1-.1 2.1.2 3 .9.7.8 1.1 1.8.9 2.8v4.2c.1 1-.2 2.1-.9 2.8-.9.6-1.9.9-3 .9h-2.8l8.7 7.4h-4.8l-7.7-7.4h-5.7v7.4zm14.1-16.5h-10.9v6.7h10.9c.6.1 1.1-.1 1.6-.4.4-.4.5-1 .5-1.5v-2.9c.1-.6-.1-1.1-.5-1.6-.5-.3-1.1-.4-1.6-.3zm14 16.5v-19h2l14.2 12.7c.8.7 1.5 1.5 2.2 2.4-.2-1.6-.3-3.1-.3-4.7v-10.5h3v19h-1.8l-14.6-13.3-.9-.8c-.4-.4-.7-.8-1-1.3.2 1.4.2 2.8.2 4.2v11.2zm30.9 0v-19h18.3v2.5h-15.1v5.3h9.2v2.5h-9.3v6h15.3v2.6z" fill="#00a88f"/><path d="m161.2 263.9c-50.5-59.9-102.6-105.6-156-129.5l-5.2-2.3 5.4-1.6c26.3-7.7 48.6-24.9 72.2-40.4 23.5-15.6 49.9-28.8 81.3-28.8h3.4c36.4.2 60.9 13.3 84.4 28.8 23.5 15.6 45.8 32.8 72.2 40.4l5.4 1.6-5.1 2.4c-59.3 26.9-125.7 84.3-156.9 131.1zm1.1-4.6 3.3-3.9c30.9-46.3 88.3-94.5 146.9-122.5-25-8.6-46.2-24.9-68.1-39.3-23.4-15.4-36.1-26-80.7-28.4h-4.8c-29.7-.5-55.7 13-79 28.4-21.9 14.4-43.1 30.7-68.1 39.3 90 39.8 150.5 126.4 150.5 126.4z" fill="#fff"/><path d="m162.3 63.6c33.1 0 63 15.8 63 15.8-52.2.4-50.8 108.5-47.4 160.5l-15.6 20.3-15.8-19.6c1.5-13.3 2.4-26.6 2.6-40v-1.4c0-20-3.1-41.6-6.4-60.9s-8.7-36.3-18-47.3c-4.7-5.7-12.4-11.1-19.3-12.6l3.8-1.9c16-8 33.6-12.3 51.4-12.5z" fill="#e50e63"/><path d="m161.3 59.8c-35-.2-67.5 20.4-67.5 20.4l8.5-.2h1.2c7.8 0 13.2 5.2 18.8 11.8s9.9 16 13.1 27.2c6.4 22.4 10.7 53 10.7 79.3v1.2c0 14.9-2.4 26.3-3 37.7l.4 1 .4 1.1 18.4 25.9v-7.9l-15.3-19c1.2-11.7 3-25.3 3-40v-1.4c0-19.9-3.1-41.4-6.3-60.6s-8.8-36.2-18-47.1c-4.7-5.6-10.3-10.6-17.3-12.2l3.2-1.4c21.8-8.6 39.6-11.5 51.4-11.5 26.1 0 53.3 13.2 53.3 13.2-4.7.4-13.2 6.3-17.9 11.9-9.2 10.9-14.7 27.9-18 47.1s-6.3 40.7-6.3 60.6v1.4c0 14.7 1.7 28.3 2.8 40l-14.5 19.1v8l17.6-25.9.4-1.2.4-1c-.7-11.4-3-22.8-3-37.8v-1.2c0-26.4 4.2-56.9 10.7-79.3 3.2-11.2 7.5-20.6 13.1-27.2s12.2-11.9 20.8-12l7.1-.4c-.1-.1-33-19.8-68.2-19.6z" fill="#fff"/></svg>