<?xml version="1.0" encoding="UTF-8" standalone="no"?>
<svg
   xmlns:dc="http://purl.org/dc/elements/1.1/"
   xmlns:cc="http://creativecommons.org/ns#"
   xmlns:rdf="http://www.w3.org/1999/02/22-rdf-syntax-ns#"
   xmlns:svg="http://www.w3.org/2000/svg"
   xmlns="http://www.w3.org/2000/svg"
   xmlns:sodipodi="http://sodipodi.sourceforge.net/DTD/sodipodi-0.dtd"
   xmlns:inkscape="http://www.inkscape.org/namespaces/inkscape"
   id="Firebirds_Logo"
   viewBox="0 0 368.10762 261.99936"
   version="1.1"
   sodipodi:docname="New South Wales Swifts Logo.svg"
   width="368.10764"
   height="261.99936"
   inkscape:version="0.92.2 (5c3e80d, 2017-08-06)">
  <metadata
     id="metadata25">
    <rdf:RDF>
      <cc:Work
         rdf:about="">
        <dc:format>image/svg+xml</dc:format>
        <dc:type
           rdf:resource="http://purl.org/dc/dcmitype/StillImage" />
        <dc:title></dc:title>
      </cc:Work>
    </rdf:RDF>
  </metadata>
  <defs
     id="defs23" />
  <sodipodi:namedview
     pagecolor="#ffffff"
     bordercolor="#666666"
     borderopacity="1"
     objecttolerance="10"
     gridtolerance="10"
     guidetolerance="10"
     inkscape:pageopacity="0"
     inkscape:pageshadow="2"
     inkscape:window-width="1366"
     inkscape:window-height="745"
     id="namedview21"
     showgrid="false"
     fit-margin-top="0"
     fit-margin-left="0"
     fit-margin-right="0"
     fit-margin-bottom="0"
     inkscape:zoom="0.64043419"
     inkscape:cx="186.05001"
     inkscape:cy="124.65"
     inkscape:window-x="-8"
     inkscape:window-y="-8"
     inkscape:window-maximized="1"
     inkscape:current-layer="Firebirds_Logo" />
  <style
     id="style2">.st1{fill:#fff}.st2{fill:#0093d0}.st3{fill:#ee3124}</style>
  <path
     d="M -5.3,-46.900639 H 377.4 V 321.59936 H -5.3 Z"
     id="path4"
     inkscape:connector-curvature="0"
     style="fill:none" />
  <path
     class="st1"
     d="m 373.7,93.799361 c -10.9,-32.8 -36.3,-60.4 -71.4,-77.9 -69.1,-34.4 -169,-26.8 -232,-1.5 -5.2,2.2 -29.2,12.4 -40.9,23 -2.1,1.6 -4.2,3.2 -6.2,5 a 79.253,79.253 0 0 0 -26.4,55 c -0.1,2 -0.1,3.899999 -0.1,5.899999 v 144.8 c 0,11 8.9,19.9 19.9,19.9 h 342.9 c 11,0 19.9,-8.9 19.9,-19.9 v -116.8 c 0.3,-12.7 -1.6,-25.4 -5.7,-37.499999"
     id="path6"
     inkscape:connector-curvature="0"
     style="fill:#ffffff" />
  <path
     class="st2"
     d="m 201.8,173.69936 v -30.7 c 0,-10.6 -6,-17.6 -16.4,-17.6 -10.1,0 -17.9,7.7 -17.9,18.5 v 29.9 h -5 v -51.7 h 5 v 9.6 c 3.4,-6.1 9.2,-10.8 18.6,-10.8 13.1,0 20.7,8.9 20.7,21.3 v 31.6 h -5 z m 39.6,1 c -7.7,-0.1 -15.1,-2.8 -21.2,-7.5 l 2.9,-4 c 5.7,4.4 12,6.8 18.5,6.8 7,0 12.5,-3.9 12.5,-9.8 v -0.2 c 0,-6.1 -6.5,-8.3 -13.7,-10.3 -8.4,-2.4 -17.7,-5 -17.7,-14.2 v -0.2 c 0,-8.3 7,-14.3 17,-14.3 6.5,0.1 12.9,2.1 18.3,5.7 l -2.6,4.2 c -4.7,-3.2 -10.2,-5 -15.9,-5.2 -7.1,0 -11.8,3.8 -11.8,9 v 0.2 c 0,5.8 7,7.9 14.4,10 8.3,2.3 17,5.4 17,14.5 v 0.2 c 0,9.1 -7.9,15 -17.7,15.1 m 86,-0.6 h -4.2 l -15.5,-44.3 -15.5,44.3 H 288 l -19,-52.1 h 5.6 l 15.6,45.4 15.6,-45.6 h 4 l 15.6,45.6 15.6,-45.4 h 5.3 z"
     id="path8"
     inkscape:connector-curvature="0"
     style="fill:#0093d0" />
  <path
     class="st3"
     d="m 29.1,261.99936 c -11.5,0 -20.4,-3.8 -29.1,-11.5 l 3.5,-4 c 7.9,7.3 15.3,10.6 25.9,10.6 10.8,0 18.3,-6 18.3,-14.3 v -0.2 c 0,-7.6 -4,-12.1 -20.4,-15.4 -17.3,-3.5 -24.3,-9.4 -24.3,-20.3 v -0.2 c 0,-10.7 9.8,-19 23.2,-19 10.5,0 17.4,2.9 24.7,8.8 l -3.4,4.2 c -5.9,-5.4 -13.6,-8.3 -21.5,-8.1 -10.6,0 -17.6,6.1 -17.6,13.6 v 0.2 c 0,7.6 3.9,12.3 21,15.8 16.7,3.4 23.7,9.4 23.7,19.9 v 0.2 c -0.1,11.6 -10.1,19.7 -24,19.7 m 105.9,-0.5 h -4.4 l -21.1,-62.7 -21.1,62.7 h -4.3 l -26.2,-72.7 h 6 l 22.6,64.2 21.1,-64.4 h 4.2 l 21.1,64.4 22.7,-64.2 h 5.5 z m 38.1,-72.7 h 5.4 v 72.1 h -5.4 z m 28.2,5 v 29.5 h 40.8 v 5 h -40.8 v 32.7 h -5.4 v -72.2 h 50.9 v 5 z m 83,0 v 67.2 h -5.4 v -67.2 h -25.2 v -5 h 55.7 v 5 z m 59.6,68.2 c -11.5,0 -20.4,-3.8 -29,-11.5 l 3.5,-4 c 7.9,7.3 15.3,10.7 25.9,10.7 10.8,0 18.2,-6.1 18.2,-14.3 v -0.2 c 0,-7.6 -4,-12.1 -20.4,-15.4 -17.3,-3.5 -24.3,-9.4 -24.3,-20.3 v -0.2 c 0,-10.7 9.8,-19 23.2,-19 10.5,0 17.4,2.9 24.7,8.8 l -3.4,4.2 c -5.9,-5.4 -13.6,-8.3 -21.6,-8.1 -10.6,0 -17.6,6.1 -17.6,13.6 v 0.2 c 0,7.6 3.9,12.3 21,15.8 16.7,3.4 23.7,9.4 23.7,19.9 v 0.2 c 0,11.6 -10,19.6 -23.9,19.6 M 295,22.399361 c -67.3,-33.6 -165.7,-25.4999999 -226,-1.3 2.6,-0.1 5.2,-0.1 7.8,0.1 44.5,2.5 78.6,40.7 76.1,85.199999 -0.3,5.4 -1.1,10.7 -2.5,15.9 36.7,-63.999999 99,-72.999999 147.3,-55.699999 27.3,9.8 77.1,43.099999 59.3,107.499999 28.8,-57.6 -0.7,-121.099999 -62,-151.699999"
     id="path10"
     inkscape:connector-curvature="0"
     style="fill:#ee3124" />
  <path
     class="st2"
     d="m 143,78.799361 -27.8,82.699999 c 26.7,-18.2 38.1,-52 27.8,-82.699999 M 33.7,126.19936 c -4.1,-25.4 -4.2,-39.699999 -4.2,-40.299999 v -5.5 h 71.2 l 39,-9.6 c -17.1,-36.1 -60.3,-51.5 -96.4,-34.4 -36.1,17.1 -51.5,60.3 -34.4,96.399999 17.1,36.1 60.3,51.5 96.4,34.4 l 1.5,-0.8 -72.7,-37.5 z"
     id="path12"
     inkscape:connector-curvature="0"
     style="fill:#0093d0" />
  <path
     class="st2"
     d="m 146.6,105.79936 c -2.2,39.9 -36.4,70.5 -76.3,68.2 -39.9,-2.2 -70.5,-36.4 -68.2,-76.299999 2.2,-39.9 36.4,-70.5 76.3,-68.2 39.9,2.2 70.4,36.4 68.2,76.299999"
     id="path14"
     inkscape:connector-curvature="0"
     style="fill:#0093d0" />
  <path
     class="st1"
     d="m 139.7,70.699361 c -12.4,3.1 -38.1,9.4 -39.1,9.7 H 32.5 v -8 c 22,-3.9 57.5,-7.1 107.1,-1.8 -0.7,-1.5 -1.5,-3 -2.4,-4.5 -75.9,-7.7 -117.8,4 -129.8,8.1 -0.7,1.7 -1.3,3.4 -1.9,5.2 l 0.1,-0.1 c -0.1,24.699999 2.7,44.199999 6.2,59.199999 2.1,3.6 4.6,7.1 7.3,10.2 -5,-15.8 -9.5,-39.1 -9.3,-70.899999 6,-1.9 12.2,-3.5 18.4,-4.7 -0.6,53.299999 12.2,83.699999 18.7,95.599999 2,0.9 4.1,1.6 6.3,2.2 -2.5,-3.8 -9.8,-16.8 -15.1,-40.1 l 68.7,35.5 c 2.9,-1.4 5.6,-3.1 8.3,-4.9 L 143,78.699361 c -0.9,-2.7 -2,-5.4 -3.3,-8 m -17.3,-23.1 c -2.1,-1.8 -4.2,-3.5 -6.4,-5.1 -42.1,-5 -72,-0.3 -87.9,3.6 -2.4,2 -4.6,4.1 -6.7,6.3 12.3,-3.8 47.7,-12.2 101,-4.8"
     id="path16"
     inkscape:connector-curvature="0"
     style="fill:#ffffff" />
  <path
     class="st3"
     d="m 101.1,83.799361 -68.2,-0.1 v 2.1 c 0,0.6 0.1,14.699999 4.2,39.799999 l 0.2,1 73.3,37.8 30.5,-90.599999 -40,10 M 89.2,105.39936 c -8,-1.1 -10.1,-2 -10.1,-3.5 v -0.2 c 0,-1.3 1.7,-2.199999 5.5,-2.199999 7.9,0 15.7,1.799999 22.8,5.299999 l 12.4,-12.199999 c -4.7,-2.6 -9.8,-4.5 -15.1,-5.6 l 30,-7.4 c -1.1,3.2 -7.3,21.799999 -13.5,40.099999 -2.3,-8.5 -14.6,-12 -32,-14.3 M 37.1,87.899361 h 30.4 c -9.3,3.1 -14.2,8.9 -14.2,15.599999 v 0.1 c 0,11.4 15,14.9 32,17.3 8.1,1.1 10.5,2 10.5,3.5 v 0.1 c 0,1.5 -2,2.3 -6.5,2.3 -9.2,0.1 -18.4,-2.1 -26.6,-6.3 l -10.6,9 -11.1,-5.7 c -2,-11.8 -3.3,-23.799999 -3.9,-35.899999 m 71.1,70.699999 c -2,-1.1 -19.4,-10 -36,-18.6 5.3,0.8 10.6,1.2 15.9,1.2 12.9,0 23,-2.8 28.6,-7.7 -4.4,13 -7.9,23.6 -8.5,25.1"
     id="path18"
     inkscape:connector-curvature="0"
     style="fill:#ee3124" />
</svg>
