<svg height="272.826665" viewBox="0 0 442.20002 329.39999" width="366.533088" xmlns="http://www.w3.org/2000/svg" xmlns:xlink="http://www.w3.org/1999/xlink"><radialGradient id="a" cx="318.17801" cy="874.03497" gradientTransform="matrix(.93 -.08 .08 .93 -151.961 -673.368)" gradientUnits="userSpaceOnUse" r="67.690002"><stop offset=".28" stop-color="#6d518a"/><stop offset=".63" stop-color="#573275"/></radialGradient><radialGradient id="b" cx="214.94456" cy="103.7468886" gradientUnits="userSpaceOnUse" r="101.7792"><stop offset=".53" stop-color="#fdb515"/><stop offset=".62" stop-color="#fcb116"/><stop offset=".71" stop-color="#fba518"/><stop offset=".8" stop-color="#f8911c"/><stop offset=".89" stop-color="#f47521"/><stop offset="1" stop-color="#c23350"/></radialGradient><linearGradient id="c" gradientUnits="userSpaceOnUse" x1="122.933" x2="288.30501" y1="149.46001" y2="53.98101"><stop offset="0" stop-color="#c23350"/><stop offset=".25" stop-color="#f47521"/><stop offset=".35" stop-color="#f88f1c"/><stop offset=".49" stop-color="#fcab17"/><stop offset=".57" stop-color="#fdb515"/><stop offset=".7" stop-color="#ffd07b"/><stop offset="1" stop-color="#ffdea4"/></linearGradient><path d="m-22.7-9.5h464.9v368.5h-464.9z" fill="none"/><path d="m219.9 205.1c-16.4 0-32.4-4.1-46.8-11.8-2.5-1.1-5-2.2-7.4-3.5-.2.2-.3.5-.5.6-2.2 2.2-5.2 3.4-8.2 3.2-5.2 0-10.9-2.7-14.8-5-5.8-2-11.2-5-15.9-8.9-5.7-4.8-14.3-16.2-14.7-16.8s-.4-1.4.1-1.9 1.2-.7 1.9-.4l1 .5c-.8-1.9-1.7-4-3.2-7.3-2.4-5.2-10.3-12.9-10.4-13-.5-.5-.6-1.2-.3-1.8.3-.5.8-.8 1.3-.8h.4c3.9 1.1 7.7 2.5 11.4 4-2.7-3.2-5.1-6.6-7.3-10.1-4.5-6.9-5.3-23-5.3-23.7s.4-1.3 1.1-1.5c.2 0 .3-.1.5-.1.5 0 1 .3 1.3.7l.7 1c.2-2.2.3-4.6.5-8.5.3-6.1-3.1-17.4-3.2-17.5-.2-.8.4-1.6 1.2-1.8.5-.1.9 0 1.3.3 2.1 2.2 4 4.4 5.9 6.8-2.2-7.9.3-19.1 2.3-24.8 2.7-7.6 10.9-20.6 11.2-21.1.3-.4.8-.7 1.3-.7.2 0 .4 0 .5.1.7.2 1.1.9 1 1.7l-.2 1.1c1.6-1.5 3.2-3.2 5.9-6.2 4.2-4.5 8.9-15.4 9-15.5.2-.6.8-.9 1.4-.9h.2c.7.1 1.2.7 1.3 1.4.1 1.8.2 4.1.2 6.2 1.6-1.5 3.4-3 5.2-4.4 2.2-5 7-9.6 10.5-12 5.7-3.9 19.2-8.5 19.8-8.7.2-.1.3-.1.5-.1.8 0 1.5.7 1.5 1.6 0 .3-.1.7-.3.9l-.6.7c1.1-.1 2.2-.2 3.6-.4 4.3-1.2 8.8-2.1 13.2-2.7 2.8-1.1 5.5-2.4 8.1-3.8.2-.1.5-.2.7-.2.9 0 1.5.7 1.5 1.5 0 .2 0 .3-.1.5-.1.3-.2.7-.4 1 1.7-.1 3.3-.1 5-.1 18.9 0 37.4 5.2 53.4 15.2 2.3 1.2 4.5 2.6 6.8 4 .5.3.8.9.7 1.5s-.5 1.1-1.1 1.3c-.2.1-.4.1-.5.1-.2 0-.4 0-.6-.1-8.8-3.5-18.2-5.2-27.7-5.1-6.7 0-13.4.8-19.9 2.4 12.3 1 24.2 4.7 34.9 10.8.2.1 4.8 2.7 6.9 3.9.5.3.8.8.8 1.4s-.3 1.1-.9 1.3c-.4.2-.8.2-1.2.1-6.8-2.3-13.9-3.5-21-3.4-12.3.2-24.3 2.9-35.5 8h1.2c12.1-.1 24 3 34.6 9 .2.1 5 2.7 7.1 3.9.5.3.7.9.7 1.4 0 .4-.2.7-.4 1 10.4 7 18.7 16.8 23.8 28.3.2-.1.4-.3.6-.3h.3c.7 0 1.3.4 1.5 1.1.2.5 3.6 12.4 4 19 .2 3.4.1 6.8-.2 10.2 7.9-15.2 10.8-30.9 8.4-45-.1-.8.4-1.6 1.2-1.8h.4c.7 0 1.3.4 1.5 1.1.1.5 2.8 9.5 4.2 17.3.2-4.2-.1-8.5-.8-12.7-.1-.8.4-1.6 1.2-1.8h.4c.7 0 1.3.4 1.5 1.1 1.9 6.4 3.4 12.9 4.5 19.5 1.9-9.7 1.8-19.8-.2-29.5-.2-.8.3-1.6 1.1-1.8h.4c.7 0 1.3.4 1.5 1.1.2.5 2.7 8.3 4.7 16.3-.2-3.9-.7-7.8-1.5-11.6-.2-.8.3-1.6 1.1-1.8h.4c.7 0 1.3.4 1.5 1.1s5.8 18.1 6.7 27.6c.2 2 .3 4 .4 6l.1-.2c.3-.3.7-.5 1.2-.5.2 0 .5.1.7.2.6.3 1 1 .8 1.7 0 .1-1.5 6.2-1.3 9.5.1 1.4.1 2.4.2 3.3h.5c.7.2 1.2.8 1.2 1.5 0 1-.4 9.5-2.3 13.3-1.1 2.2-2.4 4.3-3.9 6.3 1.4-.7 2.9-1.3 4.4-1.8.2-.1.3-.1.5-.1.5 0 1 .3 1.3.7.4.6.3 1.3-.1 1.9-.1.1-5.6 6.5-7.2 10.6-.8 2.2-1.4 3.7-1.8 5 .6-.3 1.3-.2 1.8.3s.6 1.3.2 1.9c-.2.4-6.2 9.9-10.4 14-3.5 3.4-11.1 9.2-17.7 9.2h-.6c-15.8 14.3-35.9 23.2-57.2 25.1-3.9 0-7.1.2-10.2.2zm-15.4-68.4-.6.6c-7.3 6.3-10.1 13.7-8 20.8 5.5-1.2 10.8-3.2 15.7-6-.4-1.6-.8-3.2-1.1-4.8-.8-4.1-1.4-8.3-1.6-12.5-1.5.4-3 1-4.4 1.9zm12.8-7.2c0 5.9.7 11.8 1.9 17.6l.2-.1c10-7.6 17.2-17.7 20.4-28.2-6.3 5.7-14.1 9.5-22.5 10.7zm34.1-23c1.2 4 2 8 2.4 12.1.3 5.4-.3 10.7-1.8 15.9 8.4-10.4 13.8-22.1 15.5-33.7-5.1 2.4-10.5 4.3-16.1 5.7zm-78.5 3.4c-3.8 5.8-6.4 12.3-7.6 19.1 1.9-2.6 4.1-4.9 6.6-7 0-1.3 0-2.6.1-3.9.1-2.7.4-5.5.9-8.2zm34.4 15.2c-4.2-8.6-11.8-17.3-22.6-26.1-2.3 5.9-3.7 12.1-4.2 18.4 1.3-.3 2.7-.5 4-.5 4.2.1 8.3 1.4 11.9 3.6 3.8.6 7.5 2.2 10.5 4.6zm39.1-13.5c.2 1 .3 2.1.4 3.1.2 3 0 6-.4 9 1.6-4.7 2.3-9.7 2-14.7-.6.9-1.2 1.8-2 2.6zm-56.1-19.1c11.5 9.4 19.7 19 24.5 28.7 7.4-.6 14.3-4 20.7-10.2 2.1-2.1 4-4.3 5.8-6.7-.1-.8-.2-1.7-.3-2.5-.1-.2-.1-.5 0-.8-4-6-8.5-11.6-13.5-16.8-2.8-.7-5.7-1-8.7-1-9.4.1-19.5 3.4-28.5 9.3zm21.1-31.8c10.4 6 24.9 17.3 38 37.7 6-.9 13.6-3.1 17-6.7-7.8-17.7-23.9-30.4-43-33.8-4.1.6-8.1 1.5-12 2.8zm-11.6 11.3c6.1 0 12.1 1.1 17.8 3.2-3.6-2.9-7.5-5.5-11.5-7.8-1.6-.9-3.2-1.8-4.9-2.5-4.8 2.4-9.4 5.2-13.6 8.5 1.7-.4 3.4-.7 5.1-.9 2.3-.3 4.7-.5 7.1-.5z" fill="#fff"/><path d="m274.5 91.3c-13.2-33.6-50.9-50.3-84.7-37.6-1.1.5-1.4.5-1.4.5-33.4 13.8-49.4 52.1-35.6 85.5s52.1 49.4 85.5 35.6c32.9-13.5 48.9-50.8 36.2-84zm-4.1 6.3c1.3 4.1 2.1 8.3 2.5 12.6 0 .1-1.1 8.1-8.4 17.1-4.6 5.6-10.2 10.2-16.5 13.7-9.2 4.9-19.1 8.4-29.3 10.1-2-7.5-3-15.2-2.9-23 8.9-.8 17.4-5 24.8-12.2 3.2-3.1 6-6.6 8.4-10.4 0 0 12.2-2.5 21-7.8zm-57.4-42.2c24.1 0 45.9 14.4 55.3 36.6-4 5.1-14.1 7.4-19.6 8.1-13.6-21.5-28.9-33-39.5-38.9-3-1.7-6-3.1-9.2-4.4 4.3-.9 8.6-1.4 13-1.4zm-22.1 4.2h.1c5.5 1.5 10.8 3.7 15.8 6.6 9.9 5.5 24.4 16.4 37.3 36.8-2.1 3.3-4.7 6.4-7.5 9.2-6.9 6.7-14.5 10.3-22.7 10.7-5.2-11.1-15.2-22.2-29.5-33-5.8-4.4-11.9-8.4-18.3-12 6.6-8.2 15.1-14.5 24.8-18.3zm-33.9 78c-7.2-18.3-5-39 5.9-55.4 5.8 3.3 11.4 6.9 16.8 10.9-7.6 16.7-8.2 35.7-1.8 52.8 3.9 9.9 9.6 19.1 16.8 26.9-17.2-5.5-31-18.4-37.7-35.2zm48.1 37.4-2.3-1.7c-9.2-9.1-15.9-18.9-19.8-29.2-3.1-8.1-4.4-16.8-4-25.4.4-7.7 2.1-15.2 5.1-22.2 10.4 8.2 21.2 19 26.1 31.2h.1c-.1 6.4.4 12.9 1.7 19.2 2.5 12.3 7.5 21.6 14.6 27.2-4.5 1-9 1.6-13.6 1.6-2.7.1-5.3-.1-7.9-.7zm30-3.5-1.7.6c-6.3-3.4-10.3-9.3-12.9-15.8 10.7-1.8 21-5.4 30.5-10.6 6.9-3.9 13.1-9 18.1-15.2 1.2-1.4 2.2-3 3.2-4.5-3.7 20.6-17.8 37.8-37.2 45.5zm72.3-26.8c1.7-4.4 7.6-11 7.6-11-3.2 1.1-8.3 3.6-10.5 4.7.3-.8.6-1.5.9-2.2 2.3-1.1 4.5-4 7.2-9.1 1.9-3.5 2.2-12.6 2.2-12.6l-1.3 2.5c-.3-2.3-.4-3.6-.5-7.2s1.4-10 1.4-10c-1 1.2-1.9 2.5-2.8 3.8 0-3.5-.1-7.1-.4-10.6-.9-9.4-6.8-27.3-6.8-27.3 4.6 21.7-1.1 46.4-15.6 67.6 5.2-11.8 7.5-24.7 6.9-37.5-.4-8.1-4.9-23.2-4.9-23.2 4.3 24.2-7.4 53.4-31.2 75.2 9.3-12.7 14.1-28.2 13.4-43.9-.3-6.5-3.9-18.6-3.9-18.6 3.8 21.4-8 47.7-31.3 65.5-6 4.6-12.5 8.4-19.5 11.3 16.9-9.8 28.1-27.9 27.1-47.1-.2-4.6-2.8-13.2-2.8-13.2 2.7 15.2-5.7 33.9-22.2 46.6-9.7 7.5-20.8 11.6-30.9 12.2-10.6-16.2 6.2-27.6 6.2-27.6l11.7-4.8s-2.2-3.9-8.4-4c0 0-10.8-9.3-21.3-3.9s-17.3 19-17.2 22.8c-.1 1.2-.5 2.5-1.2 3.5-9.6-16.2-1.6-40.7 18.6-56.3 15-11.5 32.8-14.8 46.1-10.2-9.4-5.3-20.3-7.4-31-5.8-18 2.4-33.7 13.5-42.1 29.6 5.8-13.8 15.2-25.8 27.2-34.8 21.1-16.1 46.2-20.8 64.8-14.3-13.2-7.5-28.6-10.4-43.6-8.2-8.3 1.1-16.3 3.5-23.8 7.2l1.7-1.4c26.3-20.1 57.7-26 81-17.9-15.7-9-34.6-13-54.8-10.4-4.8.6-9.6 1.6-14.2 3l.3-.3c25.4-13.8 53.5-16 75.8-7.2-18-11.2-39-16.4-60.1-14.8.5-1.1 1-2.1 1.4-3.2-2.7 1.5-5.5 2.8-8.4 4-4.5.6-8.9 1.6-13.3 2.9-2.6.3-4.6.4-7.2.6l2.8-3.4s-13.9 4.8-19.5 8.6c-3.1 2.2-8.1 6.6-10.1 11.7-2.8 2.2-5.5 4.6-8.1 7.1.1-3.2.1-6.5-.1-9.8 0 0-4.9 11.1-9.3 15.8-2.9 3.2-5.9 6.3-9.2 9.2l.7-5.4s-8.4 13.3-11 20.8c-2.3 6.6-5.7 22 .1 28.6-.1.9-.2 1.8-.2 2.8-1.7-2-7-9.1-10.6-12.7 0 0 3.5 11.6 3.2 18.1-.1 4.3-.5 8.6-1.1 12.9l-3-4.7s.8 16.2 5.1 22.9c4.9 7.7 9.1 12.7 13.2 15.7l-.5-.3s-2.9-2.3-4.2-3.2l1 1.5c.3.5-9.8-4-15.3-5.4 0 0 8.1 7.9 10.7 13.4 1.8 3.6 3.4 7.4 4.8 11.2l-4.6-2.4s8.8 11.8 14.4 16.5 21.1 14.4 28.6 6.8c.6-.7 1.1-1.6 1.3-2.5 38 25.3 88.4 21.7 122.4-8.9 6.3.8 14.6-5.4 18-8.7 4.1-4 10.3-13.7 10.3-13.7l-3.4 2.2c1-3.1 2-6.2 3.3-9.1zm6.1 3.9c1.7-4.4 7.5-11.1 7.5-11.1-3.2 1.1-8.2 3.6-10.4 4.7.3-.8.6-1.5.9-2.2 2.3-1.1 4.5-4 7.1-9.1 1.9-3.5 2.2-12.6 2.2-12.6l-1.3 2.5c-.3-2.3-.3-3.6-.5-7.2s1.4-10 1.4-10c-1 1.2-1.9 2.5-2.8 3.8 0-3.5-.1-7-.4-10.6-.9-9.4-6.6-27.3-6.6-27.3 4.6 21.7-1.1 46.4-15.3 67.6 5.1-11.8 7.4-24.7 6.7-37.5-.4-8.1-4.8-23.2-4.8-23.2 4.2 24.2-7.2 53.4-30.7 75.2 9.2-12.8 13.9-28.3 13.2-44-.3-6.5-3.9-18.6-3.9-18.6 3.7 21.4-7.9 47.7-30.8 65.5-5.9 4.6-12.3 8.4-19.2 11.3 16.7-9.7 27.7-27.8 26.7-47-.2-4.6-2.8-13.2-2.8-13.2 2.6 15.2-5.6 33.9-21.9 46.6-9.6 7.5-20.5 11.6-30.4 12.2-10.5-16.2 5.9-28.2 6.1-28.6.8-1.3 11.5-4.8 11.5-4.8s-2.3-4.1-8.5-4.3c0 0-9.1-8.7-20.8-2.6-10.3 5.5-15.6 17.7-17 22.7-.7 2-.5 1.5-1.2 3.5-9.4-16.2-1.6-40.7 18.4-56.3 14.8-11.5 32.4-14.8 45.5-10.2-9.3-5.3-20-7.4-30.6-5.8-17.9 2.5-33.4 13.6-41.6 29.7 5.7-13.8 15-25.8 26.8-34.8 20.8-16.1 45.5-20.8 63.9-14.3-13-7.5-28.2-10.4-43-8.2-8.2 1.1-16.1 3.5-23.5 7.2l1.7-1.4c25.9-20.1 56.8-26 79.8-17.9-15.2-8.9-33.9-12.9-53.7-10.2-4.7.6-9.4 1.6-14 3l.3-.3c25-13.8 52.8-16 74.7-7.2a96.55 96.55 0 0 0 -59.2-14.8c.5-1.1 1-2.1 1.4-3.2-2.7 1.5-5.5 2.8-8.3 4-4.4.7-8.8 1.6-13.1 2.8-2.6.3-4.5.5-7.1.6l2.4-3.5s-13.7 4.7-19.2 8.5c-3.1 2.2-8 6.7-10 11.7-2.8 2.2-5.4 4.6-7.9 7.1.1-3.3.1-7.1-.1-9.7 0 0-4.8 11.1-9.1 15.9-2.8 3.2-5.8 6.3-9 9.2l.8-5.4s-8.3 13.3-10.8 20.8c-2.3 6.6-5.6 22 .1 28.6-.1.9-.1 1.8-.2 2.8-1.7-2-6.9-9.1-10.5-12.7 0 0 3.5 11.6 3.2 18.1-.1 4.3-.5 8.6-1.1 12.8l-2.9-4.6s.8 16.2 5 22.9c4.9 7.6 9 12.7 13.1 15.7l-.5-.2s-2.8-2.3-4.1-3.2l1 1.6c.3.5-9.6-4-15.2-5.4 0 0 8 7.9 10.6 13.4 1.8 3.6 3.3 7.4 4.7 11.2l-4.5-2.4s8.7 11.8 14.2 16.5 20.8 14.4 28.2 6.8c.6-.7 1.1-1.6 1.3-2.5 37.4 25.3 87.3 21.6 120.6-8.9 6.2.8 14.4-5.4 17.8-8.7 4.1-4 10.1-13.7 10.1-13.7l-3.4 2.2c.7-3.3 1.8-6.3 3-9.3z" fill="#381460"/><path d="m272.6 93c-12.8-32.4-49.5-48.4-81.9-35.6s-48.4 49.5-35.6 81.9 49.5 48.4 81.9 35.6 48.4-49.4 35.6-81.9z" fill="url(#a)"/><path d="m274.5 91.3c-13.2-33.6-50.9-50.3-84.7-37.6-1.1.5-1.4.5-1.4.5-33.4 13.8-49.4 52.1-35.6 85.5s52.1 49.4 85.5 35.6c32.9-13.5 48.9-50.8 36.2-84zm-4.1 6.3c1.3 4.1 2.1 8.3 2.5 12.6 0 .1-1.1 8.1-8.4 17.1-4.6 5.6-10.2 10.2-16.5 13.7-9.2 4.9-19.1 8.4-29.3 10.1-2-7.5-3-15.2-2.9-23 8.9-.8 17.4-5 24.8-12.2 3.2-3.1 6-6.6 8.4-10.4 0 0 12.2-2.5 21-7.8zm-57.4-42.2c24.1 0 45.9 14.4 55.3 36.6-4 5.1-14.1 7.4-19.6 8.1-13.6-21.5-28.9-33-39.5-38.9-3-1.7-6-3.1-9.2-4.4 4.3-.9 8.6-1.4 13-1.4zm-22.1 4.2h.1c5.5 1.5 10.8 3.7 15.8 6.6 9.9 5.5 24.4 16.4 37.3 36.8-2.1 3.3-4.7 6.4-7.5 9.2-6.9 6.7-14.5 10.3-22.7 10.7-5.2-11.1-15.2-22.2-29.5-33-5.8-4.4-11.9-8.4-18.3-12 6.6-8.2 15.1-14.5 24.8-18.3zm-33.9 78c-7.2-18.3-5-39 5.9-55.4 5.8 3.3 11.4 6.9 16.8 10.9-7.6 16.7-8.2 35.7-1.8 52.8 3.9 9.9 9.6 19.1 16.8 26.9-17.2-5.5-31-18.4-37.7-35.2zm48.1 37.4-2.3-1.7c-9.2-9.1-15.9-18.9-19.8-29.2-3.1-8.1-4.4-16.8-4-25.4.4-7.7 2.1-15.2 5.1-22.2 10.4 8.2 21.2 19 26.1 31.2h.1c-.1 6.4.4 12.9 1.7 19.2 2.5 12.3 7.5 21.6 14.6 27.2-4.5 1-9 1.6-13.6 1.6-2.7.1-5.3-.1-7.9-.7zm30-3.5-1.7.6c-6.3-3.4-10.3-9.3-12.9-15.8 10.7-1.8 21-5.4 30.5-10.6 6.9-3.9 13.1-9 18.1-15.2 1.2-1.4 2.2-3 3.2-4.5-3.7 20.6-17.8 37.8-37.2 45.5z" fill="#381460"/><path d="m307.3 144.7c1.7-4.4 7.6-11.1 7.6-11.1-3.2 1.1-8.3 3.6-10.5 4.7.3-.8.6-1.5.9-2.2 2.3-1.1 4.5-4 7.2-9.1 1.9-3.5 2.2-12.6 2.2-12.6l-1.3 2.5c-.3-2.3-.4-3.6-.5-7.2s1.4-10 1.4-10c-1 1.2-1.9 2.5-2.8 3.8 0-3.5-.1-7-.4-10.6-.9-9.4-6.8-27.2-6.8-27.2 4.6 21.7-1.1 46.4-15.6 67.6 5.2-11.8 7.5-24.7 6.9-37.5-.4-8.1-4.9-23.2-4.9-23.2 4.3 24.2-7.4 53.4-31.2 75.2 9.3-12.7 14.1-28.2 13.4-43.9-.3-6.5-3.9-18.6-3.9-18.6 3.8 21.4-8 47.7-31.3 65.5-6 4.6-12.5 8.4-19.5 11.3 16.9-9.8 28.1-27.9 27.1-47.1-.2-4.6-2.8-13.2-2.8-13.2 2.7 15.2-5.7 33.9-22.2 46.6-9.7 7.5-20.8 11.6-30.9 12.2-10.6-16.2 6.2-27.6 6.2-27.6l11.7-4.8s-2.2-3.9-8.4-4c0 0-10.8-9.3-21.3-3.9s-17.3 19-17.2 22.8c-.1 1.2-.5 2.5-1.2 3.5-9.6-16.2-1.6-40.7 18.6-56.3 15-11.5 32.8-14.8 46.1-10.2-9.4-5.3-20.3-7.4-31-5.8-18 2.4-33.7 13.5-42.1 29.6 5.8-13.8 15.2-25.8 27.2-34.8 21.1-16.1 46.2-20.8 64.8-14.3-13.2-7.5-28.6-10.4-43.6-8.2-8.3 1.1-16.3 3.5-23.8 7.2l1.7-1.4c26.3-20.1 57.7-26 81-17.9-15.6-9-34.5-13-54.7-10.4-4.8.6-9.6 1.6-14.2 3l.3-.3c25.4-13.8 53.5-16 75.8-7.2-18-11.2-39-16.4-60.1-14.8.5-1.1 1-2.1 1.4-3.2-2.7 1.5-5.5 2.8-8.4 4-4.5.6-8.9 1.6-13.3 2.9-2.6.3-4.6.4-7.2.6l2.8-3.4s-13.9 4.8-19.5 8.6c-3.1 2.2-8.1 6.6-10.1 11.7-2.8 2.2-5.5 4.6-8.1 7.1.1-3.2.1-6.5-.1-9.8 0 0-4.9 11.1-9.3 15.8-2.9 3.2-5.9 6.3-9.2 9.2l.7-5.4s-8.4 13.3-11 20.8c-2.3 6.6-5.7 22 .1 28.6-.1.9-.2 1.8-.2 2.8-1.7-2-7-9.1-10.6-12.7 0 0 3.5 11.6 3.2 18.1-.1 4.3-.5 8.6-1.1 12.9l-3-4.7s.8 16.2 5.1 22.9c4.9 7.7 9.1 12.7 13.2 15.7l-.5-.3s-2.9-2.3-4.2-3.2l1 1.5c.3.5-9.8-4-15.3-5.4 0 0 8.1 7.9 10.7 13.4 1.8 3.6 3.4 7.4 4.8 11.2l-4.6-2.4s8.8 11.8 14.4 16.5 21.1 14.4 28.6 6.8c.6-.7 1.1-1.6 1.3-2.5 38 25.3 88.4 21.7 122.4-8.9 6.3.8 14.6-5.4 18-8.7 4.1-4 10.3-13.7 10.3-13.7l-3.4 2.2c1-3.1 2-6.1 3.2-9.1z" fill="#381460"/><path d="m313.5 148.6c1.7-4.4 7.5-11.1 7.5-11.1-3.2 1.1-8.2 3.6-10.4 4.7.3-.8.6-1.5.9-2.2 2.3-1.1 4.5-4 7.1-9.1 1.9-3.5 2.2-12.6 2.2-12.6l-1.3 2.5c-.3-2.3-.3-3.6-.5-7.2s1.4-10 1.4-10c-1 1.2-1.9 2.5-2.8 3.8 0-3.5-.1-7-.4-10.6-.9-9.4-6.6-27.3-6.6-27.3 4.6 21.7-1.1 46.4-15.3 67.6 5.1-11.8 7.4-24.7 6.7-37.5-.4-8.1-4.8-23.2-4.8-23.2 4.2 24.2-7.2 53.4-30.7 75.2 9.2-12.7 13.8-28.2 13.2-43.9-.3-6.5-3.9-18.6-3.9-18.6 3.7 21.4-7.9 47.7-30.8 65.5-5.9 4.6-12.3 8.4-19.2 11.3 16.7-9.7 27.7-27.8 26.7-47.1-.2-4.6-2.8-13.2-2.8-13.2 2.6 15.2-5.6 33.9-21.9 46.6-9.6 7.5-20.5 11.6-30.4 12.2-10.5-16.2 5.9-28.2 6.1-28.6.8-1.3 11.5-4.8 11.5-4.8s-2.3-4.1-8.5-4.3c0 0-9.1-8.7-20.8-2.6-10.3 5.5-15.6 17.7-17 22.7-.7 2-.5 1.5-1.2 3.5-9.4-16.2-1.6-40.7 18.4-56.3 14.8-11.5 32.4-14.8 45.5-10.2-9.3-5.3-20-7.4-30.6-5.8-17.9 2.5-33.4 13.6-41.6 29.7 5.7-13.8 15-25.8 26.8-34.8 20.8-16.1 45.5-20.8 63.9-14.3-13-7.5-28.2-10.4-43-8.2-8.2 1.1-16.1 3.5-23.5 7.2l1.7-1.4c25.9-20.1 56.8-26 79.8-17.9-15.2-8.9-33.9-12.9-53.7-10.2-4.7.6-9.4 1.6-14 3l.3-.3c25-13.8 52.8-16 74.7-7.2a96.55 96.55 0 0 0 -59.2-14.8c.5-1.1 1-2.1 1.4-3.2-2.7 1.5-5.5 2.8-8.3 4-4.4.7-8.8 1.6-13.1 2.8-2.6.3-4.5.5-7.1.6l2.4-3.5s-13.7 4.7-19.2 8.5c-3.1 2.2-8 6.7-10 11.7-2.8 2.2-5.4 4.6-7.9 7.1.1-3.3.1-7.1-.1-9.7 0 0-4.8 11.1-9.1 15.9-2.8 3.2-5.8 6.3-9 9.2l.8-5.4s-8.3 13.3-10.8 20.8c-2.3 6.6-5.6 22 .1 28.6-.1.9-.1 1.8-.2 2.8-1.7-2-6.9-9.1-10.5-12.7 0 0 3.5 11.6 3.2 18.1-.1 4.3-.5 8.6-1.1 12.8l-2.9-4.6s.8 16.2 5 22.9c4.9 7.6 9 12.7 13.1 15.7l-.5-.2s-2.8-2.3-4.1-3.2l1 1.6c.3.5-9.6-4-15.2-5.4 0 0 8 7.9 10.6 13.4 1.8 3.6 3.3 7.4 4.7 11.2l-4.5-2.4s8.7 11.8 14.2 16.5 20.8 14.4 28.2 6.8c.6-.7 1.1-1.6 1.3-2.5 37.4 25.3 87.3 21.6 120.6-8.9 6.2.8 14.4-5.4 17.8-8.7 4.1-4 10.1-13.7 10.1-13.7l-3.4 2.2c.8-3.3 1.8-6.3 3-9.3z" fill="url(#b)"/><path d="m144.9 329-.7-1.8-5.1 1.1c-2.2.5-3.2-.5-2.7-3.9l1.1-6.6c.6-3.5 2-5 4.2-5.5l7.8-1.7c2.2-.5 3.2.5 2.7 3.9l-1.1 6.6c-.6 3.5-2 5-4.2 5.4l-.7.1.7 1.8zm-.2-6.7.7 1.9c.2-.2.4-.6.4-.9l1.4-8.7c.1-.8-.2-.9-.9-.8l-2.3.5c-.6.1-1.1.6-1.2 1.3l-1.4 8.7c-.1.8.2 1 .9.8l1-.2-.8-2.1zm21.4-2.4c1.4-.3 1.6-.5 1.8-1.9l1.5-8.9c.3-1.8.3-2.1 0-2.8l3.2-.7c-.6.9-.9 1.9-1 3l-1.3 8.2c-.6 3.6-1.7 5.1-4.6 5.8l-6.9 1.5c-2.6.6-3.5-.8-2.9-4.1l1.4-8.3c.2-.9.2-1.8 0-2.7l6.1-1.3c-.5.9-.8 1.8-.9 2.8l-1.5 9.1c-.2 1.1.1 1.4 1.1 1.2zm18.2-3.9c.8-.2 1.7-.5 2.4-.9l-1 3.2-12 2.5c.5-.9.8-1.8.9-2.8l1.8-10.5c.2-.9.2-1.8 0-2.7l11.8-2.5-.1 3c-.8-.1-1.5-.1-2.3.1l-4.2.9-.6 3.7 3.7-.8c.8-.2 1.7-.5 2.4-.9l-.6 3.5c-.7-.1-1.5-.1-2.3.1l-3.7.8-.7 4.3zm16-3.4c.8-.2 1.7-.5 2.4-.9l-1 3.2-12 2.5c.5-.9.8-1.8.9-2.8l1.8-10.5c.2-.9.2-1.8.1-2.7l11.8-2.5-.1 3c-.8-.1-1.5-.1-2.3.1l-4.2.9-.6 3.8 3.7-.8c.8-.2 1.7-.5 2.4-.9l-.6 3.5c-.7-.1-1.5-.1-2.2.1l-3.7.8-.8 4.3zm10.5-12.4-1.8 10.4c-.3 1.8-.3 2.1 0 2.8l-3.2.7c.6-.9.9-1.9 1-3l1.8-10.3c.3-1.8.3-2.1 0-2.8l7.3-1.5 3.2 11.9h.1l1.8-10.2c.3-1.8.3-2.2 0-2.8l3.2-.7c-.6.9-1 1.9-1 3l-2.3 13.1-6.8 1.5zm29.9-5.7c-.6-.3-1.3-.3-2-.1l-4.8 1c-.8.2-1 .3-1.1.9l-.2.9c-.1.6.1.7.9.5l3.7-.7c2.2-.5 3.2.2 2.8 2.5l-.7 3.9c-.5 2.5-1.5 4.1-4 4.6l-9.4 1.9.1-3.2c.6.3 1.3.4 1.9.2l5-1c.8-.2 1-.3 1.1-.9l.2-1.1c.1-.6 0-.7-.9-.5l-4.2.9c-2.1.4-2.7-.2-2.2-2.9l.7-3.6c.5-2.5 1.7-4 3.6-4.4l9.7-2zm12.7 7.3c.8-.1 1.6-.5 2.3-1l-1.1 3.2-11.8 2.3c.5-.9.8-1.8 1-2.8l2-10.5c.2-.9.3-1.8.1-2.6l6-1.2c-.5.9-.8 1.8-.9 2.8l-2 10.6zm9.3-3.3-1.4 2.3c-.2.3-.3.6-.4 1s-.1.7.1 1.1l-3.9.7c.8-1 1.5-2.1 2.2-3.2l7.3-13.2-.4-.8 6.1-1.2 2.2 12.9c.1.7.4 1.4.8 2l-6.8 1.3c.2-.3.4-.7.5-1.1s.1-.8 0-1.2l-.4-1.9zm5.6-3.6-.9-5-3.1 5.8zm15.3-9-2.1 10.4c-.4 1.8-.4 2.1-.1 2.8l-3.2.6c.6-.9 1-1.9 1.1-3l2-10.2c.4-1.8.4-2.1.1-2.8l7.3-1.4 2.9 12h.1l2-10.2c.4-1.8.4-2.2.1-2.8l3.2-.6c-.6.9-1 1.9-1.1 3l-2.6 13.1-6.7 1.2zm17.3-3.1c.3-.9.3-1.8.1-2.7l10.6-1.8c2.9-.5 3.7.6 3 3.9l-1.5 6.9c-.7 3.2-2 4.7-4.9 5.2l-10.6 1.8c.5-.9.8-1.8 1-2.8zm3 9.7 2.7-.5c.9-.1 1-.4 1.3-1.5l1.7-8.1c.2-1.1.1-1.3-.7-1.1l-2.7.5z" fill="#381460"/><path d="m206.9 18c-1.3.3-2.6.5-3.9.8-2.6.7-5.2 1.2-7.7 2-1.1.2-2.1.4-3.2.5l-3.2.3c-1.1.1-2.1.2-3.2.3-.9 0-1.9-.2-2.8-.5-3 1.4-6.2 2.6-8.9 4.7-1.4 1.1-2.6 2.2-3.7 3.6-.6.6-1.1 1.3-1.5 2.1-.5.7-.9 1.5-1.2 2.3-.4.8-.9 1.5-1.6 2.2-.6.7-1.3 1.2-1.9 1.8l-3.9 3.5-1.9 1.8c-.7.6-1.4 1.2-2.2 1.7-1.4.8-2.9 1.2-4.5 1.2l-1.4 1.7c-.6.8-1.2 1.5-1.8 2.2l-3.8 3.9-3.9 3.9-1 1c-.4.4-.6.6-1.1.9-.7.5-1.4.8-2.1 1.1-2.2 3.7-3.9 7.5-5.3 11.6-.7 2.1-1.2 4.2-1.5 6.4-.2 1.1-.3 2.2-.4 3.2-.1 1.1-.2 2.2-.2 3.2 0 1.1.1 2.2.2 3.2.1 1.1.6 2 1.3 2.8.6 1 1.1 2.1 1.3 3.2s.2 2.3 0 3.4c0 1.1-.2 2.3-.5 3.3-.3 1.1-.9 2.1-1.6 3s-1.7 1.6-2.7 2.2c-.9.4-1.8.7-2.8.8l-.6 7.6-.2 2c-.1.7-.1 1.3-.2 2-.2 1.2-.8 2.4-1.5 3.4.4 1.8.8 3.6 1.3 5.3.3.9.7 1.8 1.1 2.6l1.5 2.4c1.1 1.6 2.2 3.2 3.3 4.7s2.4 3 3.8 4.4c.7.7 1.3 1.4 2.1 2s1.5 1.2 2.1 2c2.4 3.3 2.2 7.8-.5 10.9-1.2 1.3-2.7 2.1-4.3 2.5l1.6 4.3c.3.9.6 1.7.9 2.6.2.8.3 1.7.2 2.5 1.2 1.6 2.5 3.1 3.8 4.6.7.8 1.4 1.5 2.1 2.2l1.1 1.1.6.5.3.2c0 .1.1.1.1.2s0 .1-.1.1h-.1c-3.1-2.4-6-5.2-8.5-8.3-.2-.2-.3-.4-.2-.7v-.7c0-.5-.1-1-.2-1.4l-1.1-2.8-1.1-2.8-.6-1.4c-.1-.2-.2-.5-.3-.7-.1-.3.1-.6.4-.7h.1c2.7-.5 4.9-2.5 5.7-5.1.7-2.7-.2-5.5-2.3-7.3-2.2-1.7-4.1-3.6-5.8-5.8s-3.2-4.4-4.7-6.7-2.6-4.9-3-7.6l-.4-2-.2-1-.1-.5c0-.2.1-.4.2-.6.9-1 1.4-2.3 1.6-3.6l.8-8.1.2-2 .1-1c0-.2.3-.5.4-.5l.5-.1c1.3-.1 2.6-.6 3.7-1.5 1.1-.8 1.9-1.9 2.3-3.2s.6-2.6.6-4c.2-1.3 0-2.7-.4-3.9-.3-.6-.6-1.2-1-1.7-.5-.5-.9-1.1-1.1-1.8s-.4-1.3-.5-2l-.1-2c-.1-1.4-.1-2.7 0-4.1.2-2.7.6-5.4 1.3-8.1.6-2.7 1.5-5.3 2.7-7.7.6-1.3 1.2-2.4 1.8-3.7l.9-1.8.5-.9c.1-.3.5-.8.8-.8 1.3-.5 2.4-1.3 3.3-2.4l2.8-2.9 5.7-5.9 2.2-2.9.6-.7c.2-.3.6-.5 1-.4.6 0 1.2 0 1.8-.1 1.2-.2 2.3-.8 3.1-1.6l2.7-2.4 2.8-2.4c.9-.8 1.9-1.6 2.7-2.4.8-.9 1.5-1.9 1.9-3l.9-1.6c.4-.5.7-1 1.2-1.5.8-1 1.6-1.9 2.6-2.7.9-.8 1.9-1.6 2.9-2.3 2.1-1.3 4.4-2.3 6.6-3.2l1.7-.7c.2-.1.3-.1.5-.2.2 0 .4 0 .6.1.3.1.5.2.8.3 1.2.3 2.4.3 3.6.2 2.4-.2 4.9-.2 7.3-.6 2-.6 4-.9 6-1.4 1-.2 2-.5 3-.6l3.1-.4 1.1-.2.5-.1.2-.1.3-.1 1-.4h.5l.2.1c.2.1.3.3.3.5-.1.2-.3.3-.5.2h-.1c-1.3.4-2.5.8-3.7 1zm-23 116.8c-3.8 3.2-6.6 7.4-8.2 12.1-.4 1.2-.7 2.3-1.1 3.5-.3 1.2-.7 2.3-1.2 3.4-.6 1-1.4 1.9-2.4 2.6s-2.1 1.1-3.3 1.3c0 0-.1 0-.1.1 0 0 0 .1.1.1h1.3c2.4-.2 4.6-1.4 6-3.4.6-1 1.1-2.1 1.5-3.2s.8-2.2 1.2-3.4c.8-2.2 1.8-4.4 2.9-6.5s2.4-4.1 3.7-6c.1-.1 0-.3-.1-.4-.1-.2-.2-.2-.3-.2zm130.7-35.2v.4l-.1.7-.3 3-1.2 11.8c-1.2 7.8-3 15.8-7.6 22.5-1.1 1.6-2.5 3.2-4 4.5-1.5 1.4-3.4 2.3-5.4 2.6s-4.1 0-5.9-1c-1.3-.8-2.3-2-2.8-3.5-4 5.1-8.4 10-13 14.7-1.2 1.3-2.5 2.5-4 3.5-1.6.9-3.4 1.2-5.2.9-1.8-.2-3.4-1.1-4.7-2.3-.9-.9-1.6-2-2-3.2-5.4 5.1-11.4 9.5-18 13 .1 0 .2 0 .2.2s-.3 0-.4.1-.2 0-.3-.1v-.1c.2-.2.4-.3.6-.5l1.2-.9 2.4-1.8 4.8-3.6c3-2.5 5.9-5.3 8.8-8l.5-.5c.2-.2.6-.3.9-.3.3.1.6.3.7.6.1.2.1.5.2.8.2.9.7 1.8 1.3 2.6 1.2 1.5 3 2.5 4.9 2.7s3.8-.4 5.3-1.7 2.9-2.7 4.3-4.1c2.8-2.8 5.4-5.8 7.7-9 1.2-1.6 2.3-3.2 3.4-4.9.2-.3.5-.6.9-.6.5 0 .9.3 1 .7.1.5.2.9.4 1.4.4.9.9 1.6 1.7 2.1 1.7.9 3.6 1.2 5.4.7 1.9-.5 3.5-1.5 4.8-3 2.7-2.9 4.8-6.2 6.2-9.9 3-7.3 4.2-15.2 5.5-23l1-5.9.2-1.5v-.2c0-.2.2-.3.4-.3s.3.1.4.2c-.2.1-.2.2-.2.2zm-71.9 65.3c.9-.6 1.8-1.3 2.7-2l-1.5 1.1zm-15.8-4.3c-1.9 1-3.7 2.1-5.6 3l-1.4.7-1.4.6-2.9 1.2-3 1-1.5.5-1.5.4c-1.1.3-2 .6-3 .8l-3.1.7c-.1 0-.1.1-.1.1 0 .1.1.1.1.1 1.4.2 2.7.2 4.1.1l1.3-.1 1.2-.1h.3l1.4-.1 1.3-.4 1-.3h.1l1.6-.4c.5-.1.9-.3 1.3-.5l1.3-.6 2.5-1.1 2.3-1.6c.8-.5 1.5-1.1 2.2-1.7l1.1-.9c.4-.3.7-.7 1-1 .1-.1.1-.2.1-.4s-.2-.3-.4-.2c-.1.1-.1.1-.3.2z" fill="url(#c)"/><path d="m442.2 181c0-3.1-.8-6.2-2.4-8.9l-.1-.2-.1-.2c-3.2-5.2-8.8-8.3-14.9-8.3h-.8l-33.2 1c-5 .1-9.9 1.5-14.3 4-1.3-.6-2.7-1.2-4.1-1.6-2.5-.7-5-1.1-7.6-1.1-.5 0-1 0-1.5.1l-39.7 2.2c-2.2.1-4.4.7-6.4 1.6-2.2-.6-4.4-.9-6.6-.9-.6 0-1.2 0-1.8.1l-41.2 3.1h.1c-.9.1-1.7.2-2.6.4h-1.3c-.5 0-1.1 0-1.6.1l-13.7 1.1c-2.6.2-5.1 1-7.3 2.4-2.9-.9-6-1.2-9-.9l-41.4 4.2c-1.1.1-2.1.3-3.1.6h-1.3c-.7 0-1.3 0-2 .1l-35.4 4.2c-2.4.3-4.6 1-6.7 2.2-2.7-.6-5.5-.7-8.2-.3l-41.4 5.6c-.9.1-1.9.3-2.8.6h-.4c-.9 0-1.7.1-2.6.2l-13.8 2.1c-1.6.2-3.1.7-4.5 1.4-.6-.1-1.2-.1-1.9-.1-.8 0-1.7.1-2.5.2l-33.2 5.3c-4.1.7-7.8 2.7-10.6 5.8-3.7 4.2-5.7 9.6-5.8 15.2 0 1.7.2 3.4.6 5.1l1.7 7.4-16.2 71.7c-.4 1.7-.6 3.4-.6 5.2 0 1.7.3 3.3.7 4.9 1.9 7.3 8.4 12.5 15.9 12.8h.4c1.4 0 2.8-.2 4.2-.5l16.4-4.3c3.7-1 7-3.1 9.4-6.1 2 .9 4.1 1.4 6.3 1.5h.5c1.3 0 2.7-.2 4-.5l14.4-3.6c2.1-.5 4.1-1.4 5.9-2.7.7.1 1.4.2 2.1.2h.4c1.4 0 2.8-.2 4.1-.5l15.7-3.8c2-.5 3.8-1.3 5.5-2.4.7.1 1.3.1 2 .1 1.2 0 2.4-.1 3.5-.4l.3-.1 16.6-3.8c2.2-.5 4.3-1.5 6.2-2.8.8.1 1.5.2 2.3.2h.3c1.2 0 2.4-.1 3.5-.4h.2l29.3-6.4c2.2-.5 4.2-1.3 6.1-2.6.8.1 1.7.2 2.5.2h.3c1.1 0 2.2-.1 3.2-.3h.2l43.4-8.9c1.4-.3 2.7-.7 4-1.3.5 0 .9.1 1.4.1h.4c1.1 0 2.1-.1 3.2-.3l14.2-2.7c2.1-.4 4.1-1.2 5.9-2.3 1 .2 2 .3 3 .3h.2c1 0 1.9-.1 2.8-.2h.2l15.7-2.8c1.9-.3 3.8-1 5.5-2 .9.2 1.9.2 2.8.2.8 0 1.7-.1 2.5-.2h.3l16.5-2.8c2.2-.4 4.4-1.2 6.3-2.4 1.2.3 2.4.4 3.7.5h.1c.8 0 1.7-.1 2.5-.2h.1l43.4-6.7c1.5-.2 2.9-.7 4.3-1.3.6.1 1.3.1 1.9.1h.1c.8 0 1.5 0 2.3-.1h.2l33.6-4.7c2.3-.3 4.6-.9 6.8-1.7 2-.7 3.9-1.5 5.8-2.5 2.2-1.1 4.2-2.5 6.1-4 3.5-2.7 5.9-6.5 7.1-10.7l12.8-48.9c.5-.8.7-2.4.7-3.9z" fill="#fff"/><path d="m434.2 175.4-.1-.1c-1-1.7-2.5-3.1-4.2-4-1.6-.8-3.3-1.3-5.1-1.2h-.6l-33.1 1.1c-2.5.1-5 .5-7.3 1.3-2.2.7-4.2 1.8-6 3.1l-.9.7-.5-.4c-1.8-1.2-3.7-2-5.8-2.6-1.9-.6-3.8-.8-5.7-.9h-1l-39.8 2.2c-2.2.1-4.2.9-6 2.2-.5-.2-1-.4-1.5-.5-1.9-.6-3.8-.9-5.8-.9-.5 0-.9 0-1.4.1l-40.9 3c-.9.1-1.9.3-2.8.6-.6-.1-1.2-.2-1.8-.2-.4 0-.8 0-1.1.1l-13.6 1.1c-2.6.3-5.1 1.4-6.9 3.2-2.3-1.2-4.9-1.9-7.6-1.9-.6 0-1.1 0-1.7.1l-41.4 4.2c-1 .1-2 .4-3 .8-.6-.1-1.3-.2-1.9-.2-.4 0-.8 0-1.3.1l-35.4 4.1c-2.3.3-4.5 1.3-6.3 2.9l-.4-.2c-1.9-.7-3.8-1-5.8-1-.8 0-1.6.1-2.4.1l-41.4 5.6c-1 .1-1.9.4-2.8.8-.4-.1-.8-.1-1.2-.1-.5 0-1 0-1.6.1l-14 2.1c-1.6.2-3.1.8-4.5 1.8-.9-.3-1.9-.4-2.8-.4-.6 0-1.1 0-1.7.1l-33 5.2c-2.6.4-5 1.8-6.8 3.7-1.1 1.3-2 2.8-2.7 4.3-.9 2-1.3 4.2-1.4 6.4 0 1.2.1 2.4.4 3.5l2 9-16.6 73.3c-.3 1.2-.5 2.5-.5 3.8 0 1.1.1 2.3.4 3.4.5 1.9 1.5 3.6 2.8 4.9 1.9 1.8 4.4 2.9 7.1 3h.3c.9 0 1.8-.1 2.7-.4l16.2-4.2c3-.8 5.6-2.8 7.2-5.4.9-1.3 1.5-2.7 2-4.2.3.5.7 1 1.1 1.4 1.9 2.1 4.5 3.3 7.3 3.4h.2c.8 0 1.5-.1 2.3-.3h.1l14.4-3.6c1.9-.5 3.7-1.5 5.1-2.9.2-.2.4-.5.6-.7 1.2.5 2.5.8 3.9.9h.2c.9 0 1.7-.1 2.6-.3l15.8-3.8c2-.5 3.9-1.6 5.4-3.1 1.2.4 2.5.6 3.7.5.8 0 1.5-.1 2.3-.2l16.7-3.8c2.3-.6 4.5-1.8 6.1-3.6 1.3.6 2.6.9 4 .9h.2c.7 0 1.5-.1 2.2-.2l29.4-6.4c2.3-.5 4.4-1.7 6-3.4 1.3.6 2.7.9 4.1.9h.2c.7 0 1.4-.1 2.1-.2l43.5-8.7c1.5-.3 2.9-.9 4.2-1.8.8.3 1.7.4 2.6.4h.2c.6 0 1.3-.1 1.9-.2l14.2-2.7c1.8-.3 3.6-1.1 5-2.3.3-.3.6-.5.8-.8 1.4.6 2.8 1 4.3 1h.1c.7 0 1.3-.1 1.9-.2l15.6-2.8c2-.4 3.9-1.3 5.5-2.6 1.3.5 2.6.8 4 .8.6 0 1.2 0 1.8-.1l16.3-2.8c2.4-.4 4.5-1.6 6.2-3.2 1.5.8 3.2 1.2 4.9 1.2h.1c.5 0 1 0 1.5-.1l43.5-6.7c1.6-.2 3.1-.8 4.4-1.7 1 .3 1.9.4 2.9.5h.1c.5 0 1 0 1.5-.1l33.7-4.7c1.9-.3 3.7-.7 5.5-1.4 1.7-.6 3.4-1.3 5-2.2 1.8-.9 3.5-1.9 5-3.2 2.4-1.8 4.1-4.4 4.9-7.3l12.7-48.6c.3-1 .4-2 .4-3.1.3-1.7-.2-3.6-1.2-5.3z" fill="#573275"/><path d="m430.8 177.3c-1.3-2.1-3.6-3.4-6.1-3.5h-.3l-33.4 1.1c-2.1.1-4.2.4-6.2 1.1-1.8.6-3.5 1.5-5.1 2.6-1.1.8-2.2 1.7-3.1 2.8-.8-.9-1.7-1.7-2.7-2.3-1.5-1-3.1-1.7-4.7-2.2-1.5-.5-3.1-.7-4.6-.7h-.8l-39.9 2.2c-1.7.1-3.3.8-4.6 1.9-.4.3-.7.6-1 1-2.4-1.4-5.2-2.2-8-2.1h-1.1l-40.9 3c-1 .1-1.9.3-2.8.8-.7-.2-1.4-.3-2.1-.3h-.8l-13.6 1.2c-2.2.2-4.3 1.5-5.5 3.3-.3.4-.6.9-.9 1.4-1.1-1-2.4-1.9-3.9-2.4-1.5-.6-3-.9-4.6-.9-.4 0-.9 0-1.3.1l-41.4 4.2c-1.1.1-2.2.5-3.1 1-.7-.3-1.5-.4-2.2-.4h-.8l-35.3 4.3c-1.7.2-3.3 1-4.5 2.2-.5.5-.9 1-1.3 1.6-.8-.5-1.8-.9-2.7-1.3-1.4-.5-2.9-.8-4.5-.8-.6 0-1.2.1-1.9.1l-41.4 5.6c-1 .1-1.9.5-2.8 1-.6-.2-1.2-.3-1.8-.2-.4 0-.7 0-1.1.1l-13.9 2c-1.7.3-3.2 1.1-4.3 2.4-1.1-.7-2.3-1-3.5-1-.4 0-.7 0-1.1.1l-33 5.2c-1.8.3-3.3 1.2-4.5 2.5-.8 1-1.5 2.1-2 3.2-.7 1.5-1 3.2-1.1 4.9 0 .9.1 1.7.3 2.6l2.2 9.9-16.8 74.2c-.2.9-.3 1.9-.4 2.9 0 .8.1 1.6.3 2.4.3 1.2.9 2.3 1.8 3.2 1.2 1.2 2.8 1.9 4.5 1.9h.2c.6 0 1.2-.1 1.7-.2l16.2-4.2c2-.6 3.8-1.9 4.9-3.8.8-1.3 1.4-2.6 1.8-4.1 2-.7 4-1.2 6-1.6.3.9.8 1.7 1.4 2.4 1.2 1.3 2.9 2 4.6 2.1.5 0 1-.1 1.5-.2l14.4-3.6c2.1-.6 3.9-2 4.9-4 .3-.4.5-.9.7-1.4.3.3.5.6.8.9 1.2 1.1 2.7 1.6 4.3 1.6.6 0 1.1-.1 1.6-.2l15.8-3.8c2.1-.5 3.9-1.8 5-3.6.2-.2.3-.5.5-.7.1.1.2.2.4.3 1.2 1 2.7 1.5 4.2 1.5.5 0 1-.1 1.4-.2l16.6-3.8c2.1-.5 3.8-1.8 5-3.5.4-.6.7-1.1 1-1.8.3.4.6.7 1 1 1.2 1 2.7 1.5 4.2 1.5.5 0 1-.1 1.4-.1l29.4-6.4c2.1-.5 3.8-1.7 5-3.5l.9-1.5c.3.4.7.8 1.1 1.1 1.2.9 2.6 1.4 4 1.4.4 0 .9-.1 1.3-.1l43.5-8.7c1.7-.3 3.2-1.2 4.3-2.5 1.1.7 2.3 1 3.5 1 .4 0 .8 0 1.2-.1l14.2-2.7c2-.4 3.8-1.6 5-3.4.3-.4.5-.8.8-1.3.4.6.9 1.1 1.4 1.5 1.1.7 2.4 1.2 3.8 1.2.4 0 .9 0 1.3-.1l15.6-2.9c2-.4 3.7-1.4 4.9-3 .2-.2.4-.5.5-.8 1.3 1.2 3 1.9 4.7 1.9.4 0 .8 0 1.1-.1l16.4-2.8c2-.4 3.7-1.4 4.9-3 .5-.6.9-1.3 1.3-2 1.3 1.8 3.4 2.8 5.6 2.9.3 0 .7 0 1-.1l43.4-6.7c1.7-.3 3.2-1.1 4.5-2.3 1.1.7 2.3 1.1 3.6 1.1.3 0 .7 0 1-.1l33.7-4.7c1.6-.2 3.2-.6 4.7-1.2 1.5-.5 3.1-1.2 4.5-1.9 1.5-.8 2.9-1.7 4.3-2.7 1.7-1.3 3-3.2 3.6-5.3l7.3-28.2v-.2c.2-.7.2-1.3.2-2 0-.6-.1-1.3-.2-1.9 1.1-1.1 1.8-2.5 2.2-4l3.2-12.5c.2-.7.3-1.4.3-2.2.8-1.2.5-2.5-.2-3.6z" fill="#fdb515"/><path d="m68.4 225.4c-.2.9-.6 1.7-1.1 2.4-.3.6-.8 1-1.4 1.2l-9.3 1.6-3.4 14.9 8.8-1.7c.4-.1.8.2 1 .8.2.8.2 1.6-.1 2.4l-3 13.1c-.2.9-.6 1.8-1.1 2.6-.3.6-.8 1-1.4 1.2l-9.1 1.9-8.3 36.7c-.2.9-.6 1.9-1.1 2.7-.3.6-.8 1.1-1.4 1.3l-16.2 4.2c-.5.1-.8-.1-1-.7-.2-.8-.1-1.7.1-2.5l17.2-75.4-2.6-11.3c-.3-1.3-.2-2.6.4-3.8.6-1.4 1.3-2.2 2.1-2.3l33-5.3c.5-.1.8.2 1 .8.2.8.2 1.6-.1 2.4zm6.2 68.5c-.2.9-.5 1.7-1 2.5-.4.8-.9 1.2-1.3 1.3l-14.3 3.5c-.5.1-.8-.1-.9-.7-.1-.8-.1-1.6.2-2.4l19.8-86.5c.2-.9.5-1.7 1-2.5.4-.7.8-1.1 1.3-1.1l14-2.1c.5-.1.8.2.9.8.1.8.1 1.6-.1 2.3zm67.8-61.3c-.4 1.2-.8 2.3-1.4 3.4s-10.8 3.8-11.8 4.7c.7 1 10.6.4 10.6 1.6 0 1.1-.1 2.2-.4 3.2l-8.2 35.2c-.2.9-.6 1.7-1.1 2.4-.3.6-.9 1-1.5 1.2l-16.5 3.8c-.5.1-.9-.1-1.1-.6-.2-.7-.2-1.5 0-2.2l7.8-33.9-8.1 1.6-7.8 34.2c-.2.9-.6 1.7-1.1 2.5-.3.6-.9 1-1.5 1.3l-15.8 3.8c-.5.1-.9-.1-1.1-.7-.2-.8-.2-1.6.1-2.3l16.1-70.1-3.7-10.6c-.2-.6-.2-1.1-.1-1.7s.3-1.3.5-1.9.6-1.1 1-1.6c.3-.4.7-.7 1.2-.8l41.3-5.6c1.2-.2 2.5 0 3.6.4s2 1 2.9 1.8c.8.8 1.3 1.7 1.7 2.7.3 1.1.4 2.2.1 3.2v.2zm-26.9 1.6 8-1.4 3.2-13.9-8.1 1.3zm73-26.7c-.2.8-.5 1.5-1 2.1-.3.5-.8.9-1.4 1l-11.7 1.6-3 13 8.8-1.3c.5-.1.9.2 1 .6.2.7.2 1.4 0 2.1l-2.6 11.2c-.2.8-.5 1.6-1 2.2-.3.5-.8.9-1.4 1.1l-9 1.6-4.1 17.3 11.6-2.2c.4-.1.9.2 1 .6.2.7.2 1.4 0 2.1l-2.6 11.3c-.2.8-.5 1.6-1 2.3-.3.6-.8 1-1.4 1.1l-29.3 6.4c-.5.1-.9-.1-1.1-.6v-.1c-.2-.7-.2-1.5 0-2.2l15.2-65.5-3.2-10.2c-.3-1.2-.1-2.4.4-3.4.6-1.2 1.2-1.9 2.1-2l35.5-4.2c.5 0 .8.2 1 .7.2.7.2 1.4 0 2.1zm49.4 14.3c-.5 1-10.5 3.2-11.4 4.1.6.8 9.6.4 10 1.4.3.9.3 1.9-.1 2.8 0 .1-.1.3-.2.7s-.4 1.5-.8 3.4-1.2 4.9-2.2 9-2.3 9.8-4.1 17.3c-.2.8-.5 1.5-1 2.2-.3.5-.9.9-1.5 1.1l-43.3 8.7c-.5.1-1-.1-1.1-.6-.2-.7-.2-1.4 0-2l14.7-62.4-3.1-9.5c-.3-1-.2-2.2.4-3.1.3-.9 1.1-1.7 2.1-1.9l41.4-4.2c1.1-.1 2.2 0 3.2.4.9.4 1.7.9 2.4 1.6.6.7 1.1 1.6 1.3 2.5.3.9.3 2 0 2.9l-5.4 22.6c-.3 1-.7 2-1.3 3zm-24.9-2.8 7.6-1.1 2.9-12.2-7.6.9zm-7.3 32.9 7.5-1.3 3.8-16.3-7.3 1.2zm46.4 4.5c-.2.7-.5 1.4-.9 2-.3.5-.7.9-1.3 1.1l-14.1 2.7c-.4.1-.8-.1-.9-.5v-.1c-.2-.6-.1-1.3.1-1.9l16.7-69.5c.2-.7.5-1.4.9-2 .3-.5.7-.8 1.3-.9l13.8-1.2c.4-.1.9.2.9.7.2.6.2 1.3 0 1.9zm65.3-47.6c-.3.9-.7 1.8-1.2 2.7-.6 1.1-10.7 2.7-11.6 3.5.7.8 8.9-.3 9.9 1.3.7.8.8 1.9.4 2.8l-6.8 27.7c-.2.7-.5 1.4-1 1.9-.3.5-.9.8-1.4 1l-16.3 2.8c-.4.1-.9-.1-1.1-.5-.2-.6-.2-1.2 0-1.8l6.6-26.9-8 1.1-6.5 27.2c-.2.7-.5 1.4-1 2-.3.5-.9.9-1.4 1l-15.6 2.8c-.4.1-.9-.1-1.1-.5-.2-.6-.2-1.2 0-1.8l13.5-56-4-8.6c-.2-.4-.2-.9-.2-1.4.1-.5.2-1 .5-1.5.2-.5.5-.9.9-1.2.3-.3.7-.5 1.2-.6l40.8-3c1.2-.1 2.5 0 3.6.4 1.1.3 2 .8 2.9 1.5.7.6 1.4 1.3 1.8 2.2.4.8.5 1.7.2 2.6v.2zm-26.7.5 8-.9 2.6-10.9-7.9.7zm72.8 30.5c-.4.4-.9.7-1.4.8l-43.3 6.7c-.4.1-.9-.1-1.1-.5-.2-.5-.3-1.1-.1-1.7l12.7-51.3-4-7.9c-.2-.4-.2-.8-.2-1.3.1-.5.2-.9.4-1.4.2-.4.5-.8.9-1.1.3-.3.7-.5 1.2-.5l39.7-2.1c1.2 0 2.3.1 3.5.4 1.1.3 2.2.8 3.2 1.4.9.6 1.6 1.3 2.2 2.2.5.8.7 1.8.4 2.7l-13.1 51.8c-.1.7-.5 1.3-1 1.8zm-23-9.2 7.4-1 9.2-36.6-7.4.5zm86.2-38.9c-.1.6-.5 1.1-.9 1.5s-.9.6-1.4.7l-15 .9c-.4 0-.8-.2-1-.5-.2-.5-.3-1-.1-1.5l.7-2.9-8.2.5-2.4 9.2 24.8-1.7c.4-.1.9.1 1.1.5s.3 1 .1 1.4l-7.3 28.2c-.3.9-.9 1.7-1.7 2.3-1 .8-2.1 1.5-3.2 2.1-1.2.6-2.5 1.2-3.8 1.6-1.1.4-2.3.7-3.5.9l-33.6 4.7c-.4.1-.8-.1-1-.5-.2-.5-.3-1.1-.1-1.6l4.3-17.1c.1-.6.5-1.2.9-1.6.3-.4.8-.7 1.3-.8l15.8-1.7c.4-.1.9.1 1.1.5.3.4.3 1 .1 1.4l-1.5 6 7.3-.8 3.1-12.1-24.5 2.4c-.4.1-.9-.1-1.1-.5-.2-.5-.3-1-.1-1.6l6.4-25.3c.3-1.1.8-2 1.4-2.9.7-1 1.6-1.8 2.6-2.5 1.1-.8 2.3-1.4 3.6-1.8 1.4-.5 2.9-.7 4.4-.8l33.5-1.1c.4-.1.9.2 1.1.6s.3 1 .1 1.4z" fill="#fff"/><path d="m64.5 227.9c-.2.9-.6 1.7-1.1 2.4-.3.6-.8 1-1.4 1.2l-9.3 1.6-3.4 14.9 8.8-1.7c.5-.1.8.2 1 .8.2.8.2 1.6-.1 2.4l-3 13c-.2.9-.6 1.8-1.1 2.6-.3.6-.8 1-1.4 1.2l-9.1 1.9-8.3 36.6c-.2.9-.6 1.8-1.1 2.7-.3.6-.8 1.1-1.5 1.3l-16.2 4.3c-.5.1-.8-.1-1-.7-.2-.8-.1-1.7.1-2.5l17-75.5-2.6-11.3c-.3-1.2-.1-2.6.4-3.7.6-1.4 1.3-2.2 2.1-2.3l33-5.2c.5-.1.8.2 1 .8.2.8.2 1.6-.1 2.4zm6.1 68.5c-.2.9-.5 1.7-1 2.5s-.9 1.2-1.3 1.3l-14.3 3.5c-.5.1-.8-.1-.9-.7-.1-.8-.1-1.6.2-2.4l19.8-86.5c.2-.9.5-1.7 1-2.5.4-.7.9-1.1 1.3-1.1l13.9-2c.5-.1.8.2.9.8.1.8.1 1.6-.1 2.3zm67.8-61.3c-.4 1.2-.8 2.3-1.4 3.4s-10.8 3.8-11.8 4.7c.7 1 10.6.4 10.6 1.6 0 1.1-.1 2.2-.4 3.3l-8.2 35.1c-.2.9-.6 1.7-1.1 2.4-.3.6-.9 1-1.5 1.2l-16.5 3.8c-.4.1-.9-.1-1.1-.5v-.1c-.2-.7-.2-1.5 0-2.2l7.8-33.9-8.1 1.6-7.8 34.2c-.2.9-.6 1.7-1.1 2.5-.3.6-.9 1-1.5 1.2l-15.7 3.8c-.4.1-.9-.1-1-.5v-.1c-.2-.8-.2-1.6 0-2.3l16.1-70.1-3.8-10.6c-.2-.6-.2-1.1-.1-1.7s.3-1.3.5-1.9c.3-.6.6-1.1 1-1.6.3-.4.7-.7 1.2-.8l41.4-5.6c2.4-.3 4.8.4 6.5 2.1.8.8 1.3 1.7 1.7 2.7.3 1.1.4 2.2.1 3.2v.2zm-26.9 1.6 8.1-1.4 3.2-13.8-8 1.2zm73-26.8c-.2.8-.5 1.5-1 2.1-.3.5-.8.9-1.4 1l-11.7 1.6-3.1 13 8.8-1.3c.5-.1.9.2 1 .7.2.7.2 1.4 0 2.1l-2.6 11.2c-.2.8-.5 1.6-1 2.2-.3.5-.8.9-1.4 1.1l-9 1.6-4 17.3 11.6-2.2c.4-.1.9.1 1.1.5v.1c.2.7.2 1.4 0 2.1l-2.6 11.3c-.2.8-.5 1.6-1 2.3-.3.6-.8 1-1.4 1.1l-29.3 6.4c-.4.1-.9-.1-1.1-.5v-.1c-.2-.7-.2-1.5 0-2.2l15.2-65.4-3.2-10.2c-.3-1.2-.1-2.4.4-3.4.6-1.2 1.2-1.9 2-2l35.4-4.1c.5 0 .9.3 1 .7.2.7.2 1.4 0 2.1zm49.4 14.4c-.6 1-12.4 3.2-11.4 4.1s9.2.6 9.9 1.4.2 2 0 2.8c0 .1-.1.3-.2.7s-.4 1.4-.8 3.4-1.2 4.9-2.2 9-2.3 9.7-4.1 17.3c-.2.8-.5 1.5-1 2.2-.3.5-.9.9-1.5 1.1l-43.3 8.7c-.5.1-.9-.1-1.1-.6-.2-.7-.2-1.4 0-2.1l14.7-62.4-3.1-9.5c-.3-1-.2-2.2.4-3.1.6-1.2 1.3-1.8 2.2-1.9l41.4-4.2c1.1-.1 2.2 0 3.2.4.9.3 1.7.9 2.4 1.5.6.7 1.1 1.6 1.4 2.5s.3 1.9 0 2.9l-5.4 22.6c-.4 1.1-.9 2.2-1.5 3.2zm-24.8-2.8 7.6-1 2.9-12.2-7.6.9zm-7.4 32.9 7.5-1.4 3.8-16.2-7.3 1.2zm46.4 4.5c-.2.7-.5 1.4-.9 2-.3.5-.7.9-1.3 1.1l-14.1 2.7c-.4.1-.8-.1-.9-.5v-.1c-.1-.6-.1-1.3.1-1.9l16.6-69.6c.1-.7.4-1.4.9-2 .3-.5.7-.8 1.3-.9l13.8-1.1c.4-.1.8.2.9.7.2.6.2 1.3 0 1.9zm65.3-47.6c-.3.9-.7 1.8-1.2 2.7-.5.8-10.7 2.7-11.6 3.4.7.8 9.3 0 10.1 1.3s.3 1.8.2 2.8l-6.8 27.7c-.2.7-.5 1.3-1 1.9-.3.5-.9.8-1.4 1l-16.4 2.8c-.4.1-.9-.1-1.1-.5-.2-.6-.2-1.2 0-1.8l6.5-26.8-8 1.1-6.4 27.2c-.2.7-.5 1.4-1 2-.3.5-.9.9-1.4 1l-15.6 2.8c-.4.1-.9-.1-1.1-.5-.2-.6-.2-1.2 0-1.8l13.5-56-4-8.7c-.2-.4-.3-.9-.2-1.4s.2-1 .5-1.5c.2-.5.5-.9.9-1.2.3-.3.7-.5 1.2-.6l40.8-3c1.2-.1 2.5.1 3.6.4s2 .8 2.9 1.5c.8.6 1.4 1.3 1.8 2.2.4.8.5 1.7.2 2.6v.2zm-26.7.5 8-.9 2.6-10.9-7.9.7zm72.8 30.5c-.4.4-.8.7-1.4.9l-43.3 6.7c-.4.1-.9-.1-1.1-.5-.2-.5-.3-1.1-.1-1.7l12.7-51.3-4.1-7.9c-.2-.4-.2-.8-.2-1.3.1-1 .6-1.8 1.3-2.5.3-.3.7-.5 1.2-.5l39.8-2.2c1.2 0 2.3.1 3.4.4s2.2.8 3.2 1.4c.9.5 1.6 1.3 2.2 2.2.5.8.7 1.8.4 2.7l-13 51.8c-.2.7-.6 1.3-1 1.8zm-23-9.2 7.4-1 9.1-36.6-7.3.5zm86.2-39c-.1.6-.4 1.1-.9 1.5-.4.4-.9.6-1.4.6l-15 .9c-.4 0-.8-.2-1-.5-.2-.5-.3-1-.1-1.5l.8-2.9-8.2.5-2.4 9.2 24.8-1.7c.4-.1.9.1 1.1.5s.3 1 .1 1.4l-7.3 28.1c-.3.9-.9 1.7-1.7 2.3-1 .8-2.1 1.5-3.2 2-1.2.6-2.5 1.2-3.8 1.6-1.1.4-2.3.7-3.5.9l-33.6 4.7c-.4.1-.8-.1-1-.5-.2-.5-.3-1.1-.1-1.6l4.3-17c.2-.6.5-1.2.9-1.6.3-.4.8-.7 1.3-.8l15.8-1.7c.4-.1.9.1 1.1.5s.3 1 .1 1.4l-1.5 6 7.3-.8 3.1-12.1-24.5 2.4c-.4.1-.9-.1-1.1-.5-.2-.5-.2-1.1-.1-1.6l6.4-25.3c.3-1.1.8-2 1.4-2.9.7-1 1.6-1.8 2.6-2.5 1.1-.8 2.3-1.4 3.6-1.8 1.4-.5 2.9-.7 4.4-.8l33.5-1.1c.4-.1.9.2 1.1.6s.3 1 .1 1.4zm-225.6-67c.7 1.2-.3 3.1-2.2 4.1s-4 .9-4.7-.4.3-3.1 2.2-4.1 4-.9 4.7.4z" fill="#381460"/></svg>