<svg height="271.005504" viewBox="0 0 481.9 353.79998" width="368.996195" xmlns="http://www.w3.org/2000/svg"><path d="m0 0h481.9v368.5h-481.9z" fill="none"/><g fill="#0c1c3d"><path d="m319 173.9c12.1-9.4 23.6-20.4 32.9-32.8-1.5-7.5-3.9-14.7-7-21.7l-51.8 44.2zm3.3 1.2 11.5 4.6-40 20.2h43.8c6.7-6.9 12.1-14.1 14.9-21.1.9-5.5 1.4-11.1 1.4-16.7 0-5.7-.5-11.4-1.4-17-8.7 11.3-18.9 21.3-30.2 30zm24.5 24.9c1.3-3.4 2.5-6.9 3.4-10.4-2.5 3.7-5.3 7.1-8.3 10.4zm-181.9-46.2 31-14.8c-9.7-2.8-19.7-4.1-29.7-3.7-5.1 20.1-2.6 40 5 58.5l28.9-26.2z"/><path d="m170.1 94.8c-9.7 11.5-16.9 25-20.9 39.5 13.4-3.2 33.9-3.1 50.8 2.8l48.8-23.3c-24-18.7-63.1-21.6-78.7-19zm-7.1 40.6c-4.9.3-9.9 1-14.6 2.3-5 20.7-3.5 42.5 4.3 62.3h11.9l4.5-4.1c-8.4-20.5-10.6-41.9-6.1-60.5z"/><path d="m289.4 87c-24.1-22.8-59-23.9-75.7-22.9-15.5 5.7-29.4 15-40.5 27.1 18.4-1.7 55.8 2.3 78.8 20.9l23.5-11.2c5.2-4.8 9.9-9.6 13.9-13.9zm15.1-13.7c-3.6 5.5-10.7 14-20.3 23.6l31.9-15.2c-3.7-3.1-7.6-5.9-11.6-8.4z"/><path d="m301.8 71.6c-23.5-13.5-51.2-17.4-77.5-10.8 18.8.3 46.6 4.6 67.1 23.9 3.8-4.1 7.2-8.5 10.4-13.1z"/></g><path d="m322.3 175.1-3.3-1.3-25.9-10.3 51.8-44.1 137-116.9-165.8 79.1-31.9 15.3-8.8 4.1-23.5 11.3-3.1 1.4-48.8 23.3-4.1 2-31 14.8 35.2 13.8-28.9 26.2-2.2 2-4.5 4.1h-.1l14 .1 39.2-35.7-29.2-11.4 233.1-111.2-146.3 124.8 35.9 14.2-38 19.3 20.7-.1 40-20.2z" fill="#782b8f"/><path d="m217.6 164.3-39.2 35.7z" fill="#ffb719"/><path d="m299.8 181.2-26.3-10.4-7.1-2.9 5.8-4.9 119.5-101.9-191.6 91.4 19.2 7.5 7 2.8-5.6 5-35.4 32.2h77.5z" fill="#fdb71d"/><path d="m311.1 180.7-38 19.3zm0 0-35.9-14.2 146.3-124.8-233.1 111.2 29.2 11.4-39.2 35.7h6.9l35.4-32.2 5.6-5-7-2.8-19.2-7.5 191.6-91.4-119.5 101.9-5.8 4.9 7.1 2.9 26.3 10.4-37 18.8h10.3z" fill="#fff"/><path d="m44 260.3 17.6-50.6h-27.5l11.2 7.5-19.4 55.6h38.9l4.3-12.5zm63.1-50.6h-27.6l11.2 7.5-19.3 55.6h13.7zm109.6 0h-26.7l10.4 7.5-6.1 17.3h-18.2l8.7-24.8h-13.8l-22 63.1h13.8l9-25.8h18.2l-9 25.8h13.7zm203.1 28.7h25.2l-8.3 24c-2 5.8-8.3 10.4-14 10.4h-22.3c-5.8 0-8.8-4.6-6.8-10.4l14.7-42.3c2-5.8 8.3-10.4 14.1-10.4h22.2c5.8 0 8.8 4.6 6.8 10.4l-2.7 7.7-14.2 2.3 2.4-6.9c.2-.6 0-1-.6-1h-13.9c-.6 0-1.1.4-1.3 1l-12.6 36.3c-.2.6 0 1 .6 1h14c.6 0 1.1-.4 1.3-1l5-14.2zm-294.4 0h25.2l-8.4 24c-2 5.8-8.3 10.4-14 10.4h-22.3c-5.8 0-8.8-4.6-6.8-10.4l14.7-42.3c2-5.8 8.3-10.4 14.1-10.4h22.2c5.8 0 8.8 4.6 6.8 10.4l-2.7 7.7-14.2 2.3 2.4-6.9c.2-.6-.1-1-.6-1h-14c-.6 0-1.1.4-1.3 1l-12.6 36.3c-.2.6 0 1 .6 1h14c.6 0 1.1-.4 1.3-1l5-14.2zm190.2-28.7h-27.5l11.5 7.7-10.1 29.3-8.2-37h-13.3l-21.9 63.1h13.2l12.8-36.8 8.3 36.8h13.2zm27.9 0h-26.7l10.3 7.5-19.3 55.6h13.7zm-112 12.5-17.6 50.6h13.7l17.6-50.6h11.6l4.3-12.5h-37.9l-4.3 12.5zm170-12.5h-27.6l11.6 7.7-10.2 29.3-8.2-37h-13.2l-22 63.1h13.3l12.8-36.8 8.2 36.8h13.3z" fill="#0c1c3d"/><path d="m176.1 282.4-5.6 16.3c-.6 1.8-2.3 3.1-4.2 3.2h-6.7c-1.7 0-2.6-1.4-2-3.2l5.6-16.3h4.1l-5.3 15.4c-.1.2 0 .3.2.3h4.2c.2 0 .3-.1.4-.3l5.3-15.4zm11.9 19.6h-4l-2.3-11.4-3.9 11.4h-4l6.7-19.5h3.9l2.3 11.5 3.9-11.5h3.9zm18-3.3c-.6 1.8-2.3 3.1-4.2 3.3h-6.4c-1.7 0-2.6-1.4-2-3.2l.9-2.6h4l-.6 1.7c0 .2 0 .3.2.3h3.9c.2 0 .3-.1.4-.3l.9-2.7c.1-.2 0-.3-.2-.4l-4.9-1.6c-1.5-.5-2.2-1.3-1.6-3l1.5-4.4c.6-1.8 2.3-3.1 4.2-3.2h6.2c1.7 0 2.6 1.4 2 3.2l-.9 2.6h-4l.6-1.6c.1-.2 0-.3-.2-.3h-3.8c-.2 0-.3.1-.4.3l-.9 2.5c-.1.1 0 .3.1.3h.1l5.1 1.6c1.4.5 2.1 1.3 1.5 3zm15.4-4.7h-5.4l-2.8 8h-4.1l6.7-19.5h4.1l-2.6 7.7h5.4l2.6-7.7h4.1l-6.7 19.5h-4.2zm9.9 8h-4.1l6.7-19.5h4.1zm-78-3.3c-.6 1.8-2.3 3.1-4.2 3.2h-6.4c-1.7 0-2.6-1.4-2-3.2l.9-2.6h4l-.6 1.7c-.1.2 0 .3.2.3h3.9c.2 0 .3-.1.4-.3l.9-2.7c.1-.2 0-.3-.2-.4l-4.9-1.6c-1.5-.5-2.2-1.3-1.6-3l1.5-4.4c.6-1.8 2.3-3.1 4.2-3.2h6.2c1.7 0 2.6 1.4 2 3.2l-.9 2.6h-4l.6-1.6c.1-.2 0-.3-.2-.3h-3.8c-.2 0-.3.1-.4.3l-.9 2.5c-.1.1 0 .3.1.4h.1l5 1.6c1.4.5 2.1 1.3 1.5 3zm96.6 3.3h-3.9l-2.4-11.4-3.9 11.4h-4l6.7-19.5h3.9l2.3 11.5 3.9-11.5h3.9zm11.2-19.6h11.7l-1.3 3.9h-7.6l-1.3 3.7h7l-1.3 3.9h-7l-1.5 4.2h7.6l-1.4 3.9h-11.7zm35.1 12.2-1.4 4.1c-.6 1.8-2.3 3.1-4.2 3.2h-6.5c-1.7 0-2.6-1.4-2-3.2l4.5-13.1c.6-1.8 2.3-3.1 4.2-3.2h6.5c1.7 0 2.6 1.4 2 3.2l-1.2 3.6h-4l.9-2.7c.1-.2 0-.3-.2-.3h-4c-.2 0-.3.1-.4.3l-3.9 11.2c-.1.2 0 .3.2.3h4c.2 0 .3-.1.4-.3l1-3.1zm11.7 7.4h-6.9c-1.7 0-2.6-1.4-2-3.2l4.5-13.1c.6-1.8 2.3-3.1 4.2-3.2h7c1.7 0 2.6 1.4 2 3.2l-4.5 13.1c-.7 1.8-2.4 3-4.3 3.2zm4.2-15.6h-4.4c-.2 0-.3.1-.4.3l-3.9 11.2c-.1.2 0 .3.2.3h4.4c.2 0 .3-.1.4-.3l3.9-11.2c-.1-.2-.1-.4-.2-.3zm17.5 15.6h-4.2l.1-3.9h-5.8l-2.5 3.9h-4.2l12.9-19.5h4.1zm-7.3-7.6h3.4l.5-6.5zm22.7 4.3c-.6 1.8-2.3 3.1-4.2 3.3h-6.4c-1.7 0-2.6-1.4-2-3.2l.9-2.6h4l-.6 1.7c-.1.2 0 .3.2.3h3.9c.2 0 .3-.1.4-.3l.9-2.7c.1-.2 0-.3-.2-.4l-4.9-1.6c-1.5-.5-2.2-1.3-1.6-3l1.5-4.4c.6-1.8 2.3-3.1 4.2-3.2h6.3c1.7 0 2.6 1.4 2 3.2l-.9 2.6h-4l.6-1.6c0-.2 0-.3-.2-.3h-3.8c-.2 0-.3.1-.4.3l-.9 2.5c-.1.1 0 .3.1.4h.1l5 1.6c1.4.5 2.1 1.3 1.5 3zm8-16.3h13.8l-1.3 3.9h-4.9l-5.4 15.7h-4l5.4-15.6h-4.9zm-238.1-.5-59.9 30.2 33.4-30.2h-13.3l-75.1 68.1 134.7-68.1z" fill="#782b8f"/><path d="m114.9 281.9-59.9 30.2z" fill="#ffb719"/><path d="m105.1 281.9h-10.1l-12.8 11.5z" fill="#fdb71d"/><path d="m88.4 281.9-33.4 30.2zm26.5 0h-9.8l-22.9 11.5 12.8-11.5h-6.6l-33.4 30.2z" fill="#fff"/></svg>